<svg xmlns="http://www.w3.org/2000/svg" version="1.2" viewBox="0 0 1056 592">
  <path fill="#f8f9f9" d="M6.3 49.7c-3 .2-4.3.8-4.3 1.8 0 .8.9 1.5 2 1.5s2 .4 2 1c0 .5-.8 1.2-1.8 1.6-1 .3-2.2-.2-3-1.3-1-1.5-1.2 20.4-1.2 115 0 92.9.3 116.6 1.3 116.4.6-.2 3-.9 5.2-1.5s6.9-1.5 10.5-1.9 10.1-.6 14.5-.6c4.4.1 9.6.4 11.5.7 1.9.2 8.2 2 14 4 5.8 1.9 13 4.7 16 6.2s8.8 5 12.8 7.6c3.9 2.6 10.5 8.1 14.5 12 4.1 4 9.2 10 11.4 13.3s5.4 8.7 7 12c1.7 3.3 4 8.9 5.1 12.5 1.2 3.6 2.6 9.4 3.3 13 .6 3.6 1.2 8.8 1.3 11.6l.1 5.1c8.5-2.9 14.2-4.5 18-5.3 3.9-.8 10.9-1.4 16-1.3 4.9.1 12.2 1 16 1.9 3.8 1 9.9 2.8 13.5 4.2s9.2 4.2 12.5 6.3 8.9 6.8 12.5 10.4c3.7 3.6 8.1 8.8 9.9 11.6 1.8 2.7 4.4 7 5.6 9.5s3.4 8.1 4.8 12.5c1.3 4.4 2.7 10.5 3.1 13.5.3 3 .6 5.8.6 6.2 0 .5 2.4-.5 5.2-2.1 2.9-1.7 8.5-4.2 12.3-5.7 6-2.3 8.8-2.8 19.5-3.1 10.2-.2 13.9.1 19.8 1.7 3.9 1.1 9.6 3.2 12.4 4.6 2.9 1.4 7.7 4.5 10.7 6.8 3 2.2 7.8 7 10.6 10.6 2.9 3.6 6.3 8.7 7.6 11.4 1.3 2.6 2.6 5 2.9 5.1.3.2 4.1-1.4 8.5-3.6 4.4-2.1 10.9-4.3 14.5-4.9 5-.8 8.3-.8 14.5.3 4.4.8 10.7 2.6 14 4.1s7.9 4.3 10.2 6.2c2.4 1.9 5.2 3.4 6.3 3.4s2.2-.3 2.4-.8c.2-.4 2.3-1.3 4.7-2s5.3-1.5 6.4-1.7 3.4-.4 5-.4c2.8-.1 3-.2 2.2-3.1-.4-1.6-2-4.9-3.6-7.3-1.6-2.3-4.7-6.1-6.8-8.4s-4.4-4.2-5.1-4.3c-.6 0-1.2-.3-1.2-.8 0-.4-2.8-2-6.2-3.6-3.5-1.6-7.8-2.9-9.6-3-1.7 0-3.2-.4-3.2-.9 0-.4-2.6-.7-5.8-.6-3.1.1-6.1.4-6.7.7-.6.4-2.4 1.1-4 1.7s-4 .9-5.3.8c-2.1-.3-2.2-.8-2.2-7.6 0-4.1-.9-10.7-2-15.2-1.2-4.4-4.2-12-6.8-17-2.9-5.6-5.7-9.5-7.4-10.5-1.5-.8-3.4-3-4.2-4.8-.9-1.7-2.5-3.4-3.6-3.7s-2-.9-2-1.5-.7-1-1.5-1-1.5-.4-1.5-1-.7-1-1.5-1-1.5-.4-1.5-1-.7-1-1.5-1-1.5-.4-1.5-1-.8-1.3-1.8-1.6c-.9-.3-2.8-.8-4.2-1.1-1.4-.2-2.7-.9-3-1.5-.3-.5-.7-.9-1-.7-.3.1-2.2-.1-4.3-.4-2-.4-3.7-1.1-3.7-1.7s-1.3-.7-3.3-.3c-2.3.5-3 .3-2.5-.5.6-.9-1.5-1.1-8.5-.7-5 .2-10.9.7-13 1-2 .3-5.1 1.2-6.7 2s-3.8 1.5-4.8 1.5c-.9-.1-3 1-4.7 2.2-1.6 1.3-5.6 3.5-9 5-3.3 1.4-6.3 2.5-6.8 2.2-.4-.2-.9.3-1.2 1.1s-1.2 1.5-2 1.5-1.5-.6-1.5-1.3c0-.6.4-1.6.9-2.2s2.8-5.3 5.1-10.5 4.8-12 5.5-15c.8-3 1.6-7.1 1.9-9s.8-6.2 1.1-9.5c.4-3.3.2-8.7-.4-12s-1.3-7.9-1.6-10.3c-.3-2.3-1.7-7.2-3.1-11-1.4-3.7-4.5-10.1-7-14.2-2.4-4.1-4.4-7.6-4.4-7.8 0-.1-.8-1.2-1.8-2.4-.9-1.2-4.4-4.9-7.7-8.3-3.3-3.3-6.8-6.4-7.8-6.8-.9-.4-1.7-1.1-1.7-1.7s-.7-1-1.5-1-1.5-.4-1.5-1-.6-1-1.3-1c-.6 0-2.5-1.1-4.2-2.5-1.7-1.3-3.3-2.2-3.8-2-.4.3-.7.1-.7-.5s-1.6-1.2-3.5-1.5-3.5-.8-3.5-1.3c0-.4-1-.8-2.2-.9-1.3-.2-2.6-.8-3-1.5s-.8-.9-.7-.3c0 .6-.6.4-1.3-.2-.7-.7-1.5-1.1-1.8-.8-.3.2-2.1 0-4-.6-1.9-.5-10.4-1-18.8-.9H166c.9-5.8 2-10 3-13 .9-3 2.1-8.9 2.6-13 .4-4.1.8-14 .8-22 .1-8-.3-17.7-.8-21.5-.4-3.9-1.4-8.5-2.2-10.3-.8-1.7-1.2-3.3-.9-3.5.3-.1-1.1-5.4-3.1-11.7-1.9-6.3-4.3-13.1-5.3-15s-2.6-5.3-3.6-7.5c-1.1-2.2-2.4-4.7-3.1-5.5-.6-.8-2.3-3.5-3.6-6-1.4-2.5-3.1-5.6-3.9-7-.8-1.3-1.9-2.9-2.5-3.5-.6-.5-4.2-4.8-8-9.4s-7.7-8.8-8.7-9.2c-.9-.5-1.5-1.2-1.2-1.7.3-.4-.5-1.4-1.9-2.2-1.3-.8-4.6-3.5-7.3-6-2.8-2.5-5.9-5.1-6.9-5.8-1.1-.6-4.2-2.6-6.9-4.4-2.8-1.7-7.5-4.5-10.5-6.1-3-1.7-5.8-3.5-6.2-4.1s-.8-.8-.8-.4c0 .5-2-.3-4.5-1.7S74.8 61 73.2 61c-1.5 0-3.2-.4-3.7-.8-.5-.5-3.7-1.8-7-3-3.3-1.1-8.7-2.9-12-3.8-3.3-1-6.7-1.9-7.5-2-.8 0-1.7-.2-2-.3s-2.5-.4-5-.6c-2.5-.1-9.2-.5-15-.7-5.8-.3-12.4-.3-14.8-.1zm1009.3 102.5c-6 .5-12.6 1.3-14.5 1.9s-6.2 1.7-9.5 2.5-8.2 2-11 2.5c-2.7.6-7.9 2.4-11.5 4.1-3.6 1.6-8.7 4.5-11.5 6.3-2.7 1.9-7.5 4.1-10.5 4.9-3.9 1-6 2.3-7 4-.9 1.5-2.1 2.6-2.8 2.6s-6.1 4.4-11.9 9.7c-5.9 5.4-12.5 11.6-14.8 13.8-2.2 2.3-5.6 6.2-7.5 8.9-1.9 2.6-4.3 5.6-5.2 6.7-1 1-1.5 1.9-1 1.9.4-.1 0 .7-.9 1.7s-2.9 4-4.4 6.8c-1.6 2.7-3 5.7-3.2 6.5-.1.8-.8 3.1-1.6 5s-2.2 4.2-3.1 5-1.9 3-2.1 4.7c-.3 1.8-.9 3.3-1.5 3.3-.5 0-.8.4-.5 1s.1 1.2-.5 1.5c-.5.3-.8.9-.5 1.5s.1 1.2-.5 1.5c-.5.3-.8 1.2-.5 2s.1 1.7-.5 2c-.5.3-.8.9-.5 1.5s.2 1.6-.2 2.2c-.4.7-.8 1.7-1 2.3-.1.6-.5 2.1-.8 3.5-.4 1.4-.8 4.5-1 7s-.7 6.7-1.1 9.5c-.4 2.7-.7 9.7-.7 15.5s.3 13 .6 16 .8 7.3 1.1 9.5.8 5.4 1.2 7c.3 1.6.9 3.4 1.2 4s.7 2.1.9 3.5c.1 1.4.7 2.7 1.2 3 .6.3 1.7 3.2 2.5 6.5.9 3.3 3.7 10.3 6.3 15.6 2.7 5.2 6 11.2 7.6 13.2l2.7 3.7c-3.9.8-5.6.6-6.2.2-.7-.4-5.1-.7-9.8-.5-4.7.1-9.6.4-11 .7s-3.9.7-5.6.8c-1.7.2-3.7.8-4.5 1.5s-2.6 1.4-4.2 1.5c-1.5.2-2.7.6-2.7 1 0 .5-3.8 2.6-8.5 4.8s-9.5 4.9-10.7 6.1c-1.3 1.2-3.4 2.8-4.8 3.7s-3.1 2.5-3.7 3.4c-.7 1-1.9 1.8-2.5 1.8-.7 0-2.3 1-3.5 2.3-1.3 1.3-1.9 2.8-1.5 3.5q.7 1.3-1.5 1.8c-1.3.2-2.1.8-1.8 1.4s-.3 1.2-1.2 1.5c-1 .3-1.5.9-1.1 1.3s-.2 2.4-1.2 4.4c-1.1 2.1-2.4 3.8-3 3.8-.5 0-.8.4-.5 1s.2 1-.2 1c-.5 0-.9 1-1 2.2-.2 1.3-.8 2.6-1.5 3s-.8.8-.3.8c.6 0 .5.4-.2.8-.6.4-1.3 1.8-1.5 3.2s-.7 3.1-1.1 3.7c-.4.7-.5 1.7-.2 2.3s.2 1.6-.2 2.2c-.5.7-.9 2.4-1 3.8-.2 1.4-.4 7.2-.5 12.8-.2 5.7 0 10.6.5 10.8.4.2.5 1.3.2 2.4s-.2 2.6.2 3.2c.4.7.8 2.7.9 4.3.2 1.6.9 3.3 1.6 3.7s.9.8.3.7c-.5 0-.4.6.2 1.3.7.7 1 1.6.6 2-.3.5-.2.8.3.8s1.5 1.1 2.2 2.5c.6 1.4.9 2.7.5 2.9-.5.1-3.8.4-7.5.5-3.8 0-7.4.2-8 .3-.7.2-1.9.9-2.6 1.5-.7.7-2.2 1.3-3.3 1.3-1 0-2.2 0-2.6.1-.5.1-2.6 1.4-4.8 3-2.2 1.5-4.2 2.6-4.5 2.4s-1.1.7-1.7 2c-.7 1.4-1.7 2.5-2.3 2.5-.5 0-2 1-3.2 2.1-1.3 1.2-1.6 1.8-.8 1.3s.3.7-1.2 2.6-2.7 4-2.7 4.5-.7 1.7-1.6 2.5-1.6 2-1.5 2.5c0 .6 3.2 1 7.4 1 7.2 0 7.5-.1 9-3 .9-1.6 3.5-5.1 5.9-7.7 2.3-2.6 6.9-6.4 10.2-8.3s8.9-4.5 12.5-5.7c4.8-1.6 8.9-2.2 15.5-2.1 7.1 0 10.6.5 16.5 2.6 4.1 1.4 7.7 2.4 8 2.1s.4-3.1.2-6.2c-.1-3.6.6-8.3 1.9-12.7 1.2-3.9 3.6-10.1 5.5-14s6.7-10.8 10.7-15.5c4.6-5.4 10-10.3 14.7-13.5 4.1-2.7 10.7-6.2 14.5-7.8 3.9-1.5 9.9-3.5 13.5-4.3 3.6-.9 11-1.7 16.5-1.9 8-.3 11.8.1 19 1.9 5 1.3 11.3 3.3 14 4.5 2.8 1.1 5.1 2 5.3 1.9.1-.2-.7-2.3-1.7-4.8-1.1-2.5-2.7-8.8-3.6-14s-1.6-13.6-1.6-18.5.3-11 .6-13.5c.4-2.5 1.5-8.3 2.7-13 1.1-4.7 3.6-12.3 5.5-17s6.2-13.2 9.6-18.9 8.9-13.3 12.2-17c3.3-3.6 8.3-8.7 11-11.2 2.8-2.5 7.5-6.3 10.5-8.5 3-2.1 9.1-5.8 13.5-8.2s13.2-6.3 19.5-8.8 13-4.6 14.7-4.7l3.3-.2v-131c-5-.4-6.9-.9-7.5-1.4-.5-.5-1.7-.7-2.6-.5-.9.1-2.3 0-3-.4-.8-.3-2.1-.7-2.9-.8s-4.2-.4-7.5-.6c-3.3-.3-10.9-.1-17 .4M462 484.9c.1.9 1.8 2.4 3.9 3.4 3.2 1.5 7.4 1.8 29.2 2.2 18.8.3 25.9.1 26.9-.8 1.2-.9 1.3-.9.8 0-.4.8-.1 1.3.8 1.3.8 0 1.3-.5 1-1-.3-.6.1-1.2.8-1.4.6-.3-1.9-.5-5.8-.5-3.8-.1-11.3-.5-16.5-1s-10.6-.7-12-.6-2.9 0-3.5-.4c-.5-.3-2.8-.7-5-.8s-6-.4-8.5-.7-6.2-.8-8.4-1c-3.1-.3-3.8-.1-3.7 1.3" opacity=".99"/>
  <path fill="#e2e9ec" fill-rule="evenodd" d="M12.6 47c-.3.5-1.9.8-3.6.5-1.6-.3-3.2 0-3.5.5s-1.3.7-2.2.3c-1.1-.3-1.5-.2-1 .3s6.7.9 13.8.9S29 49.3 29 49s-.6-.6-1.3-.8c-.6-.1-3.7-.4-6.7-.5s-6-.6-6.7-1c-.6-.4-1.4-.3-1.7.3m17.8 2.2c-.2.4.4 1 1.3 1.3 1 .3 2.1 0 2.5-.7.6-1 .8-1 .8-.1 0 .7.8 1.3 1.8 1.3s1.7-.3 1.5-.8c-.3-.4-.9-.8-1.4-1-.5-.1-1-.2-1.2-.3-.1 0-1.3-.2-2.6-.3-1.3-.2-2.5.1-2.7.6M0 51.7c0 .5.5 1.6 1.2 2.6.8 1.1 2 1.6 3 1.3 1-.4 1.8-1.1 1.8-1.6s-.9-1-2-1-2-.5-2-1-.5-1-1-1c-.6 0-1 .3-1 .7m45.1-.3c-.1.3 2.5 1.3 5.6 2.2 3.2.8 8.5 2.5 11.8 3.6 3.3 1.2 6.4 2.5 7 3 .5.4 2.3.8 4 .8l3-.1c-4.7-2.6-6.7-3.5-7.5-3.7s-2.1-.4-2.8-.5c-.6-.1-1.2-.4-1.2-.7s-.7-.6-1.5-.8c-.8-.1-2.2-.3-3-.5-.8-.1-1.5-.5-1.5-1 0-.4-.7-.5-1.5-.2s-1.5.2-1.5-.3c0-.4-.8-.8-1.8-.9-.9-.1-3.3-.5-5.4-.8-2-.4-3.7-.4-3.7-.1m40.7 14.5c.1.3 2.3 1.7 4.9 3.1 2.7 1.3 6.6 3.6 8.8 5.1 2.2 1.4 5 3.1 6.2 3.8 1.5.7 2.5.7 2.8.1.3-.5.2-.9-.3-.8-.4.1-2.1-.6-3.7-1.7-1.7-1.1-3.3-2.4-3.7-3q-.8-1-.8 0c0 .5-.6.3-1.3-.6s-1.5-1.7-2-1.7c-.4-.1-2.3-1-4.4-1.9-2-.9-3.6-2-3.6-2.3 0-.4-.7-.7-1.5-.7-.9 0-1.5.3-1.4.6m27.4 16.5c-.1.3 1.7 2.3 3.9 4.3 2.3 2.1 5.1 4.4 6.3 5.2 1.2.7 0-.8-2.7-3.3-2.6-2.5-4.4-4.9-4-5.4.5-.4.3-.4-.2 0-.6.5-1.5.3-2-.3-.6-.6-1.1-.9-1.3-.5m12.5 11.5c-.4.6.1 1.5 1 2 1 .4 4.9 4.6 8.7 9.2s7.3 8.9 7.8 9.4c.4.6.7.1.5-1.2-.1-1.1-.5-1.9-1-1.7-.4.2-1-.4-1.4-1.3-.3-1-.5-2.1-.5-2.5.1-.5-.4-.7-1.1-.5-.6.1-1.1-.5-.9-1.3s.1-1.2-.2-.7c-.3.4-3.1-2.1-6.3-5.5-3.1-3.5-5.7-6.4-5.8-6.6s-.5.1-.8.7m19.8 22.1c-.3.5.4 2.3 1.5 4s2 3.2 2 3.5 1.3 2.5 3 5c1.6 2.5 3 4.9 3 5.5s.6 1.3 1.2 1.7c.8.5 1.1.4.7-.2-.3-.6-1.4-2.8-2.4-5-.9-2.2-2.8-5.5-4.1-7.3-1.3-1.7-2.2-3.7-1.9-4.2s-.1-.9-.8-.8c-.6.2-1.2-.5-1.1-1.5 0-.9-.1-1.7-.2-1.7-.2 0-.5.5-.9 1m878.3 33.5c-.2.1-4.1.6-8.8.9s-9.6.8-11 1.1-4.1.8-6 1.2c-1.9.3-4.4.7-5.5.9-1.1.1-2.1.3-2.2.3-.2.1-.6.2-1 .4-.5.1-1.4.6-2 1-.7.4-1.3.5-1.3.2s-1.6.2-3.5 1-3.5 1.2-3.5.7c.1-.4-.6 0-1.5.8s-1.5 1.1-1.5.5-.5-.4-1.2.2c-.7.7-1.6 1-2.1.5-.4-.4-.7-.3-.7.3s-.8 1-1.7 1.1c-.9 0-7.2 2.8-14 6.2S944 173.4 944 174s.3 1 .8 1c.4 0 2.7-.7 5.2-1.5 2.5-.9 5.9-2.7 7.5-3.9 1.7-1.3 6.4-3.9 10.5-5.9 4.1-1.9 9.8-4 12.5-4.6 2.8-.5 7.7-1.6 11-2.5 3.3-.8 7.6-1.9 9.5-2.5s8.5-1.4 14.5-1.8c6-.5 12.1-.8 13.5-.7s4.8.2 7.5.4c2.8.2 5.5.7 6 1.1s1.9.6 3 .5c1.1-.2 2.5 0 3 .4s2.2 1 3.8 1.4q2.7.6 2.5-.5c-.2-.7-1.1-1.3-2-1.5-1-.2-2.6-.6-3.5-.8-1-.3-1.8-.5-1.8-.6s-.9-.4-2-.6-5.8-.7-10.5-1-9-.7-9.7-.9-1.4-.2-1.5 0m-860.7 1c-.1.6 1 4.2 2.3 8 1.4 3.8 2.5 6.6 2.5 6 .1-.6-1-4.2-2.3-8-1.4-3.8-2.5-6.6-2.5-6m776.3 25.6c-.5.4-1.9 1.7-3.1 2.8-1.3 1.2-2.3 1.9-2.3 1.6s-.6 0-1.2.5c-.7.6-3.3 2.7-5.8 4.8-2.4 2-7.9 7.1-12 11.2-4.2 4.1-8.9 9.3-10.5 11.4-1.7 2.2-3.9 5.1-5.1 6.5-1.1 1.4-4 5.8-6.3 9.6s-6.1 11.1-8.6 16c-2.4 4.9-4.6 10.2-4.9 11.7-.4 1.6-.2 2.8.4 2.8s1.2-1.5 1.5-3.3c.2-1.7 1.2-3.9 2.1-4.7s2.3-3.1 3.1-5 1.5-4.2 1.6-5c.2-.8 1.6-3.8 3.2-6.5 1.5-2.8 3.5-5.8 4.4-6.8s1.3-1.8.9-1.7c-.5 0 0-.9 1-1.9.9-1.1 3.3-4.1 5.2-6.7 1.9-2.7 5.3-6.6 7.5-8.9 2.3-2.2 9-8.4 15-13.8 6-5.3 11.2-9.7 11.7-9.7.4 0 1.6-1.1 2.6-2.5.9-1.4 1.4-2.7 1.1-2.9s-1 0-1.5.5m-766.5 30.1c0 4.6-.3 10.5-.5 13.3-.2 2.7-.7 5.7-1 6.5-.4 1.1-.2 1.2.6.5.7-.6 1.4-6.5 1.7-14.8.3-7.5.3-13.7-.1-13.7-.3 0-.6 3.7-.7 8.2m-6.6 45.9c-.3 1.8.5 1.9 15 1.9 8.3-.1 16.8.4 18.7.9 1.9.6 3.7.8 4 .6.3-.3.3-.7 0-.9-.3-.3-1.8-.7-3.5-1-1.6-.3-4.1-.9-5.5-1.2-1.4-.4-7.9-.7-14.5-.8s-12.4-.5-13-.8c-.5-.3-1.1.2-1.2 1.3M23.8 281.5c-.2.2-3.2.6-6.8.9-3.6.4-8.3 1.2-10.5 1.8s-4.4 1.2-5 1.2c-.7.1-1 25.3-1 73.5v73.5c7.8 1.9 13.4 2.8 17.5 3.1 4.1.4 13.1 1.5 20 2.6s14.8 2.6 17.5 3.3c2.8.8 7.5 2 10.5 2.6 3 .7 9.8 2 15 3.1 5.2 1 12.4 2.6 16 3.4 3.6.9 20 4.3 36.5 7.5 16.5 3.3 31.6 6 33.5 6 1.9.1 7.1.7 11.5 1.5 4.4.9 12.7 2.2 18.5 3s12.2 1.7 14.3 2c2 .3 5.4.7 7.5 1 2 .3 9.3 1.4 16.2 2.5s17.7 2.7 24 3.5c6.3.9 16.5 2.3 22.5 3.2 6.1.9 16.2 1.9 22.5 2.3s16.7 1.5 23 2.4 12.7 1.4 14.3 1.1 3.6.1 5 1c1.5 1 4.7 1.5 9.7 1.5 4.1 0 14.3.7 22.5 1.5 8.3.8 16.6 2 18.5 2.7 1.9.6 8.2 1.2 14 1.2s19.3-.3 30-.8c15.6-.7 19.9-1.2 21.4-2.5 1.6-1.3 1.8-1.3 1-.1-.7 1.2-.5 1.3.6.6.8-.5 6.9-.9 13.5-.9h12c-17.5-1-23.1-1.9-24.7-2.8-1.8-.9-2.8-2.2-2.8-3.7 0-1.6-.6-2.2-2.2-2.3-1.3 0-3.6-.2-5.3-.5-1.6-.2-5.5-.8-8.5-1.4-3-.5-7.3-1.2-9.5-1.6-2.2-.3-4.3-.8-4.7-1-.5-.2-.9 0-1 .5-.2.5-2.5 1.1-5.3 1.4-2.7.4-6.6 1.2-8.5 1.8s-3.9 1.6-4.4 2c-.6.5-1.8.9-2.8.9s-3.7-1.5-6-3.4c-2.4-1.9-7-4.7-10.3-6.2s-9.6-3.3-14-4.1c-6.2-1.1-9.5-1.1-14.5-.3-3.6.6-10.1 2.8-14.5 4.9-4.4 2.2-8.2 3.8-8.5 3.6-.3-.1-1.6-2.5-2.9-5.1-1.3-2.7-4.7-7.8-7.6-11.4-2.8-3.6-7.6-8.4-10.6-10.6-3-2.3-7.8-5.4-10.6-6.8-2.9-1.4-8.6-3.5-12.5-4.6-5.9-1.6-9.6-1.9-19.8-1.7-10.7.3-13.5.8-19.5 3.1-3.8 1.5-9.4 4-12.2 5.7-2.9 1.6-5.3 2.6-5.3 2.1 0-.4-.3-3.2-.6-6.2-.4-3-1.8-9.1-3.1-13.5-1.4-4.4-3.6-10-4.8-12.5s-3.8-6.8-5.6-9.5c-1.8-2.8-6.2-8-9.9-11.6-3.6-3.6-9.2-8.3-12.5-10.4s-8.9-4.9-12.5-6.3-9.6-3.2-13.5-4.2c-3.8-.9-11-1.8-16-1.9-5.1-.1-12.1.5-16 1.3-3.8.8-9.5 2.4-12.5 3.4l-5.5 1.9c-.2-7.9-.8-13.1-1.4-16.7-.7-3.6-2.1-9.4-3.3-13-1.1-3.6-3.4-9.2-5.1-12.5-1.6-3.3-4.8-8.7-7-12s-7.3-9.3-11.4-13.3c-4-3.9-10.6-9.4-14.5-12-4-2.6-9.8-6.1-12.8-7.6s-10.2-4.3-16-6.2c-5.8-2-12.1-3.7-14-4-1.9-.2-7-.6-11.2-.8-4.3-.2-7.9-.2-8-.1m1022.2 6.9c-3.6 1.3-9.4 3.5-13 4.9s-10.1 4.5-14.5 6.9-10.5 6.1-13.5 8.2c-3 2.2-7.7 6-10.5 8.5-2.7 2.5-7.7 7.6-11 11.2-3.3 3.7-8.8 11.3-12.2 17s-7.7 14.2-9.6 18.9-4.4 12.3-5.5 17c-1.2 4.7-2.3 10.5-2.7 13-.3 2.5-.6 8.6-.6 13.5s.7 13.3 1.6 18.5 2.5 11.5 3.6 14c1 2.5 1.8 4.6 1.7 4.8-.2.1-2.5-.8-5.3-1.9-2.7-1.2-9-3.2-14-4.5-7.2-1.8-11-2.2-19-1.9-5.5.2-12.9 1-16.5 1.9-3.6.8-9.6 2.8-13.5 4.3-3.8 1.6-10.4 5.1-14.5 7.8-4.7 3.2-10.1 8.1-14.7 13.5-4 4.7-8.8 11.6-10.7 15.5s-4.3 10.1-5.5 14c-1.3 4.4-2 9.1-1.9 12.7.2 3.1.1 5.9-.2 6.2s-3.9-.7-8-2.1c-5.9-2.1-9.4-2.6-16.5-2.6-6.6-.1-10.7.5-15.5 2.1-3.6 1.2-9.2 3.8-12.5 5.7s-7.9 5.7-10.2 8.3c-2.4 2.6-5 6.1-5.9 7.7l-1.6 3c-19.2.2-21.5.6-32.3 4.3l-12 4c56.6.1 75-.3 77.5-.9 2.5-.5 5.4-1.1 6.5-1.3 1.1-.3 3.8-.7 6-1.1 2.2-.3 4.7-.7 5.5-1 .8-.2 3.1-.6 5-.9s4.6-.8 6-1.1 4.5-.8 7-1.1 11-1.8 19-3.5c8-1.6 19-3.6 24.5-4.4 5.5-.9 13.8-2.5 18.5-3.6 4.7-1 10.1-2.3 12-2.9 1.9-.5 4.4-1.2 5.5-1.5 1.1-.2 2.5-.5 3-.6s2.1-.6 3.5-1.1 8.4-1.5 15.5-2.3 15.9-2.2 19.5-3.1 7.2-2 8-2.4c.8-.5 3.5-1.4 6-2.1s6.1-2 8-3 7.3-2.9 12-4.3c4.7-1.3 10.5-3 13-3.6s10.4-2.9 17.5-5.2c7.2-2.2 14.2-4.7 15.8-5.4 1.5-.8 3.5-1.5 4.5-1.7.9-.1 2.9-1 4.5-2l2.7-1.7c-.5-182.8-.7-194.5-2-194.7-.8-.2-4.4.8-8 2.1m-793.8 1.1c.1.6 1.8 3.6 3.6 6.7 1.7 3.2 3.4 5.8 3.7 5.8s-.4-1.7-1.5-3.8c-1-2-2.9-5.1-4-6.7-1.2-1.6-2-2.6-1.8-2m625.3 61.2c.4 1 1.1 3.4 1.7 5.3.5 1.9 1.2 3.2 1.6 2.7.4-.4.2-2.8-.4-5.2-.6-2.5-1.7-4.5-2.4-4.5q-1.3 0-.5 1.7m-581.4 24c-.1.4 2.6.9 5.9 1 3.3.2 6-.1 6.1-.5 0-.5-2.7-1-6-1.1s-6 .2-6 .6m-8.2.7c-.2.3-1.9.7-3.7 1-1.7.3-5.6 1.5-8.5 2.7-2.8 1.1-7.5 3.2-10.2 4.7-2.8 1.4-6.1 3.4-7.5 4.4s-2.9 1.4-3.3 1-.7.1-.7 1c0 1 .7 1.8 1.5 1.8s1.7-.7 2-1.5.8-1.3 1.2-1.1c.5.3 3.5-.8 6.8-2.2 3.4-1.5 7.4-3.7 9-5 1.7-1.2 3.7-2.3 4.5-2.2.8 0 3.4-.8 5.7-1.8 2.4-.9 4.3-2 4.3-2.5 0-.4-.2-.7-.3-.7-.2 0-.6.2-.8.4m30 1.7c.1.5 1.9 1.3 4.1 1.9s3.9.6 3.9.1c-.1-.5-1.3-1.2-2.8-1.6-1.4-.5-3.2-.9-4-1.1-.7-.1-1.3.2-1.2.7M878 387c0 .5 2 1 4.5 1s4.5-.4 4.5-.8c.1-.5-1.9-.9-4.4-1.1-2.6-.1-4.5.3-4.6.9m-32.1 7.8c-3 1.5-8.1 4.7-11.4 7-3.3 2.2-7.6 5.5-9.5 7.2-1.9 1.6-3.1 3.4-2.7 3.8s1.9-.5 3.2-2.1c1.4-1.5 3-2.7 3.7-2.7s2.5-1.4 4-3 6.6-4.8 11.3-7 8.5-4.5 8.5-5c0-.6-.4-1-.9-1-.4 0-3.2 1.3-6.2 2.8M809.1 429c-1.1 2.2-1.7 4-1.1 4 .5 0 1.8-1.8 2.8-4s1.5-4 1.2-4c-.4 0-1.7 1.8-2.9 4M376 448.2c-2.6.7-3.1 1.1-2 1.7.8.5 2.9.3 4.6-.3 1.8-.6 3.5-1.4 4-1.9.4-.4-.1-.7-1.2-.6-1 0-3.5.5-5.4 1.1m42 9.3c0 .5 1 1.9 2.2 3 1.3 1.1 3.6 3.6 5.1 5.5l2.9 3.5c-2.9-5.1-5.2-8-7-9.8s-3.2-2.8-3.2-2.2m380.1 11.9c-.1 2.5.3 4.6.9 4.6.5 0 1-1.8 1.1-3.9.1-2.2-.3-4.3-.9-4.6-.6-.4-1 1.2-1.1 3.9M525 489c-.8.5-1.3 1-1 1.1s1.8.2 3.5.4c1.6.1 3.4.4 4 .5.5.1 4.5.2 8.7.1 4.8-.1 7.6-.5 7.3-1.1s-3.5-.8-7.8-.6c-3.9.2-7.7.1-8.2-.2-.6-.4-1.9-.8-3-.9-1.1-.2-2.7.2-3.5.7m279.9 12c.6 1.1.8 2.1.3 2.1-.4.1-1 .1-1.5 0-.4 0-.7.3-.7.9 0 .5.8 1 1.8 1s2.2-.2 2.5-.5c.4-.3.1-1.6-.6-3-.6-1.4-1.6-2.5-2-2.5-.5 0-.3.9.2 2m-12.9 2.8c-.7.2-1.3.7-1.2 1 .1.4 2.3.5 5 .4 2.6-.2 5.2-.8 5.7-1.4.6-.6-.6-.8-3.5-.7-2.5.1-5.2.4-6 .7m-9.8 3.7c-3.9 1.9-7.4 4-7.7 4.5s-.4 1.2-.3 1.5c.2.3 2.3-1 4.8-2.8 2.4-1.7 4.6-3.1 4.7-3 .2.2 1.6.1 3.3-.2 1.8-.3 3-1.1 3-2 0-.8-.1-1.5-.3-1.5-.1 0-3.5 1.6-7.5 3.5m-17.8 15.2c-.9 1-2.3 3-3 4.5-.8 1.6-1.2 3.1-.9 3.5.3.5.8-.1 1.1-1.2.4-1.1 1.7-3.5 3-5.3 1.3-1.7 2.2-3.2 2-3.2-.3 0-1.2.8-2.2 1.7" opacity="1"/>
  <path fill="#f8f9f9" d="M492.9 308.9c.1.3-2.4 1.8-5.6 3.3s-8.6 4.7-11.9 7c-3.5 2.4-7.3 6.1-8.8 8.6-1.4 2.3-2.6 4.8-2.6 5.5 0 .6-.7 2.1-1.5 3.2-1.5 2-1.6 2-7.8-1.2-3.4-1.8-7.3-3.5-8.7-3.8-1.5-.4-6.1.6-12 2.5-7.4 2.4-9.9 2.9-11.5 2.1-1.1-.6-5-2-8.7-3.1-3.8-1.1-7.2-1.8-7.8-1.5-.5.3-1 .1-1-.5 0-.5-3-1.7-6.7-2.6-3.8-.9-7.5-1.8-8.3-2-.9-.3-.7.2.5 1.1 1.1.9 5.2 2.5 9 3.6 3.9 1.1 9.3 2.9 12 3.9 2.8 1 8.8 2.9 13.5 4.3s13.3 3.7 19.3 5.1c7.2 1.8 11.9 2.4 14.5 1.9 2-.3 4.7-1.2 6-2 2.1-1.2 2.2-1.2 2.2 2.2 0 1.9.3 3.5.8 3.5.4 0 1.8-1.1 3.2-2.5 1.4-1.3 4.5-2.9 7-3.6 3.6-1 5.3-1 8.5 0 2.2.6 6 2.5 8.5 4.1l4.5 2.8c3.1-3.6 6-5.6 8.5-6.7s6.5-2.1 9-2.1c2.9 0 6.3.9 9.5 2.5 3.4 1.6 5.7 3.7 7.1 6.2 1.2 2.1 2.5 5.5 2.8 7.6.5 3 1.1 3.8 3.4 4.4 1.7.4 2.8.2 3-.5.1-.7 2.1-2.4 4.5-3.9 3.3-2.1 5.5-2.7 10.2-2.7 5.1-.1 6.8.4 11.3 3.2 2.8 1.7 6.6 3.2 8.2 3.2 1.7 0 5.4.9 8.3 2 2.8 1.1 6.2 2.6 7.4 3.3 1.3.6 2.6.8 3 .4.5-.5-1-2.4-3.2-4.3-2.2-1.8-4.3-3.1-4.7-2.9-.5.3-1 .1-1.3-.5s-3-.8-6.2-.6c-5.6.5-5.9.3-9.3-3.1-1.9-2-5-4.2-6.7-5-1.8-.7-3.8-1.1-4.3-.8s-1.6.1-2.2-.3c-.7-.5-1.8-.8-2.3-.7s-2.3.7-4 1.4c-1.6.7-3.7 1.4-4.5 1.6s-2.2.6-3 .9c-1.2.5-1.8-.6-2.8-5.1-.7-3.2-1.2-7.1-1.3-8.8 0-1.6-.8-4.6-1.9-6.5-1-1.9-2.3-4.4-2.8-5.5s-3-3.8-5.4-6-5.6-4.7-7.1-5.5-2.7-1.8-2.7-2.2c0-.5-.5-.6-1-.3s-1 .1-1-.5c0-.5-.5-.8-1-.5s-1 .2-1-.2c0-.5-1.8-1.4-4-2-2.2-.7-4.4-1.1-5-.8-.5.3-1.2.1-1.5-.5-.3-.5-3.3-.9-6.7-.8-3.3.1-6 .4-5.9.7m156.6 201c-.6.5-3 1.1-5.5 1.2-2.6.2-5.9 1.2-8 2.6-1.9 1.3-4.3 2.3-5.2 2.3s-2.8 1-4.2 2.3c-1.4 1.2-2.5 2.7-2.6 3.2 0 .5-.8 1.5-1.7 2.1-1 .6-3 2.9-4.5 5s-3.7 6.3-4.8 9.2l-2 5.2 26.5-.1c4.7-4.8 8-7.1 10.5-8.2 3.1-1.4 6.3-2 10.3-1.9 3.1.1 7.6 1 10 2 2.3 1.1 5.7 3.3 7.5 5l3.2 3.2c27.5-.1 34.8-.4 34-.7s-1.8-1.2-2.2-1.9c-.5-.8-2.6-2.3-4.8-3.4s-5.7-2.2-7.7-2.4c-2.1-.3-4.4-.5-5-.5-.7-.1-1.3-.7-1.3-1.3-.1-.7-1.5-2.9-3.3-5-1.8-2-4-4.8-4.9-6.2-1-1.4-2.3-2.4-2.8-2.1s-1.6-.3-2.2-1.4c-.7-1-3.3-2.8-5.8-4.1-2.5-1.2-5.8-2.4-7.5-2.7-1.6-.2-5-.6-7.5-.8s-4.7-.7-4.9-1c-.2-.2-1.1.1-1.9.8-1.3.9-1.5.9-.9 0 .3-.7.5-1.3.4-1.3-.2 0-.7.4-1.2.9" opacity=".99"/>
  <path fill="#e2e9ec" d="M486.5 309.2c-2.8 1.1-7.3 3.5-10 5.3-2.8 1.9-6.4 4.7-8.1 6.2s-4 4.7-5.2 7.1c-1.2 2.3-2 4.7-1.7 5.2.3.6-.1 1.2-.8 1.3-.6.2-3.7-1-6.7-2.7-4.5-2.5-6.6-3-12-3s-7.2.5-10.8 2.7c-2.3 1.5-4.2 3.2-4.2 3.7 0 .6.3 1 .8 1 .4 0 4.1-1.2 8.2-2.6 4.6-1.6 8.5-2.3 10-1.9 1.4.3 5.3 2 8.7 3.8 6.2 3.2 6.3 3.2 7.8 1.2.8-1.1 1.5-2.6 1.5-3.2 0-.7 1.2-3.2 2.6-5.5 1.5-2.5 5.1-6 8.5-8.3 3.3-2.2 8.3-5.2 11.2-6.7 2.8-1.5 5.6-2.9 6.2-3.1q1-.5 0-1.5c-.7-.7-2.6-.4-6 1M350 314.3c.3.3 5 2.1 10.5 4 5.5 2 15.2 5.4 21.5 7.6 6.3 2.3 11.7 3.9 12 3.7.3-.3-.6-.8-2-1.1-2-.6-2.2-.9-1-1.6 1.3-.9 1.3-1 0-.8-.8.2-3.3-.5-5.5-1.4-2.2-1-4.4-1.7-5-1.7s-4.7-1.3-9.2-3c-4.6-1.6-8.3-2.7-8.3-2.2.1.4-.5.2-1.2-.4s-3.1-1.5-5.3-1.9-4.7-1-5.5-1.3-1.3-.3-1 .1m57.5 20.2c3.9 1.3 7.1 2.4 7.2 2.2.2-.1-1.6-1-4-1.9-2.3-.9-5.6-2-7.2-2.3s.1.6 4 2m132.7 6.5c0 1.9.4 4.9.8 6.5s.8 2.6.9 2c.2-.5.3-2.9.4-5.2.1-2.2-.1-3.9-.5-3.7-.5.2-1-.4-1.2-1.3-.2-1-.4-.2-.4 1.7m-32.2 3.1c-2.5 1.1-5.4 3.1-6.5 4.4l-2 2.3c-7-4.4-10.8-6.3-13-6.9-3.2-1-4.9-1-8.5 0-2.5.7-5.7 2.3-7.3 3.7-1.5 1.3-2.9 2.4-3.2 2.4s-.5-1.6-.5-3.5c0-3.4-.1-3.4-2.2-2.1-1.3.7-4.3 1.7-6.8 2.1l-4.5.8c6.2 2 9.1 2.6 10.5 2.6 1.4.1 3.6.7 5 1.5 1.4.7 4.8 1.7 7.5 2.1 2.8.4 7.9 1.6 11.5 2.6 3.6 1.1 8.5 1.9 11 1.9s11.7 1.1 20.5 2.5 16.9 2.5 18 2.5c1.2 0 1.6-.3.9-.8-.6-.4-1.5-2.3-1.9-4.2s-1.7-5.2-2.9-7.3c-1.4-2.5-3.7-4.5-7.1-6.2-3.2-1.6-6.6-2.5-9.5-2.5-2.5 0-6.5 1-9 2.1m39.1 5.9c-1.4.5-2.4.6-2.2.2.1-.4-.5 0-1.4.8s-1.6 1.8-1.5 2.3c0 .4.8.4 1.8.1.9-.3 2.4-.7 3.2-.9s2.7-.8 4.3-1.4c1.5-.6 2.7-1.3 2.7-1.6s-1-.5-2.2-.4c-1.3 0-3.4.4-4.7.9m5.4 5.9c-1.1.3-3.5 1.4-5.2 2.4-1.8.9-3.8 2.6-4.3 3.7s-.7 2.2-.2 2.4c.4.2 4.5.7 9.2 1.1 4.7.3 11 1 14 1.5s12 1.2 20 1.5 17.4.8 21 1.1c3.6.4 9.2.8 12.5.9 3.3.2 6.1.3 6.3.4.1 0 4.1.1 8.8.2 4.7 0 8.7-.1 8.9-.3.2-.1-2.4-.4-5.8-.6-3.4-.1-7.1-.4-8.2-.6s-6.3-.7-11.5-1.2c-5.2-.4-11.3-.8-13.5-.9s-4.3-.3-4.7-.4c-.5 0-1.4-.2-2-.4-.7-.1-1.6.2-2 .8-.4.7-1.4.6-3-.2-1.3-.7-4.7-2.2-7.5-3.3-2.9-1.1-6.7-2-8.3-2s-5.4-1.4-8.2-3.2c-3.6-2.1-6.8-3.2-9.8-3.3-2.5-.2-5.4 0-6.5.4m89.8 153.7c-1.3.2-2.3.9-2.3 1.4s.3.8.8.6c.4-.3 2.9-.6 5.5-.8 2.7-.2 5-.5 5.2-.8s-1.3-.6-3.3-.6c-2.1-.1-4.7 0-5.9.2m-10.3 4.1c-3 1.5-7.9 5.3-10.8 8.3-3.1 3.1-6.7 8.2-8.3 11.8-1.6 3.4-2.8 7-2.6 8 .3 1.4.6 1.2 1.4-.8.6-1.4 1.9-4.5 2.9-6.9 1.1-2.4 3.6-6.2 5.7-8.5 2.1-2.2 3.7-4.2 3.7-4.3 0-.2.8-1.2 1.8-2.3.9-1.1 3.3-2.5 5.2-3 1.9-.6 4.6-1.9 6-3s2-2 1.5-2-3.5 1.2-6.5 2.7m18.4 20.2c-2.7.9-6.4 2.7-8.1 4.1s-3.4 3.1-3.7 3.8c-.5.9 3.8 1.2 19.4 1.2 11 0 20-.3 20-.7.1-.5-1.6-2.1-3.7-3.7-2.1-1.7-5.2-3.5-6.8-4.2-1.6-.6-5.1-1.4-7.6-1.6-2.7-.3-6.6.2-9.5 1.1" opacity="1"/>
</svg>
