<svg xmlns="http://www.w3.org/2000/svg" version="1.2" viewBox="0 0 800 800">
  <path fill="#122dda" d="M0 400v400h800V0H0z"/>
  <path fill="#ecfd43" d="M401.9 153.3c-5.3 1.8-12.3 5-15.5 7.1-3.2 2.2-8.8 6.9-12.4 10.6-3.6 3.6-7.9 9.3-9.7 12.5-1.7 3.3-4.6 10.3-6.3 15.5-1.8 5.2-4 12.4-5 16s-3.6 13.2-5.9 21.5c-2.3 8.2-5.3 17.5-6.7 20.5l-2.4 5.5c-63.5 1.5-68.2 1.9-73.5 3.6-3.3 1.2-8.7 3.5-12 5.2-3.5 1.9-9.4 6.6-14.1 11.2-6.4 6.3-9.1 9.8-12.4 16.5-2.5 5-6 14.8-8.5 24-2.4 8.5-6.2 21.8-8.5 29.5s-5.3 18.1-6.6 23c-1.4 4.9-4.3 15.1-6.4 22.5-2.2 7.4-5 17.6-6.4 22.5s-4.5 16-6.9 24.5c-2.5 8.5-6.8 23.4-9.7 33s-6.1 21.8-7.2 27c-1.8 8.9-1.8 9.9-.4 15.5.9 3.4 3.4 8.6 5.7 12 2.3 3.3 4.9 6.6 5.8 7.3s3.6 2.3 6.1 3.5c4.2 2 6.3 2.2 33.5 2.7 20.5.3 29.7.9 31.3 1.7 1.2.7 3.1 2.7 4.2 4.3s2 4.2 2 5.7c0 1.6-1.1 6.6-2.4 11.3s-4 13.9-6 20.5-4.8 16.3-6.1 21.5c-1.5 5.7-2.5 12.2-2.5 16.2 0 3.9.7 8.4 1.6 10.5.8 2.1 3 6 4.8 8.8 1.9 2.7 5.1 6.2 7.2 7.7 2.2 1.5 5.1 3.2 6.7 3.7 1.8.8 35.5 1.1 105 1.1 100.2 0 102.3-.1 108.7-2.1 3.6-1.1 8.1-3 10-4.1 1.9-1.2 6.6-4.6 10.5-7.7 3.8-3.1 8-6.7 9.3-8.1s3.4-4.1 4.7-6 4-7.3 5.9-12c1.8-4.7 4.4-12.3 5.5-17 1.2-4.7 3.7-13.2 5.5-19s3.9-13 4.6-16c.6-3 2.3-8.9 3.6-13s3.3-10.9 4.4-15c1.2-4.5 2-10.9 2-16 0-7.4-.3-9.3-2.9-14.5-1.6-3.3-4.9-7.8-7.3-9.9-2.4-2.2-6.3-4.9-8.8-6-4.4-2.1-6.4-2.1-86.3-2.6l-81.9-.5c-3.7-4.6-5.3-7.6-6-9.5-.9-3.1-.5-5.3 3.6-19.5 2.6-8.8 5.2-17.4 5.7-19s3.6-12.7 6.9-24.5c3.4-11.8 6.9-24.4 8-28 1-3.6 3.3-11.4 5-17.5s4-14.1 5.1-18 2.7-9.5 3.5-12.5 2.5-7.9 3.7-10.9 3.3-6.3 4.7-7.3c2.4-1.8 5.9-1.9 82-1.9 47.1.1 82.4-.3 86.5-.9 3.9-.6 8.4-1.5 10-2.2 1.6-.6 4.6-1.8 6.5-2.6 1.9-.9 5.5-2.9 8-4.5 2.5-1.7 7-5.3 10-8.1s6.9-6.9 8.6-9.1 4.5-6.9 6.2-10.5 3.2-7.2 3.2-8 1.1-4.9 2.4-9c1.4-4.1 3.2-10 4-13s2.1-8 2.7-11c.7-3 1.6-6 1.9-6.5.4-.6 1.1-2.8 1.7-5s1.9-6.5 2.7-9.5c.9-3 1.6-6.1 1.6-6.8 0-.6 1.4-5.4 3-10.5 1.7-5 3.4-11.5 3.8-14.2.4-2.8.4-7.5-.1-10.5-.4-3-2-7.7-3.5-10.4s-4.3-6.6-6.2-8.6-5.1-4.5-7-5.5-5.5-2.4-8-3.1c-3.7-1.1-22.8-1.4-101.5-1.3h-97z"/>
</svg>
