<svg xmlns="http://www.w3.org/2000/svg" version="1.2" viewBox="0 0 103 144">
  <path fill="#264de4" fill-rule="evenodd" d="m102.6 28.4-9.3 104.4-41.9 11.6-41.8-11.6L.3 28.4z"/>
  <path fill="#2965f1" fill-rule="evenodd" d="m85.3 126.1 7.9-89.2H51.4v98.6z"/>
  <path fill="#ebebeb" fill-rule="evenodd" d="m21.6 75.6 1.2 12.8h28.6V75.6zm29.8-25.9H19.3l1.2 12.8h30.9zm0 72.5v-13.3l-14.3-3.8-.9-10.2H23.3l1.8 20.1z"/>
  <path fill="#fff" d="M24.4 0h15.5v6.5h-9.1V13h9.1v6.5H24.4zM43 0h15.5v5.6h-9v1.2h9v12.9H43v-5.9h9v-1.1h-9zm18.6 0h15.5v5.6h-9v1.2h9v12.9H61.6v-5.9h9v-1.1h-9z"/>
  <path fill="#fff" fill-rule="evenodd" d="m67.2 88.4-1.5 16.7-14.3 3.8v13.3l26.2-7.2.2-2.2 3-33.7.4-3.5 2.3-25.9H51.4v12.8h18l-1.1 13.1H51.4v12.8z"/>
</svg>
