<svg xmlns="http://www.w3.org/2000/svg" fill="none" viewBox="0 0 32 32">
  <path fill="#1ABCFE" fill-rule="evenodd" d="M16 16a4 4 0 1 1 8 0 4 4 0 0 1-8 0" clip-rule="evenodd"/>
  <path fill="#0ACF83" fill-rule="evenodd" d="M8 24a4 4 0 0 1 4-4h4v4a4 4 0 0 1-8 0" clip-rule="evenodd"/>
  <path fill="#FF7262" fill-rule="evenodd" d="M16 4v8h4a4 4 0 0 0 0-8z" clip-rule="evenodd"/>
  <path fill="#F24E1E" fill-rule="evenodd" d="M8 8a4 4 0 0 0 4 4h4V4h-4a4 4 0 0 0-4 4" clip-rule="evenodd"/>
  <path fill="#A259FF" fill-rule="evenodd" d="M8 16a4 4 0 0 0 4 4h4v-8h-4a4 4 0 0 0-4 4" clip-rule="evenodd"/>
</svg>
