<svg xmlns="http://www.w3.org/2000/svg" xmlns:xlink="http://www.w3.org/1999/xlink" fill="none" viewBox="0 0 167 146">
  <path fill="url(#a)" d="M166.333 2.32a4.65 4.65 0 0 0-4.01-2.32H4.633c-1.66 0-3.19.88-4.01 2.32-.83 1.43-.83 3.2 0 4.64l3.89 6.74a4.65 4.65 0 0 0 4.02 2.32h134.07l-59.13 102.42-42.82-74.16a4.65 4.65 0 0 0-4.01-2.32c-1.65 0-3.19.88-4.01 2.32l-3.89 6.74c-.83 1.43-.83 3.2 0 4.64l50.72 87.86a4.65 4.65 0 0 0 4.01 2.32c1.65 0 3.19-.88 4.01-2.32l78.85-136.57c.83-1.43.83-3.2 0-4.64z"/>
  <path fill="url(#b)" d="M104.212 34.4a2.6 2.6 0 0 0-.93-.93c-.38-.22-.81-.34-1.26-.34h-1.9.03-.06.03-35.19c-.9 0-1.74.48-2.19 1.26a2.54 2.54 0 0 0 0 2.53l18.55 32.13c.45.78 1.29 1.26 2.19 1.26.45 0 .89-.12 1.26-.34.38-.22.7-.53.93-.93l18.55-32.13c.45-.78.45-1.75 0-2.53z"/>
  <defs>
    <linearGradient id="a" x1="167.615" x2=".48" y1=".81" y2="146.395" gradientUnits="userSpaceOnUse">
      <stop stop-color="#D92650"/>
      <stop offset="1" stop-color="#8800B5"/>
    </linearGradient>
    <linearGradient id="b" x1="104.726" x2="62.176" y1="33.336" y2="70.046" gradientUnits="userSpaceOnUse">
      <stop stop-color="#D92650"/>
      <stop offset="1" stop-color="#8800B5"/>
    </linearGradient>
  </defs>
</svg>
