<svg xmlns="http://www.w3.org/2000/svg" fill="none" viewBox="0 0 32 32">
  <path fill="#E6001F" d="M2 12.133c0-3.547 0-5.32.69-6.675A6.33 6.33 0 0 1 5.458 2.69C6.813 2 8.586 2 12.133 2h7.734c3.547 0 5.32 0 6.675.69a6.33 6.33 0 0 1 2.768 2.768c.69 1.355.69 3.128.69 6.675v7.734c0 3.547 0 5.32-.69 6.675a6.33 6.33 0 0 1-2.768 2.768c-1.355.69-3.128.69-6.675.69h-7.734c-3.547 0-5.32 0-6.675-.69a6.33 6.33 0 0 1-2.768-2.768C2 25.187 2 23.414 2 19.867z"/>
  <path fill="#fff" d="M7 23s6.22-14.996 6.206-15h4.724L25 23h-5.34c.004.008-4.004-9.204-4.054-9.296-.009.08-2.658 6.245-2.69 6.253h2.855c-.013.015 1.241 3.014 1.241 3.043z"/>
</svg>
