<svg xmlns="http://www.w3.org/2000/svg" version="1.2" viewBox="0 0 800 800">
  <path fill="#fff" d="M742.7 327.4q6.75-20.25 9-41.4c1.6-14.1 1.6-28.3.1-42.3-1.5-14.1-4.4-28-8.9-41.4-4.4-13.5-10.2-26.4-17.4-38.6-10.5-18.4-23.9-35-39.7-49.2-15.7-14.3-33.6-25.9-53-34.5-19.4-8.7-40-14.2-61.1-16.4s-42.4-1-63.2 3.4c-23.7-26.4-53.9-46-87.6-57-33.8-11-69.8-13-104.5-5.6-34.7 7.3-66.9 23.6-93.3 47.3s-46.1 54-57.1 87.7c-13.8 2.8-27.4 7.1-40.3 12.9-13 5.7-25.3 12.7-36.7 21-11.5 8.4-22 17.9-31.5 28.4-9.4 10.5-17.7 22.1-24.7 34.4-10.7 18.3-18.4 38.3-22.9 59-4.4 20.8-5.6 42.1-3.4 63.3 2.2 21.1 7.8 41.8 16.4 61.2 8.7 19.4 20.4 37.3 34.6 53-4.5 13.4-7.5 27.3-9 41.4-1.6 14-1.6 28.2-.1 42.3 1.4 14.1 4.4 28 8.8 41.4s10.2 26.4 17.4 38.6c10.5 18.4 24 35 39.7 49.2 15.8 14.3 33.7 25.9 53.1 34.5 19.4 8.7 40 14.2 61.1 16.4s42.5 1 63.2-3.4c9.4 10.6 19.9 20.1 31.3 28.5 11.4 8.3 23.7 15.4 36.6 21.2s26.4 10.1 40.3 13c13.8 3 27.9 4.4 42.1 4.3 21.3 0 42.4-3.3 62.6-9.9s39.3-16.3 56.5-28.8c17.1-12.5 32.2-27.7 44.7-44.9 12.4-17.3 22.1-36.3 28.6-56.6 13.9-2.8 27.4-7.2 40.3-12.9 13-5.7 25.3-12.7 36.7-21.1 11.5-8.3 22-17.8 31.5-28.3 9.4-10.6 17.7-22.1 24.7-34.4 10.6-18.3 18.2-38.2 22.6-58.9s5.5-41.9 3.2-63c-2.2-21-7.7-41.6-16.3-60.9s-20.2-37.2-34.4-52.9M442 747.6c-8.7.1-17.3-.7-25.9-2.2-8.5-1.5-16.9-3.7-25.1-6.7-8.2-2.9-16-6.6-23.6-10.9-7.5-4.3-14.6-9.3-21.3-14.9l4.7-2.6 159.3-92q3-1.7 5.4-4.2 2.5-2.4 4.2-5.4t2.6-6.3.9-6.8V371.1l67.3 38.9q.3.1.5.3l.4.4q.2.2.3.5t.1.5v186.1c0 19.7-3.9 39.2-11.5 57.3-7.5 18.2-18.6 34.7-32.5 48.6s-30.4 24.9-48.5 32.5c-18.2 7.5-37.6 11.4-57.3 11.4M120 610.1c-4.4-7.5-8.1-15.4-11-23.5-3-8.2-5.3-16.6-6.8-25.1-1.5-8.6-2.3-17.2-2.3-25.9s.8-17.4 2.3-25.9l4.7 2.8 159.4 92q3 1.7 6.3 2.6t6.7.9q3.5 0 6.8-.9t6.2-2.6l194.8-112.3v77.7q0 .3-.1.6l-.2.6q-.2.2-.4.5l-.4.4-161.3 93c-17.1 9.8-35.9 16.2-55.4 18.8-19.5 2.5-39.3 1.2-58.3-3.9s-36.9-13.9-52.5-25.8c-15.6-12-28.7-26.9-38.5-44M78 263.2c4.4-7.6 9.4-14.7 15.1-21.4 5.6-6.7 11.8-12.9 18.5-18.5s13.9-10.6 21.5-14.9c7.6-4.4 15.6-8 23.8-11v189.3q-.1 3.4.8 6.7t2.6 6.3 4.1 5.4 5.4 4.1L363.6 521l-67.3 39-.6.2q-.3.1-.6.1t-.6-.1l-.6-.2-161-92.9c-17-9.9-31.9-23-43.9-38.6-11.9-15.6-20.7-33.4-25.8-52.4s-6.4-38.8-3.9-58.3c2.6-19.5 8.9-38.3 18.7-55.4zm553.2 128.5L436.8 278.8 504 240q.2-.1.5-.2t.7-.1q.3 0 .6.1t.5.2l161 93.1c24.7 14.2 44.7 35.1 57.9 60.3 13.2 25.1 18.9 53.6 16.6 81.9-2.4 28.3-12.8 55.4-29.9 78-17.2 22.7-40.5 40-67.1 49.9V414q-.1-3.5-1.1-6.7-1-3.3-2.7-6.3-1.8-2.9-4.3-5.2-2.5-2.4-5.5-4.1M698.3 291l-4.8-2.9-159.1-92.7q-3-1.8-6.3-2.7t-6.8-.9q-3.4 0-6.8.9-3.3.9-6.3 2.7L313.6 307.7v-77.8q0-.3.1-.6 0-.3.1-.5.1-.3.3-.5.2-.3.5-.4l161-92.9c24.7-14.2 52.9-21.1 81.3-19.9 28.5 1.2 56 10.5 79.4 26.8 23.3 16.3 41.6 38.9 52.5 65.2 11 26.3 14.3 55.2 9.5 83.2zM276.9 428.8l-67.3-38.7q-.3-.2-.5-.4t-.4-.5q-.2-.2-.3-.5-.1-.2-.1-.5V202.6c0-28.5 8.2-56.4 23.5-80.4s37.1-43.2 62.9-55.3c25.7-12 54.4-16.5 82.7-12.9 28.2 3.6 54.8 15.2 76.7 33.4l-4.7 2.7L290.1 182q-2.9 1.8-5.4 4.2-2.4 2.5-4.1 5.5T278 198t-1 6.8zm36.6-78.9 86.8-50 86.9 50v100l-86.6 50-86.9-50z"/>
</svg>
