<svg xmlns="http://www.w3.org/2000/svg" xml:space="preserve" fill-rule="evenodd" stroke-linecap="round" stroke-linejoin="round" stroke-miterlimit="1.5" clip-rule="evenodd" version="1.1" viewBox="0 0 4678 3308">
  <g fill="none">
    <path stroke="#faffff" stroke-opacity=".75" stroke-width="4.44" d="M2464.771 432.606c22.659-325.014 243.53-262.118 238.349-246.106-12.27 37.917-169.723 19.925-88.8 112.666 26.776 30.686-37.095 66.886-55.736 113.883-24.763 62.429-8.939 180.743-71.268 83.717-16.341-25.438-19.47-1.569-40.761 19.699-3.735-40.569.169-15.86 18.216-83.858Z"/>
    <path stroke="#faffff" stroke-opacity=".75" stroke-width="4.44" d="M2552.15 822.4c-13.705-32.167-70.085-180.029-76.07-195.726-2.807-7.362-32.337-84.807-1.988-98.471 21.591-9.721 65.555 100.409 84.446-5.472 2.264-12.691 16.637-93.252 60.795-149.237 17.674-22.408 19.436 41.913 5.417 84.548-20.099 61.127-21.089 63.856 2.815 114.594 40.781 86.562-47.6 457.583-75.414 249.764Z"/>
    <path stroke="#faffff" stroke-opacity=".75" stroke-width="5.56" d="M2086.332 3271.876c-118.003 12.249-119.549-3.659-234.403 25.616-94.369 24.053-93.487-71.48-93.395-81.39.46-49.78-10.831-48.75-6.581-98.275 5.163-60.155 36.995-67.123-5.268-117.137-71.492-84.604 29.042-70.109 117.387-183.629 14.901-19.147 91.218-72.43 24.847-78.912-57.107-5.577-171.265 28.753-140.818-75.708 20.935-71.826-74.419-92.887-16.919-197.387 29.463-53.546 60.372-141.399 224.238-115.591 97.637 15.378 3.994 69.955-1.045 72.892-76.952 44.849-95.112 135.158.501 101.988 11.099-3.85 160.699-85.587 128.295 74.602-17.491 86.466 135.886 56.719 92.436 120.522-19.358 28.426-41.412 34.571-12.514 52.398 179.117 110.495-114.828 103.925-91.936 190.038 23.864 89.767 215.208-9.964 245.233 9.595 40.179 26.174-49.402 87.193-3.956 95.494 11.988 2.19 231.971-28.456 169.535 46.611-48.419 58.215-176.886 10.156-244.18 117.18-34.106 54.243-96.297 36.975-151.458 41.092Z"/>
    <path stroke="#faffff" stroke-opacity=".75" stroke-width="2.78" d="M1775.495 2177.142c-27.235 168.922 231.66 34.484 246.774 189.588 4.04 41.46-67.94 102.836 14.401 114.509 90.5 12.83 115.326 13.277 110.288 105.538-5.157 94.442 186.571 123.516 173.248 49.25-19.059-106.237-36.124-101.402-62.777-280.513-28.605-192.232-85.952-162.396-117.705-211.486-22.88-35.373 85.103-87.773-17.122-113.041-174.824-43.213 21.141-51.649 25.737-51.43 78.574 3.745-20.519-96.026 44.186-167.688 48.295-53.487 137.769 81.81 175.818-13.365 25.547-63.905 18.635-67.358 61.751-120.36 29.401-36.142-19.599-64.692-87.218-20.307-79.247 52.018-97.338 14.05-193.566 72.611-70.927 43.163-88.757-41.382-130.768 18.852-26.944 38.632-79.156 129.291-130.539 184.365-66.065 70.811 48.755 95.367 4.213 152.768-11.88 15.31-34.902 26.275-32.367 50.796 3.988 38.565-71.311 14.374-84.355 39.915Z"/>
    <path stroke="#faffff" stroke-opacity=".75" stroke-width="4.44" d="M2576.511 2696.673c-10.052.895-149.489-8.641-255.441 53.699-48.518 28.547-33.282 48.512-67.562 101.634-12.126 18.791-19.511 24.468-.056 35.838 5.151 3.01 10.776 5.13 16.072 7.877 14.499 7.52 25.054 27.555 48.399 31.472 33.609 5.639 35.1 1.476 62.867 20.784 51.841 36.05 83.69-15.077 153.712 41.076 118.779 95.253 151.204-57.209 165.2-79.743 56.565-91.076 77.198 62.171 77.72 63.493 8.056 20.405 56.326 69.386 118.584 64.298 75.573-6.177-36.436 141.389 80.621 159.078 111.219 16.807 114.401-18.496 222.912 11.566 64.666 17.915 87.904-5.742 76.881-10.185-3.237-1.305-38.819-15.648-36.33-24.144 10.85-37.037 101.447-21.767 110.293-20.275 59.442 10.019 81.137-23.932 87.167 16.368.188 1.258-4.727 78.543 53.391 48.349 90.159-46.84-30.462-120.753-41.803-146.568-17.15-39.036 2.906-60.469-52.424-93.836-62.017-37.399-23.03-52.334-18.576-52.547 15.466-.74 133.557 116.861 183.39 103.306 46.601-12.676-53.769-53.927-78.989-86.837-3.909-5.101-74.636-130.538 6.099-99.773 3.706 1.412 84.526 49.035 88.833 10.526 1.051-9.4-76.944-128.651-78.62-130.222-43.723-40.994-70.309 9.774-205.404-42.798-117.862-45.866-154.623 12.537-250.555-3.986-59.28-10.21-59.225-11.552-118.187-1.593-53.857 9.096-49.751-83.008-75.053-51.966-14.537 17.835 24.187 83.999-16.06 78.922-31.049-3.917-21.521-113.843-102.987-89.727-59.151 17.51-34.882 85.915-154.092 85.915Z"/>
    <path stroke="#faffff" stroke-opacity=".75" stroke-width="3.33" d="M3727.345 3310.805c-40.86-130.364-165.94-55.698-175.774-167.879-6.019-68.66 95.669-91.647 30.343-160.212-71.051-74.574-33.213-86.477-26.009-87.815 25.008-4.644 97.846 78.043 70.803 4.681-6.795-18.432-92.189-169.411-8.472-161.366 55.343 5.319 44.516 110.24 159.33 70.464 131.737-45.639 130.74-65.416 268.423-46.134 122.049 17.093 149.566-40.276 106.429-55.784-56.234-20.217-82.797-31.085-43.259-76.214 49.404-56.389 68.753-81.296-18.097-141.131-39.168-26.985-26.926-71.393-123.823-50.764-12.879 2.742-167.134 60.84-99.213-72.974 179.151-352.949 346.249-240.511 350.293-147.839 4.302 98.592-.295 113.788 96.465 158.889 74.448 34.702 48.671 75.323 128.317 96.431 98.776 26.178 17.125 185.923 45.184 332.229 8.533 44.491 45.517 152.64-36.067 285.019-47.516 77.099-78.036 48.438-137.256 134.44-59.475 86.373-103.245 5.787-186.731 69.158-107.055 81.262-341.562 32.243-400.887 16.8Z"/>
    <path stroke="#faffff" stroke-opacity=".75" stroke-width="4.44" d="M2942.746 2416.993c-12.371 111.783-7.361 111.814-2.049 163.191 8.191 79.228-63.752-5.556-85.903-8.575-32.905-4.486-20.514 53.906-45.152 39.371-79.067-46.648-90.855-411.19-152.341-350.616-47.414 46.711 42.15 155.023 44.498 192.865.455 7.328 5.458 87.929-37.68 83.685-31.184-3.068 17.953-95.928-76.853-77.016-5.044 1.006-64.119 12.791-64.248-2.531-.068-8.038 77.075-53.903-1.486-65.354-80.826-11.781-93.666 113.297-148.122 41.147-139.365-184.645-99.13-248.55-155.633-278.402-43.755-23.117-46.796-32.498-25.692-77.152 20.514-43.406-51.142-57.901-14.274-77.696 6.461-3.469 14.597-30.129 19.281-35.772 33.208-40.004-15.333-115.846 75.123-98.319 77.374 14.993 149.974 122.908 160.726-24.131 3.217-43.995-25.884-77.281.139-125.228 24.588-45.303 34.999-33.882 38.623-103.343 2.786-53.395 58.955-59.674 92.205-36.497 29.863 20.816 30.743 63.281 64.943 45.994 96.552-48.803 89.383-194.765 110.75-190.073 68.592 15.063 76.6-7.209 101.817 19.294 32.639 34.304 24.952 9.435 53.952 70.28 27.176 57.018-76.391 133.552-91.852 182.184-21.887 68.844 12.442 122.048 39.22 183.365 20.353 46.606 63.127 311.281 73.774 357.379 12.009 51.991 32.287 126.891 26.232 171.948Zm465.764-775.289c11.767-162.984 89.148-256.945 164.263-167.846 46.257 54.868 65.15 124.126 131.223 113.562 70.318-11.243 80.198-11.468 114.8 50.302 66.43 118.591 185.552-5.205 185.644 94.382.054 58.33 9.235 71.989 74.185 62.717 57.291-8.179 69.655 21.007 88.715-.201 2.287-2.544 42.428-74.029 94.478-62.229 37.936 8.601 56.685 69.025 35.724 113.201-1.71 3.604-40.017 52.296-15.43 73.113 3.503 2.966 66.059 36.054 33.436 63.426-46.694 39.178-60.361 33.231-65.11 93.674-5.974 76.027-59.653-7.321-210.694 22.945-165.699 33.203-106.663 141.252-190.621 182.763-71.821 35.509-92.278 25.371-105.505 108.224-27.379 171.495-222.449 257.029-269.037 239.65-28.922-10.789-50.986-70.725-103.112-48.914-85.637 35.833-86.447 33.95-179.116 32.201-57.942-1.093-206.636 45.525-199.811-41.572 8.026-102.429 151.214 16.342 255.301-214.14 39.736-87.989-31.882-104.922 34.68-230.93 152.246-288.213 122.459-435.427 125.99-484.326Z"/>
    <path stroke="#faffff" stroke-opacity=".75" stroke-width="5.56" d="M3057.175 2002.71c-115.369 141.665-81.695 188.578-53.74 365.867 30.7 194.696 202.573 55.796 216.045-49.329 14.781-115.343-23.837-126.378 50.27-246.03 84.04-135.689 10.779-164.103-33.519-136.484-4.95 3.086-51.148 39.799-69.869 45.021-49.674 13.857-52.254 11.874-109.187 20.955"/>
    <path stroke="#faffff" stroke-opacity=".75" stroke-width="5" d="M2902.351 1593.198c57.853 72.946 121.582 41.326 112.696 131.432-6.809 69.046 43.911 56.657 45.931 125.78.439 15.019-10.265 77.438 19.163 97.933 9.973 6.946 23.501 16.367 116.336-97.702 57.852-71.085-19.792-99.576 37.949-169.713 105.317-127.927 110.753-122.584 157.961-170.408 102.155-103.488 96.052-199.223 79.538-190.338-60.249 32.417-32.238 153.312-246.704 218.372-129.912 39.41-245.706-15.846-311.475 28.58-10.022 6.77-17.987 15.923-11.394 26.064Z"/>
    <path stroke="#faffff" stroke-opacity=".75" stroke-width="4.44" d="M2652.533 301.011c-80.343-78.96 56.574-54.761 78.391-105.999 10.371-24.357 8.376-90.436 122.359-99.523 86.873-6.926 104.52 77.129 55.386 140.964-81.005 105.241-32.323 135.447-124.982 229.857-54.119 55.141-143.983 40.186-121.343-22.795 8.863-24.656 45.057-37.942 43.303-67.774-1.306-22.226-25.56-43.422-53.114-74.729Z"/>
    <path stroke="#faffff" stroke-opacity=".75" stroke-width="4.44" d="M2980.939 120.403c10.146 95.187-90.465 144.855-107.26 247.459-1.528 9.333-12.221 83.701 117.009 16.866 180.3-93.248 203.81-4.578 367.297 142.957 64.193 57.929 63.306 210.723 139.844 188.697 104.56-30.09-90.786-243.468-109.43-317.884-32.232-128.646 47.903-205.428-161.326-262.608-133.009-36.35-255.338-101.833-246.134-15.487"/>
    <path stroke="#faffff" stroke-opacity=".75" stroke-width="5" d="M2658.638 695.526c.979-118.907 36.25-106.187 145.492-202.929 45.006-39.856 315.325-71.206 388.183-24.355 16.419 10.558 162.371 124.551 192.913 209.467 47.835 132.998-28.551 214.445 38.558 430.633 47.733 153.771 33.843 223.887-168.717 352.545-59.455 37.763-297.059 88.943-417.696-81.753-84.096-118.992-40.693-41.051-148.098-140.646-162.365-150.559-70.845-372.489-32.771-519.952.77-2.983 1.412-20.089 2.136-23.01"/>
    <path stroke="#fff" stroke-opacity=".61" stroke-width="5.56" d="M2332.815 3304.193c-1.264-18.725 53.857-12.875 104.37-68.799 32.192-35.64 67.528 37.274 159.249-54.347 34.94-34.902 55.7-117.474 176.223-64.742 68.569 30-29.92 62.768 1.997 113.987 31.05 49.827 176.064 7.03 100.498 108.253-39.376 52.746-99.796 76.894-385.568 23.274-128.464-24.104-154.345-21.698-156.77-57.626Z"/>
  </g>
  <g fill="none">
    <path stroke="#fff" stroke-opacity=".61" stroke-width="2.78" d="M2948.445 3110.387c-25.682 82.525 132.681 79.795 102.784 39.796-3.73-4.99-38.673-35.791-24.32-62.869 19.601-36.978 54.293-4.067 120.88-53.366 22.861-16.926 24.409-13.389 104.609-26.231 74.725-11.966 96.035 74.331 144.78 46.891 38.417-21.626-28.492-59.814-33.425-62.629-79.003-45.09-67.618-155.826 23.476-118.996 30.319 12.258 25.017-19.391 13.037-36.61-22.574-32.446-17.431-34.754-15.83-74.163 1.581-38.914-65.578-48.111-173.402-57.886-27.508-2.494-226.961-1.586-231.277-.648-101.648 22.083 4.122 102.094-26.689 187.931-9.338 26.016-38.702 57.846-21.717 107.838 16.59 48.827 20.212 54.8 17.094 110.942"/>
    <path stroke="#fff" stroke-opacity=".61" stroke-width="5.56" d="M3674.283 2966.881c8.174-75.629-48.568-106.872-19.993-119.11 45.031-19.286 76.432 125.451 146.689 42.629 41.481-48.899 88.418 10.407 159.544 28.956 78.806 20.551 18.63 85.88 52.236 118.959 5.914 5.821 47.944 31.58 34.056 62.332-6.52 14.437-69.59 55.232-183.428-27.289-33.101-23.995-77.403-70.142-94.285-13.592-5.768 19.321-4.033 139.999-81.198 92.356-62.774-38.758-57.237-102.525-56.366-112.558 3.107-35.784-19.825-32.951-13.278-68.274 5.386-29.06 49.686-5.726 56.024-4.409Z"/>
    <path stroke="#fff" stroke-opacity=".61" stroke-width="4.44" d="M4212.064 3118.183c-19.221-5.881-47.043 8.995-70.573 1.659-37.8-11.784-66.313-47.796-95.231-93.977-27.696-44.229 17.726-48.513 60.585-153.968 11.483-28.252-11.976-87.433 46.52-74.334 45.279 10.139 41.786 32.843 97.459 22.332 45.222-8.538 45.182 11.456 90.909 3.744 76.009-12.818 95.973 78.806 98.232 89.177 7.793 35.769 43.062 108.393-84.665 217.551-47.433 40.537-53.637 15.227-143.237-12.184Z"/>
    <path stroke="#fff" stroke-opacity=".61" stroke-width="5.56" d="M3744.855 3258.924c-18.776-37.353 17.765-179.089 175.302-111.651 63.792 27.308 84.962 13.002 110.814 17.939 113.972 21.765 99.017 119.294-19.588 132.274-86.311 9.446-255.495-4.828-266.527-38.563Z"/>
    <path stroke="#fff" stroke-opacity=".61" stroke-width="2.78" d="M2234.446 2086.037c11.262 32.374 44.718-3.954 105.823 9.068 55.588 11.846 55.245 16.542 111.763 8.338 110.217-15.998 111.848 72.498 151.494 40.914 7.806-6.218 62.547-81.024 94.81 11.199.516 1.475 25.682 149.349 114.615 114.161 15.607-6.175 66.486-26.306 44.261-205.082-16.708-134.404-155.149-152.881-60.776-409.565 40.453-110.029-64.093-92.661-118.87-39.521-44.562 43.23-46.733 42.866-108.91 48.815-38.986 3.73-73.7 28.037-69.398 118.456 1.235 25.961 39.941 89.453-25.858 214.855-64.009 121.989-214.078-136.037-244.716 10.672-8.116 38.86-3.438 38.815 5.762 77.688Z"/>
    <path stroke="#faffff" stroke-opacity=".61" stroke-width="3.33" d="M2122.808 3322.34c56.644-74.486 89.771-1.161 182.244-51.105 19.566-10.567 73.235-36.472 50.876-48.802-21.66-11.944-40.672-14.443-20.527-28.962 33.239-23.957 122.472-5.576 186.766-91.248 26.794-35.703 37.026 18.783 56.404 4.986 4.239-3.018 1.381-6.19 48.595-43.229 24.455-19.185-26.901-3.539-29.141-2.857-1.973.601-42.542 12.96-24.954-6.496 30.343-33.567 86.446-3.357 109.477-68.026 1.975-5.544 30.105-84.532 49.529-54.398 20.477 31.768-73.06 104.481 8.43 143.616 40.013 19.216 80.828-14.005 99.409 43.106 11.783 36.215 7.995 45.036 45.532 51.111 45.4 7.348 20.964 58.451 73.421 56.857 93.215-2.832 95.768-30.995 251.802 15.49 116.745 34.78 120.339-10.831 209.121 5.059 69.181 12.382 68.987 17.764 138.216 6.87 150.438-23.672 156.067 140.665-1.839 160.543-271.516 34.18-403.197-41.306-1057.195-6.026-217.133 11.713-396.929 32.659-376.166-86.491Z"/>
    <path stroke="#faffff" stroke-opacity=".61" stroke-width="5.56" d="M2744.643 2985.193c-24.928 40.083-15.682 48.933 26.389 72.273 44.306 24.58 96.079 10.333 63.668-15.177-26.364-20.75-65.225-3.903-75.854-28.546-4.367-10.125 6.219-61.388-14.203-28.55"/>
    <path stroke="#faffff" stroke-opacity=".61" stroke-width="3.89" d="M3755.313 2649.221c-6.746 9.77-72.152 130.944 128.088 74.943 95.334-26.662 123.843 35.648 190.016 2.963 47.538-23.481-37.637-51.594-.532-89.776 3.941-4.055 75.423-45.995 51.246-95.562-10.726-21.991-40.204-25.747-56.614-52.326-.989-1.601-23.547-60.381-57.39-28.098-26.748 25.515-29.541 24.468-66.145 17.992-32.376-5.728-25.286 13.526-98.65 71.681-35.858 28.424-33.925 34.445-90.02 98.183Z"/>
    <path stroke="#faffff" stroke-opacity=".61" stroke-width="5.56" d="M4077.75 2162.73c-17.431 7.593-133.81 69.485-138.591 173.598-4.06 88.409 111.754-8.762 162.485 88.509 49.627 95.153 122.646 91.061 77.776 167.356-3.017 5.13-72.172 66.417-14.939 86.12 100.205 34.498 74.314-89.22 122.247-79.648 70.869 14.152 10.11 141.412 109.323 179.141 72.725 27.656 74.042-142.18-.224-201.285-33.445-26.617-77.283-40.019-24.641-62.782 93.735-40.533-121.64-101.808-152.037-144.5-33.224-46.662 2.162-284.963-141.399-206.509m-777.573-391.214c-28.137-159.305 54.677-170.315 74.448-125.313 23.908 54.418-67.998 346.471-74.448 125.313m443.887-144.703c-36.63 9.484-152.695 33.093-37.268 67.205 77.002 22.756 7.483 92.032 1.954 97.541-122.16 121.732-30.384 220.703-121.647 325.392-12.108 13.889-77.599 89.014-67.628 220.169 5.665 74.513 125.448 59.534 118.536 3.446-6.708-54.438 4.74-54.686 51.937-81.659 101.953-58.266 76.124-273.818 141.517-232.398 40.695 25.777-6.858 180.378 57.609 126.258 53.527-44.936-46.759-109.434 49.863-188.573 19.153-15.688 76.382-44.006 25.51-154.097-49.541-107.213-99.098-59.402-174.558-150.364-23.357-28.156-24.049-38.559-45.827-32.921Z"/>
    <path stroke="#faffff" stroke-opacity=".61" stroke-width="3.33" d="M2618.762 2713.237c-72.03 20.174-164.305-12.308-272.515 35.833-62.733 27.909-69.585 144.861-15.071 154.84 49.217 9.01 48.672 9.497 96.105 24.811 68.114 21.991 73.06 11.235 131.351 53.497 46.974 34.057 149.028-64.304 121.452-143.731-41.766-120.3-40.127-126.313-61.324-125.251Z"/>
    <path stroke="#faffff" stroke-opacity=".75" stroke-width="2.78" d="M2618.111 2737.546c-14.731-19.066-289.259 6.255-289.029 103.351.17 72.068 89.586 10.524 208.751 103.272 92.514 72.004 182.181-74.732 80.278-206.623"/>
    <path stroke="#faffff" stroke-opacity=".61" stroke-width="5.56" d="M2849.192 2785.51c-35.219 22.722-92.141 60.283-54.029 153.993 26.061 64.079 113.057 108.634 100.895 12.048-14.361-114.049 35.717-122.85 9.557-160.973-13.433-19.577-36.378-14.647-56.423-5.068"/>
    <path stroke="#faffff" stroke-opacity=".61" stroke-width="2.78" d="M2882.502 2794.808c-9.676-2.067-80.759 27.061-73.421 98.266 2.902 28.16 39.402 95.048 47.384 17.631 7.037-68.247 46.224-111.585 26.036-115.897Z"/>
    <path stroke="#faffff" stroke-opacity=".61" stroke-width="3.89" d="M2523.264 2188.745c-22.449-3.561-145.096 12.646-115.21 92.005 12.995 34.505 190.051 95.651 203.155 90.011 31.872-13.718-5.283-168.904-87.945-182.016"/>
    <path stroke="#faffff" stroke-opacity=".61" stroke-width="4.44" d="M2868.283 1657.599c-97.853 100.764 28.28 216.935 31.971 223.432 7.685 13.527 19.279 95.497 65.043 87.921 93.043-15.402 38.516-143.402 33.87-157.368-26.467-79.556-40.827-170.342-130.884-153.985"/>
    <path stroke="#faffff" stroke-opacity=".61" stroke-width="5.56" d="M4045.54 1867.933c87.575-22.188 162.619-52.094 168.655 72.613 3.974 82.114 31.686 161.347-50.621 135.527-72.126-22.626-75.935-42.316-189.068 4.3-66.7 27.483-39.45-43.32-.949-83.972 12.58-13.282 33.025-46.106 39.568-64.323 12.179-33.908 6.256-57.516 32.415-64.144Z"/>
    <path stroke="#faffff" stroke-opacity=".61" stroke-width="3.89" d="M3002.028 1637.399c-2.102-2.457-62.887-42.32-25.634-55.002 50.615-17.232 48.74 39.5 197.626 24.832 2.031-.2 71.693-13.654 42.783 26.68-19.404 27.073-47.201 43.32-21.859 122.183 22.19 69.055-8.738 77.465-67.189 137.26-45.653 46.703-33.567-42.398-41.042-69.806-17.11-62.738-50.39-52.668-47.497-117.357 1.987-44.427 1.164-53.535-37.188-68.789Z"/>
    <path stroke="#fff" stroke-opacity=".61" stroke-width="2.78" d="M3145.13 2520.699c-3.286.348-87.629 4.185-98.31 36.069-18.31 54.659 183.691 12.097 200.874-4.473 13.089-12.622 9.001-32.592-21.656-34.937-32.068-2.453-74.722 2.375-80.909 3.34Z"/>
    <path stroke="#fff" stroke-opacity=".61" stroke-width="5.56" d="M3328.352 2450.679c-27.163 85.152 68.362 83.001 101.853 101.368 13.474 7.39 86.542 108.996 152.081 2.308 38.458-62.605 79.514-91.282 8.589-109.091-74.35-18.67-86.408-16.528-127.908-74.926-4.647-6.539-43.067-60.602-97.611-22.987-52.782 36.4-16.114 37.842-37.004 103.328"/>
    <path stroke="#fff" stroke-opacity=".3" stroke-width="2.78" d="M2945.966 291.369c-60.387 59.808-5.158 67.291 33.114 65.831 85.725-3.269 148.025-139.562 241.96-18.295 53.847 69.515 76.206 44.324 135.273 109.599 24.405 26.969 30.137 5.137 27.344-3.684-10.767-34.014-30.538-29.049-30.321-104.227.483-166.819-49.196-156.58-222.65-200.389-75.968-19.187-67.384 16.555-141.081 83.765-20.332 18.542-19.901 43.889-43.64 67.4Z"/>
    <path stroke="#fff" stroke-opacity=".61" stroke-width="5.56" d="M3379.871 2152.779c-60.934 38.898-130.993 142.322-73.038 166.59 46.104 19.306 97.636-15.334 114.002-53.185 8.756-20.25 8.599-145.044-40.964-113.405m-1032.638 338.428c35.465-5.283 41.483 45.48 109.429-7.354 42.347-32.928 43.667 44.086 114.988 35.927 22.635-2.589 39.613-8.255 75.543 51.087 29.967 49.494-22.101 124.597-202.172 93.029-35.602-6.241-54.254-14.775-83.259-73.631-30.825-62.55-43.796-94.699-14.528-99.058Zm-566.261 14.08c-3.898.817-49.805 15.35-24.027 49.04 20.892 27.303 42.292 20.96 34.609 76.536-3.737 27.035-23.854 85.843 183.49 91.919 32.257.945 82.577-10.675 46.274-33.141-24.015-14.862-36.501-28.004.47-51.662 4.011-2.567 42.973-27.499 16.293-57.255-30.052-33.518-106.195 26.463-169.098-47.932-21.02-24.86-43.325-41.944-88.013-27.505Z"/>
    <path stroke="#fff" stroke-opacity=".61" stroke-width="3.89" d="M1991.15 2741.856c-118.99 86.158-12.114 222.03-158.176 208.558-93.777-8.649-26.622 77.502-24.216 93.952 5.476 37.435-30.845 65.028 22.888 70.117 27.689 2.622 44.119 49.694 100.339-19.871 46.066-56.999-.781-88.133 80.409-147.498 49.501-36.194 37.476-53.369 95.084-74.321 179.67-65.343-74.841-160.977-116.327-130.938Z"/>
  </g>
  <g fill="none">
    <path stroke="#fff" stroke-opacity=".61" stroke-width="2.22" d="M2409.367 3000.453c-2.413.836-32.867 11.388-22.713 22.43 2.633 2.863 44.344 15.977 22.713-22.43m69.005 6.273c-25.439 14.44 10.842 30.915 28.676 18.722 15.342-10.489-26.687-18.408-28.676-18.722m358.97 170.772c-57.47 20.546.566 78.719 10.33 70.819 10.886-8.808 11.674-26.768 11.784-29.291.859-19.587-2.498-42.613-22.114-41.528m-85.55-42.203c-15.761-4.811-81.864 8.889-115.89 73.34-10.299 19.509 5.713 35.57 35.287 11.876 16.425-13.16 15.376-17.622 56.586-48.173 25.711-19.061 37.289-28.743 24.017-37.043"/>
    <path stroke="#fff" stroke-opacity=".61" stroke-width="4.44" d="M3028.453 3241.261c-18.67 4.044-86.165 6.02-80.215 24.527 12.157 37.81 333.287 26.699 334.325 17.853 1.86-15.855-78.213-24.708-96.447-27.084-76.82-10.01-78.648-26.857-157.663-15.295Z"/>
    <path stroke="#fff" stroke-opacity=".61" stroke-width="2.22" d="M3133.854 3096.447c-67.594 59.522 22.549 70.803 51.863 61.012 44.501-14.864 47.642-94.906-51.863-61.012"/>
    <path d="M2681.679 2708.426c-42.599 54.022 36.68 133.056 37.068 133.275 27.156 15.347 94.948-18.783 88.766-83.072-1.061-11.03-2.307-85.835-38.626-105.502-42.843-23.199-81.359 47.02-87.209 55.299Z"/>
    <path stroke="#fff" stroke-opacity=".61" stroke-width="2.78" d="M2734.154 2732.678c-68.527 54.292 21.008 98.067 44.882 57.33 21.994-37.528 14.407-104.303-44.882-57.33"/>
    <path stroke="#fff" stroke-opacity=".61" stroke-width="3.33" d="M3950.243 2508.878c-33.634 8.377-88.146 43.031-148.93 142.994-45.685 75.134 32.35 32.027 141.486 38.108 31.13 1.735 115.487-10.425 112.946-16.456-14.678-34.842-24.121-46.992 32.455-85.07 72.157-48.564-28.929-37.661-42.056-55.073-8.293-11 6.944-45.392-7.763-48.832-28.094-6.57-35.65 11.257-88.138 24.33Z"/>
    <path stroke="#fff" stroke-opacity=".61" stroke-width="1.67" d="M3916.655 2574.253c-23.193-15.849-34.572 1.492-69.296 53.169-36.419 54.2 29.377 40.849 44.18 36.524 22.768-6.651 53.015-44.67 25.115-89.693Z"/>
    <path stroke="#fff" stroke-opacity=".61" stroke-width="3.72" d="M4142.691 2893.684c-67.018 36.51-98.458 146.715-24.334 176.037 11.365 4.496 137.475 54.382 150.55-25.968 4.248-26.107 8.647-110.66-3.676-129.933-12.013-18.787-65.733-42.339-122.54-20.135Z"/>
    <path stroke="#fff" stroke-opacity=".61" stroke-width="1.67" d="M4180.716 2936.045c-11.455 4.082-53.558 11.573-61.127 73.238-4.9 39.926 68.611 62.725 98.414 10.924 4.217-7.33 38.304-96.61-37.287-84.162"/>
    <path stroke="#fff" stroke-opacity=".61" stroke-width="3.89" d="M2555.477 1874.352c16.006 119.208 40.316 147.95 97.174 120.859 58.192-27.726 69.194 47.013 106.483 11.384 45.75-43.714-66.954-120.089-70.387-124.817-26.901-37.04 19.217-183.291-63.884-176.974-42.797 3.253-67.298 59.808-70.387 66.938-16.632 38.392-3.719 66.542 1.001 102.609Z"/>
    <path stroke="#fff" stroke-opacity=".2" stroke-width="2.78" d="M2064.691 1785.137c-70.841 37.045-104.011 74.278-138.757 151.747-48.625 108.413 102.928 27.419 131.104 21.166 51.128-11.347 88.904 5.318 86.012-51.236-2.176-42.542 20.504-40.898 13.272-82.689-5.418-31.303-26.769-72.907-91.63-38.988Zm262.566-69.892c-70.617 32.104-17.441 68.988 13.218 53.659 38.072-19.036 63.08-75.911-13.218-53.659"/>
    <path stroke="#fff" stroke-opacity=".25" stroke-width="2.78" d="M2067.396 2289.482c-17.973 97.258-15.326 142.838 72.802 179.276 94.981 39.271 129.938-99.006 8.018-242.17-47.256-55.491-59.093-56.058-48.055-128.556 4.312-28.319-74.713-118.124-153.137-32.389-42.947 46.951-114.248 87.365-37.886 121.393 87.949 39.191 165.583 12.004 158.258 102.446"/>
    <path stroke="#faffff" stroke-opacity=".61" stroke-width="2.22" d="M2868.429 3078.224c-15.24 12.403-13.326 33.548 5.344 40.517 20.294 7.575 30.9-11.998 29.09-25.637-1.103-8.311-15.457-30.325-34.434-14.88m537.743 94.836c-54.856-10.265-90.784 15.462-61.686 36.223 13.328 9.509 40.898 13.023 61.438 6.187 20.432-6.8 30.176-36.809.247-42.41Zm75.441-149.528c-24.438 41.483 26.395 78.262 56.163 56.789 5.153-3.717 34.585-37.762-56.163-56.789"/>
    <path stroke="#faffff" stroke-opacity=".61" stroke-width="5.56" d="M3836.978 1746.275c-152.863-8.053-80.695 212.433-24.848 217.888 104.033 10.161 190.045-200.484 24.848-217.888"/>
    <path stroke="#faffff" stroke-opacity=".61" stroke-width="2.78" d="M3663.776 1948.279c-9.848 225.684-106.745 183.866-80.149 265.057 8.501 25.951 119.776 67.639 151.867-73.023 26.826-117.587 42.294-117.616 24.728-176.55-20.956-70.309-94.912-50.631-96.446-15.484"/>
    <path stroke="#faffff" stroke-opacity=".61" stroke-width="1.67" d="M3702.199 1949.717c-48.236 28.755-16.317 173.659 28.532 119.061 7.123-8.671 39.807-121.662-28.532-119.061"/>
    <path stroke="#faffff" stroke-opacity=".61" stroke-width="2.78" d="M3650.486 2110.408c-57.373 56.861-41.018 105.89-2.847 104.685 49.367-1.558 69.163-71.218 69.484-77.954 2.86-60.101-52.595-28.13-66.637-26.731"/>
    <path stroke="#faffff" stroke-opacity=".61" stroke-width="2.22" d="M3572.168 2245.947c-74.97 61.98 5.96 115.66 38.979 93.196 12.255-8.337 46.649-107.154-38.979-93.196"/>
    <path stroke="#faffff" stroke-opacity=".61" stroke-width="1.67" d="M2472.944 2767.377c-18.181 4.638-124.145 17.161-88.638 72.212 25.398 39.377 66.037 2.386 160.413 64.987 32.299 21.425 113.869-7.818 100.307-69.222-.873-3.952-26.53-72.964-53.253-85.963-19.646-9.556-79.083 7.847-118.828 17.987Zm376.9 63.083c-40.22 19.036-23.988 53.711-16.21 54.369 13.876 1.175 19.336-18.689 22.351-24.791 11.506-23.286 5.415-35.047-6.14-29.578Z"/>
    <path stroke="#faffff" stroke-opacity=".61" stroke-width="2.22" d="M2513.585 2229.407c-128.045 20.493 31.218 82.241 36.083 82.512 30.718 1.709 72.806-70.131-36.083-82.512"/>
    <path stroke="#faffff" stroke-opacity=".49" stroke-width="3.33" d="M2602.841 1531.058c-7.457 3.441-40.211 25.923 1.452 27.174 16.193.486-5.5 31.705 8.698 30.592 22.095-1.733 54.238-46.532 63.271-69.961 16.366-42.45-30.059-5.369-73.421 12.196Zm-206.605 40.878c-17.074 7.537-44.422 24.774-33.032 41.73 8.953 13.328 78.52 3.06 90.977-20.004 18.217-33.729-43.641-28.041-57.945-21.726"/>
    <path stroke="#faffff" stroke-opacity=".61" stroke-width="2.78" d="M3053.9 1682.39c53.401-39.093 96.744-32.666 106.262 12.439 21.573 102.223 39.581 114.928-6.728 144.683-13.421 8.623-30.863 35.007-39.305 14.461-17.897-43.556-9.11-48.564-47.77-91.855-25.504-28.559-19.015-51.2-12.459-79.727Z"/>
    <path stroke="#fff" stroke-opacity=".61" stroke-width="3.89" d="M3417.409 2411.505c-1.785.237-51.452-1.678-49.895 45.456 2.646 80.107 73.188 42.572 123.746 90.853 38.451 36.719 76.773-3.228 38.243-45.011-63.161-68.493-54.09-93.796-112.094-91.298"/>
    <path stroke="#fff" stroke-opacity=".2" stroke-width="2.22" d="M3629.24 1736.729c-53.296 31.31-4.228 61.739 21.692 54.386 33.258-9.435 36.771-69.443-21.692-54.386"/>
    <path stroke="#fff" stroke-opacity=".61" stroke-width="2.22" d="M2001.606 2814.347c-76.35 8.543-49.494 62.595-34.634 66.768 28.972 8.135 92.537-56.764 34.634-66.768m140.799 213.987c-43.966 25.879-128.111 78.949-133.078 122.552-6.019 52.836 125.015-36.22 145.624-55.969 31.839-30.511 45.088-83.932-12.546-66.582Z"/>
    <path stroke="#fff" stroke-opacity=".49" stroke-width="2.22" d="M1877.251 2382.015c-9.529 1.585-58.242 4.142-71.896 38.763-13.789 34.963 27.07 52.075 62.341 40.58 17.464-5.692 75.689-82.265 9.554-79.344Z"/>
  </g>
  <g fill="none" stroke-opacity=".49">
    <path stroke="#fff" stroke-dasharray="13.333 26.667 0 0 0 0" stroke-width="3.33" d="M2130.721-.713c-166.956 154.184-232.994-32.412-351.601 37.048-137.838 80.722 204.312 251.87-36.022 375.709-177.325 91.372 31.224 117.659 41.214 118.918 153.732 19.377 131.528 86.631 283.975 112.372 104.922 17.717 83.788 124.324-36.098 119.095-98.379-4.291-139.852-49.635-189.823 76.324-55.708 140.418-94.864-109.06-182.467-82.567-90.558 27.387-58.453 86.08-191.913 123.388-150.344 42.028-64.512 104.403-81.49 285.609-11.176 119.283 163.606 86.667 96.279 128.237-72.361 44.678-96.995-28.611-254.575 28.147-125.19 45.092-135.961-70.044-285.153-5.115-28.365 12.345-232.999 144.809-252.195 38.112-11.481-63.818 69.64-15.516 199.991-103.749 121.803-82.448-7.749-112.562-40.213-101.179-16.989 5.957-129.009 74.197-147.28-1.646-19.453-80.748 131.661-98.328 102.04-173.984-75.861-193.755-78.259-194.703-94.81-201.244-69.703-27.546-64.829 36.397-176.731 35.82-14.398-.074-120.826 17.359-10.56 164.044 150.845 200.667-112.363 4.339-236.989 146.124-35.496 40.383 25.869 43.969-48.367 90.123-17.716 11.015-71.161-4.052-97.049 7.417-19.545 8.659-17.317 50.19-35.627 60.708-21.894 12.577-39.94-13.603-60.843-5.92-39.155 14.391-75.844 58.083-78.732 67.98"/>
    <path stroke="#faffff" stroke-dasharray="13.333 26.667 0 0 0 0" stroke-width="3.33" d="M940.161 3313.7c-49.938-130.763-181.777-227.755-109.862-310.823 43.146-49.838 87.833 74.241 110.358 5.405 18.225-55.695-18.219-333.103 72.992-306.097 43.42 12.856 89.63 51.962 117.504-57.487 22.557-88.57 33.943-179.325 88.062-176.407 60.673 3.271 87.001-4.994 61.768-60.432-18.29-40.182-187.965-119.619-60.644-171.458 122.262-49.78 253.122 65.822 313.596 69.217 44.435 2.494 43.842 1.531 87.748 10.617 88.672 18.349 69.178-76.758 111.411-53.114 46.102 25.81-19.669 157.691-25.808 170.001-60.342 120.995 34.123 149.777-73.498 325.205-75.314 122.766 138.51 179.508 56.839 366.316-33.659 76.989-94.956 77.646-212.185 206.011-56.991 62.405-136.948 143.76-409.239 77.546-121.984-29.663-122.81-81.315-129.042-94.499ZM4427.78-62.758c-55.297 163.944-36.918 196.649-75.007 183.394-17.854-6.214-136.726-98.474-171.89 34.982-36.873 139.94 138.819 125.204 156.573 285.606 8.515 76.928 106.798 154.373 25.143 208.822-29.163 19.446-186.795-19.533-170.226 60.026 6.796 32.633 95.917 37.908 104.834 38.435 159.153 9.419 68.538 121.63 31.019 99.045-16.79-10.107-42.509-48.979-57.181 19.441-9.113 42.496 48.839 155.513 80.013 172.325 16.372 8.829 141.585 39.712 45.553 116.374-142.22 113.534-113.966-324.657-234.922-224.4-49.758 41.242 9.901 74.133-41.243 114.859-42.84 34.113-51.694 37.55-33.603 90.312 13.933 40.634-63.714 159.959 34.286 123.865 9.882-3.64 126.623-94.484 120.933-41.168-3.685 34.522-95.079 56.713-101.802 94.821-.783 4.439-.579 4.133-7.812 55.801-40.732 6.35-40.493 6.184-43.99 6.858-77.808 14.981-92.733 478.092 78.998 305.582 19.908-19.999 6.777-35.839 31.338-55.252 39.721-31.393 91.672-3.999 110.032-29.42 56.7-78.506-45.518-172.877-4.225-195.261 31.006-16.808 86.418 125.623 167.316 121.457 35.58-1.832 26.242-41.822 72.449-14.405 27.916 16.564 60.573 60.33 72.19 87.046 8.308 19.106-51.849 76.494-49.725 95.193 3.457 30.439-32.997 44.491-55.005 68.023-13.996 14.965-14.702 40.281-19.58 55.087-14.476 43.944-102.208 21.814-123.9 46.518-46.111 52.515 52.777 107.118 108.122 116.455 76.299 12.872 63.406 75.184 108.53 87.805 35.725 9.992 88.365 2.218 92.167 1.532"/>
    <path stroke="#faffff" stroke-dasharray="13.333 26.667 0 0 0 0" stroke-width="3.33" d="M4217.129-42.772c-32.964 123.527-137.176 98.681-101.415 261.465 30.135 137.178 94.451 98.479 102.648 138.838 5.465 26.907-123.362 138.198 14.295 100.7 93.904-25.58 13.175 127.205-54.739 84.568-91.769-57.613-89.792-1.576-87.136 4.882 5.188 12.616 126.035 139.62-71.442 149.499-87.507 4.378-120.211-7.997-99.165-93.004 32.081-129.581-106.979-20.177-109.712-122.508-1.208-45.239 97.446-163.404-.441-159.954-99.011 3.489-3.524 274.619-110.018 225.219-50.337-23.35-21.553-93.925-113.055-70.353-158.567 40.849-171.474-138.641-114.947-115.09 10.448 4.353 61.348 46.726 155.057-18.175 89.409-61.922 54.235-217.479-122.516-113.691-8.553 5.023-103.1 90.062-115.647-32.525-8.966-87.598 48.332-33.373 150.374-55.47 245.292-53.117 174.259-152.158 271.649-233.44 54.083-45.138 161.474-23.894 235.817-11.48 130.097 21.723 152.167 12.408 170.393 60.518Z"/>
    <path stroke="#fff" stroke-dasharray="13.333 26.667 0 0 0 0" stroke-width="3.33" d="M-21.466 1011.427c80.225-39.106 94.482 9.327 171.607-36.351 91.11-53.96 142.794-30.945 146.506-92.54 1.567-26-12.08-28.692 5.157-79.637 9.233-27.289 24.738-64.748-26.653-109.778-22.477-19.695-41.126-10.154-151.923-.084-78.029 7.092-81.097 51.237-145.016 180.213-42.844 86.451-7.577 130.711.323 138.177Z"/>
    <path stroke="#fff" stroke-dasharray="11.111 22.222 0 0 0 0" stroke-width="2.78" d="M-24.637 1482.409c58.114-145.154 109.847-80.937 198.778-116.203 20.943-8.305 191.994-177.525 292.559-130.352 86.332 40.497 13.153 154.788 10 164.152-35.291 104.786 41.577 151.632-91.407 239.805-79.489 52.704-96.254 86.589-159.678 15.064-137.232-154.761-234.198 9.606-259.926-78.847-17.79-61.16 2.496-85.192 9.676-93.619Z"/>
    <path stroke="#fff" stroke-dasharray="15.556 31.111 0 0 0 0" stroke-width="3.89" d="M973.006 1958.165c-54.672 101.968-140.674 165.429-115.393 293.41 19.225 97.323 163.92 110.808 193.595 8.953 25.185-86.445 29.121-94.162 116.599-115.795 73.408-18.153 20.863-152.031.797-176.279-35.605-43.026-176.881-45.196-195.598-10.288Z"/>
    <path stroke="#fff" stroke-dasharray="17.778 35.556 0 0 0 0" stroke-width="4.44" d="M1648.601 1503.026c-18.406 40.466-78.995 89.04-37.618 257.888 45.227 184.561 390.091 31.506 291.999-92.306-23.47-29.624-95.499-81.322 8.249-96.091 29.356-4.179 136.629 3.556 147.442-119.437 5.466-62.169-42.826-82.063-80.038-26.92-82.042 121.578-113.516 72.203-239.068 21.596-4.077-1.643-29.732-11.984-54.86-3.152-33.804 11.882-22.64 28.817-36.107 58.422Z"/>
    <path stroke="#fff" stroke-dasharray="22.222 44.444 0 0 0 0" stroke-width="5.56" d="M4693.997 999.416c-48.311-105.341-116.011-1.561-198.96-82.581-86.349-84.342 99.84-146.036 12.476-234.433-27.454-27.778-60.768-33.323-77.943-154.842-9.313-65.892 32.494-77.683-18.803-149.218-43.276-60.35 110.795-127.964 135.048-68.072 16.484 40.707 1.391 68.159 58.149 99.321 81.229 44.599 71.137 59.677 153.955 354.061 12.025 42.746 20.74 78.661 17.524 131.925-5.115 84.705-73.294 99.474-81.446 103.839"/>
    <path stroke="#fff" stroke-dasharray="13.333 26.667 0 0 0 0" stroke-width="3.33" d="M925.353-10.005c-35.027 202.821-92.111 225.202-138.141 268.127C637.259 397.96 634.493 407.984 629.597 425.727c-23.243 84.228 63.438 130.139 135.554 41.042 48.332-59.712 61.015-53.199 79.219-128.346 20.086-82.914 82.635-21.012 177.841-22.949 87.51-1.78 60.331 51.581 106.414 72.14 8.251 3.681 116.603 12.872 125.863-108.217 11.233-146.899 121.56-129.743 78.234-204.751-20.587-35.64-44.969-18.83-96.321-86.811-113.342-150.045-302.823-45.473-311.049 2.159Z"/>
    <path stroke="#fff" stroke-dasharray="15.556 31.111 0 0 0 0" stroke-width="3.89" d="M-53.649 473.676c63.275 8.926 62.242 11.266 109.85 25.121 50.902 14.813 42.353-19.975 108.839-48.484 171.611-73.586 203.906-23.815 287.562-136.293 41.039-55.179 95.516-85.568 11.727-123.561-108.653-49.268-70.436-93.841-166.017-165.407C271.804 5.204 194.853-1.772 154.291 41.175c-63.372 67.098-66.997 68.058-167.365 80.036-64.754 7.728-108.076 28.765-31.273 272.82 11.932 37.917-12.95 73.813-9.303 79.647Z"/>
    <path stroke="#fff" stroke-dasharray="22.222 44.444 0 0 0 0" stroke-width="5.56" d="M3583.34 778.865c-57.887-69.687 6.527-106.392 74.022-63.87 87.117 54.885 159.555-30.004 203.797 31.824 31.107 43.472-27.492 70.21 23.013 130.098.89 1.055 41.347 38.932 27.12 70.003-14.444 31.544-63.479 10.245-68.543 8.046-62.17-27.004-66.205-12.414-124.225-37.75-34.572-15.097-5.498-36.529-74.47-65.846-31.464-13.374-33.323-39.533-60.713-72.506Z"/>
    <path stroke="#faffff" stroke-dasharray="13.333 26.667 0 0 0 0" stroke-width="3.33" d="M-28.068 2824.368c136.333 10.786 21.454 123.685 109.767 182.124 16.562 10.96 291.604 94.342 231.877-34.537-47.78-103.1-27.014-132.681-137.282-160.517-293.559-74.105-197.475-606.589 66.567-379.728 91.114 78.283 102.811-45.108 304.058-63.356 375.246-34.026 401.77 445.634 234.34 607.178-177.299 171.066 125.264 234.527 25.58 364.761-55.857 72.976-634.707 349.242-946.785-85.272-161.89-225.403-85.946-601.109 111.878-430.654Z"/>
  </g>
  <g fill="none">
    <path stroke="#faffff" stroke-opacity=".61" stroke-width="2.78" d="M2690.481 699.598c18.815-48.091 49.559-228.794 409.963-206.33 171.464 10.687 162.882 108.144 210.043 142.398.033.024 56.871 26.495 60.925 71.798 6.408 71.605-74.659 65.053-35.21 214.281 19.262 72.863 63.6 148.793 37.605 348.968-1.136 8.748 48.716 79.401-190.811 192.322-5.073 2.391-209.346 99.928-337.424-125.265-62.996-110.763-200.93-50.17-205.636-290.891-1.037-53.049 20.715-144.611 24.088-165.003 16.408-99.205 4.919-83.924 26.457-182.277Z"/>
    <path stroke="#faffff" stroke-opacity=".61" stroke-width="2.22" d="M3016.081 809.953c-19.98 21.446-20.777 114.531 24.336 115.438 44.449.893-7.373-133.645-24.336-115.438"/>
    <path stroke="#faffff" stroke-opacity=".75" stroke-width="1.67" d="M3111.508 653.801c-90.366 30.213 3.87 79.934 43.938 76.33 20.326-1.828 109.372-20.322 111.724-23.233 13.385-16.565-65.345-28.144-79.802-44.455-22.584-25.481-44.252-19.209-75.859-8.641Zm-281.846 75.48c-81.379 59.554-65.144 75.057-58.36 79.024 17.694 10.348 21.816-7.695 100.068-17.506 72.045-9.032 37.901-45.949 36.837-46.921-32.016-29.245-72.083-17.242-78.544-14.598Z"/>
    <path stroke="#fff" stroke-opacity=".55" stroke-width="2.22" d="M3241.354 1088.37c-92.532 7.212-61.99-3.229-108.572 3.664-26.756 3.959-38.323 11.179-52.967 14.37-16.716 3.642-39.086-7.242-54.3-3.456l-104.927 52.037c100.542 19.496 138.602 6.465 170.245.165 50.209-9.997 82.604-32.511 150.522-66.78Z"/>
    <path stroke="#fff" stroke-opacity=".4" stroke-width="2.78" d="M3096.403 948.972c-35.75 24.435 27.43 31.132 40.614 4.662 7.907-15.874-13.793-22.995-40.614-4.662"/>
    <path stroke="#faffff" stroke-opacity=".4" stroke-width="2.22" d="M2974.586 964.518c-16.343 6.945-6.68 40.702 38.24 24.225 9.795-3.593 10.654-32.73-38.24-24.225"/>
  </g>
  <g fill="none">
    <path stroke="#faffff" stroke-opacity=".4" stroke-width="1.67" d="M2756.645 717.242c21.812-21.465 131.198-68.026 173.637-43.792 30.361 17.337 83.162 148.051-20.773 179.119-100.4 30.011-103.683 51.624-170.499 48.465-63.751-3.015-58.892-64.947-51.819-85.787 8.445-24.883 34.517-54.125 69.453-98.004Z"/>
    <path stroke="#faffff" stroke-opacity=".4" stroke-width="1.33" d="M2683.286 1055.886c7.399 85.848 8.147 254.834 143.893 139.343 29.228-24.867 15.916-50.233 67.529-79.75 2.702-1.545 54.805-20.297 47.5-76.336-5.769-44.263-49.209-49.359-41.956-101.668 1.412-10.183 16.915-52.048-31.391-39.83-52.811 13.357-51.39 18.846-104.683 29.196-70.353 13.663-76.469 91.907-80.892 129.045m464.068-229.167c-10.619 60.112 54.908 63.543 38.453 122.452-17.952 64.27-7.09 108.222 38.526 98.569 45.843-9.701 51.932-8.565 75.965 30.283 30.005 48.501 56.522 16.497 50.671-14.042-17.501-91.347-82.348-80.453-56.861-199.952.099-.462 29.516-87.047-31.298-60.504-43.268 18.885-45.659 25.857-115.457 23.195Z"/>
    <path stroke="#faffff" stroke-opacity=".2" stroke-width="5.56" d="M2824.728 582.307c-95.788 56.35-49.001 81.03-41.75 82.49 61.302 12.339 54.644-25.355 179.453-48.55 42.04-7.813 140.132-67.131 120.495-74.855-26.752-10.522-91.13 15.396-123.62 13.723-62.53-3.22-80.769-4.545-134.578 27.193Z"/>
    <path stroke="#faffff" stroke-opacity=".4" stroke-width="1.67" d="M3006.595 705.479c-31.121-90.252 25.446-93.984 149.74-106.757 57.032-5.861 56.82 2.422 143.905 53.804 112.41 66.323-21.466 112.955-39.689 123.863-56.573 33.864-60.61 35.606-161.108 12.203-61.823-14.397-49.76-36.357-92.849-83.113Z"/>
    <path stroke="#faffff" stroke-opacity=".2" stroke-width="3.89" d="M2925.814 1120.231c-173.503 81.636 28.237 236.901 67.744 245.881 22.486 5.111 264.473 33.995 304.722-179.406 28.672-152.02-73.299-91.828-165.903-118.019-48.818-13.808-55.489-39.702-101.293 1.672-57.785 52.195-48.795 28.783-105.27 49.872"/>
    <path stroke="#faffff" stroke-opacity=".2" stroke-width="1.67" d="M2965.144 889.532c30.432-70.473 3.806-182.24 51.168-147.601 26.582 19.441 37.319 69.277 94.417 124.895 44.129 42.985 91.34 123.169 20.902 124.67-19.265.411-45.727-14.519-73.633-10.906-21.433 2.775-38.007 30.629-88.515 29.497-53.102-1.19-11.411-104.18-4.339-120.556Z"/>
    <path stroke="#fff" stroke-opacity=".2" stroke-width="3.33" d="M2911.258 1411.984c-4.911-6.633-61.834-73.553-21.377-80.945 39.338-7.187 53.744 77.608 244.482 52.7 95.144-12.425 207.757-167.245 212.906-120.837 3.841 34.622-78.361 127.504-144.452 170.325-94.729 61.377-148.208 50.29-210.525 26.886-25.343-9.518-26.957-21.057-81.034-48.129"/>
    <path stroke="#fff" stroke-opacity=".61" stroke-width="3.89" d="M2501.51 601.035c-7.049 96.132 62.349 92.28 68.916 146.191 4.813 39.511 27.169 23.475 32.249 3.293 1.481-5.884 4.224-116.44-1.262-128.651-20.939-46.602-98.413-41.15-99.903-20.833"/>
    <path stroke="#fff" stroke-opacity=".61" stroke-width="2.22" d="M2526.361 308.426c-68.168 10.312-30.994 161.895 6.362 99.587 35.236-58.772 33.642-62.025 28.798-65.005-5.247-3.228-20.909-2.365-25.265-7.937-2.849-3.644-.319-28.094-9.895-26.645"/>
  </g>
  <g fill="none">
    <path stroke="#faffff" stroke-opacity=".2" stroke-width="3.33" d="M2783.893 732.493c-89.567 97.084-81.253 91.182-81.079 103.81.601 43.554 59.051 8.723 87.129 11.232 29.145 2.605 30.122 10.292 69.828-7.961 59.616-27.406 103.938-38.998 79.517-119.013-3.388-11.102-40.873-49.861-110.538-16.587-12.87 6.147-30.375 12.82-44.857 28.518Zm208.419 64.008c5.021 98.065-21.189 117.145 0 139.981 15.686 16.905 105.488 25.169 90.198-34.53-9.205-35.941-35.382-79.883-50.36-109.181-19.109-37.38-40.781-14.694-39.838 3.73m131.24-175.22c-41.453 4.312-89.302-1.407-91.665 59.464-1.378 35.506 20.455 26.493 35.66 63.526 3.241 7.893 13.416 32.675 102.505 29.466 53.05-1.911 48.135-19.976 99.623-32.737 83.802-20.77 35.753-56.136 12.092-64.571-43.765-15.601-51.33-6.868-72.685-41.981-15.853-26.066-58.773-16.014-63.881-14.817l-10.097 2.437c-2.342.544-9.448-1.276-11.552-.787"/>
    <path stroke="#faffff" stroke-opacity=".1" stroke-width="3.33" d="M2939.717 1185.061c-15.626 9.974-47.916 33.996 37.821 106.627 33.667 28.52 175.821 53.231 245.258-1.691 38.486-30.441 55.719-39.713 60.896-118.295 3.442-52.242-33.968-54.605-61.91-24.91-22.172 23.563-25.979 14.14-52.029 65.241-35.621 69.876-151.236 48.243-158.604 4.569-1.016-6.023-2.326-34.336-31.336-34.084-12.871.112-30.283-5.038-40.097 2.542Z"/>
    <path stroke="#faffff" stroke-opacity=".2" stroke-width="2.78" d="M3072.151 1176.788c-57.102 27.087-14.76 69.045 49.891 54.557 27.988-6.272 48.014-29.252 36.429-44.389-2.601-3.398-31.549-28.269-86.32-10.169Z"/>
    <path stroke="#faffff" stroke-opacity=".2" stroke-width="1.67" d="M2703.217 1025.822c-1.609 90.876 36.859 37.658 39.418 34.117 22.057-30.515 45.302 7.169 110.22-56.198 51.603-50.37 25.208-85.186-5.908-71.738-33.499 14.479-15.94 7.972-77.892 20.443-50.116 10.088-62.098 38.354-65.839 73.375Z"/>
    <path stroke="#faffff" stroke-opacity=".2" stroke-width="1.67" d="M2707.01 1109.488c.749 7.118 4.525 94.613 38.396 99.74 18.449 2.793 13.396-14.076 51.143-32.29 46.671-22.519 21.191-69.231 68.86-76.854 2.106-.337 32.866 1.102 50.169-27.057 28.747-46.782-1.846-106.433-47.373-59.676-28.439 29.208-47.16 77.186-107.63 80.996-48.044 3.027-48.198-9.424-53.565 15.14Zm489.905-156.363c5.579-18.679 7.369-63.735 64.121-10.251 50.065 47.182 49.412 77.808-19.22 93.466-74.629 17.026-49.962-66.268-44.901-83.215"/>
    <path stroke="#fff" stroke-opacity=".2" stroke-width="2.22" d="M2831.545 754.31c-36.817 14.722 2.732 27.441 4.741 27.637 12.241 1.191 25.71-5.939 22.588-14.98-2.227-6.448-24.99-12.079-27.329-12.657m304.567-79.635c-65.699 45.285 59.577 43.44 71.234 32.307 24.653-23.547-65.205-31.484-71.234-32.307"/>
  </g>
  <g fill="none">
    <path stroke="#fff" stroke-opacity=".49" stroke-width="2.22" d="M247.351 2516.452c-97.037 34.715-185.142 34.283-188.459 119.567-2.993 76.96 151.205 192.149 284.752 187.397 122.054-4.343 131.299 38.582 269.962-34.65 109.08-57.608 134.121-22.079 165.511-81.122 42.614-80.153-73.125-75.224-98.613-101.096-31.414-31.888-25.897-107.521-176.484-80.479-40.84 7.334-58.643 12.927-120.063-.888-77.744-17.486-79.242-29.791-136.607-8.729Z"/>
    <path stroke="#fff" stroke-opacity=".49" stroke-width="3.89" d="M-14.159 2912.324c50.467 137.939 65.15 141.205 155.889 147.754 90.963 6.565 157.646 24.756 130.453 92.367-27.74 68.973-97.809-14.111-167.602 40.493-32.182 25.178-36.084 48.871-165.686 30.745-110.195-15.411-82.176-123.562-74.773-153.063 20.703-82.493 101.905-142.505 121.718-158.296Zm346.754 444.034c28.521-56.634 10.101-62.844 36.746-120.647 49.753-107.931-45.205-113.699-31.214-194.292 1.364-7.856 28.905-112.315 72.282-141.606 84.81-57.27 187.288 32.934 208.063 121.265 17.43 74.11 4.881 87.37 68.222 120.394 9.112 4.751 61.273 31.946 82.437 98.512 4.462 14.036 10.854 117.512-25.768 139.218-60.332 35.759-307.365 3.785-408.349-18.972m639.285-346.241c30.251-125.604-46.328-221.594 56.062-258.281 121.65-43.589 315.612 103.171 286.101 268.458-18.464 103.414-13.058 239.173-278.164 262.413-150.902 13.228-59.067-136.283-121.17-169.036-47.279-24.935-42.031-32.534-38.922-35.369 34.812-31.743 65.338-.552 96.093-68.185"/>
    <path stroke="#fff" stroke-opacity=".49" stroke-width="3.33" d="M1193.085 2557.49c25.578-55.055 80.821-52.585 152.401 5.336 49.114 39.742 37.268 79.778 104.18 142.026 108.959 101.365 7.875 158.276 83.235 270.05 94.628 140.354-106.769 147.989-133.518 29.63-29.307-129.68-27.136-145.282-142.557-211.389-97.397-55.784-90.481-144.903-63.741-235.655Z"/>
    <path stroke="#fff" stroke-opacity=".49" stroke-width="4.44" d="M2246.094 1335.597c-68.949 46.121-34.568 64.117-2.677 140.462 24.977 59.793 48.345 19.381 228.258 21.808 103.496 1.396 275.926-69.864 124.78-139.639-93.755-43.281-127.765 35.6-207.377-58.825-48.61-57.654-77.022-9.037-142.984 36.193Z"/>
    <path stroke="#faffff" stroke-opacity=".49" stroke-width="5.56" d="M4672.032 3348.107c-35.331-87.557 12.567-155.355-19.565-214.085-11.111-20.309-120.95-73.314-63.885-153.274 46.218-64.761 76.509-16.453 179.172-87.224m-83.424 15.198c-29.155 5.776-108.619 30.607-97.888-22.745 9.208-45.78 9.811-53.52-32.405-72.497-68.257-30.683 13.042-52.616 8.927-127.018-4.031-72.878-30.494-80.979 25.793-156.856 62.356-84.057-95.476-79.517-53.517-134.163 6.039-7.865 134.549-65.935 79.537-111.418-31.901-26.375-134.181 35.921-141.788 78.192-.626 3.48.835 71.58-39.105 65.291-71.963-11.331 7.018-99.697-104.614-141.797-58.682-22.131-75.977-41.949-29.802-84.787 61.003-56.594-38.566-88.178 17.862-159.974 112.098-142.628 193.124 130.278 352.554 82.603 5.033-1.505 163.84-90.751 144.051 140.592-13.572 158.657-2.821 158.765-19.172 317.485-7.714 74.872-39.173 124.258-56.915 250.543-11.718 83.412-31.771 57.354-53.517 76.55Zm-499.243 400.729c53.781-63.41 94.001 20.867 164.466-46.112 47.793-45.429 18.211-78.64 76.649-91.733 65.598-14.697 58.951-56.377 88.876-37.176 25.422 16.311 10.673 47.442 53.241 114.533 32.277 50.87 55.877 89.82-46.889 124.233-50.392 16.874-71.304 2.075-279.728-32.083-62.275-10.206-55.032-22.574-56.615-31.662"/>
    <path stroke="#fff" stroke-opacity=".49" stroke-width="3.33" d="M352.4 1881.228c-112.984 53.745-63.916 106.34-27.811 223.42 42.793 138.769 98.957-28.823 219.79-43.742 135.969-16.788 240.014 9.473 173.487-153.803-43.446-106.629 82.725-214.449-96.755-236.118-142.621-17.219-151.75 12.561-162.815 99.551-11.119 87.418-76.009 96.511-105.896 110.693Z"/>
    <path stroke="#fff" stroke-opacity=".49" stroke-width="3.89" d="M-69.192 1629.431c285.306 59.227 329.512 279.811 460.065 104.153 154.249-207.541 146.05-213.832 171.596-315.304 20.627-81.929 95.825-132.783 13.441-249.56-55.997-79.373-217.008-82.695-254.765-20.979-39.525 64.605-61.025 77.131-134.7 95.91-65.123 16.6-20.76 96.605-126.366 67.471-41.453-11.436-90.631 16.374-155.97 263.858"/>
    <path stroke="#fff" stroke-opacity=".49" stroke-width="3.33" d="M757.492 1575.67c-69.414-13.777-139.939-87.971-14.846-111.349 111.491-20.837 106.36-35.134 210.973-78.871 64.056-26.781 111.434 3.312 87.088 80.127-34.217 107.961-25.901 110.949 10.818 217.383 62.046 179.845-162.4 286.731-177.701 97.574-5.055-62.492-34.088-188.54-116.333-204.863Z"/>
    <path stroke="#fff" stroke-opacity=".49" stroke-width="3.89" d="M1282.49 1366.309c-141.891 35.124-191.064 83.18-166.566 267.819 6.851 51.635 106.84 170.717 134.898 144.906 40.789-37.523 13.533-124.632 132.329-146.98 51.364-9.663 178.37-24.444 185.998-252.738 2.999-89.765-88.453-32.578-209.798-29.74-40.14.939-38.936 5.234-76.861 16.734Z"/>
    <path stroke="#fff" stroke-opacity=".49" stroke-width="5.56" d="M-55.291 2451.698c62.273-122.576 163.874-144.374 242.74-93.579 170.241 109.646 195.086-106.312 117.169-93.734-5.677.916-68.198 42.166-154.115 6.191-58.307-24.415-87.19-109.444 19.96-93.734 4.108.602 101.728 24.399 121.662-18.482 8.124-17.476-23.888-168.168-80.153-137.033-37.986 21.021-24.435 39.579-95.316 74.059-87.961 42.788-79.186 79.337-176.111 66.824-11.247-1.452-86.242-11.134-109.059 90.551-13.508 60.197 65.797 152.789 113.221 198.936Z"/>
    <path stroke="#fff" stroke-opacity=".49" stroke-width="4.44" d="M872.06 1936.955c-27.985 139.759-86.7 96.214-63.256 253.298 3.331 22.318 39.893 267.293 214.101 183.632 115.023-55.238 23.597-147.201 138.099-190.48 63.087-23.845 146.352 5.724 95.491-116.09-41.851-100.235 47.736-108.969 13.549-149.16-30.343-35.672-119.114-139.604-200.93-37.794-65.528 81.541-183.682-10.192-197.055 56.594Z"/>
    <path stroke="#fff" stroke-opacity=".49" stroke-width="5.56" d="M1829.414 390.901c-5.577 3.52-61.42 38.768-54.935 61.463 12.737 44.572 71.97 5.398 153.025 73.223 95.829 80.186 109.39 17.688 157.298 19.844 51.06 2.298 41.131 124.765 194.334 143.807 33.676 4.186 124.273-26.939 125.603-130.135.899-69.755 1.091-69.583 19.831-136.585 22.709-81.195-79.633-51.584-87.342-49.353-59.256 17.145-59.597 15.355-121.377 11.403-91.309-5.84-95.476 139.657-147.029 58.261-36.92-58.293-109.036 2.34-147.132-58.172-16.079-25.54-65.457-10.683-92.276 6.245Zm15.076-290.215c-92.15 19.931 2.231 152.794 52.77 189.997 121.885 89.722 211.003-214.345-52.77-189.997"/>
    <path stroke="#faffff" stroke-opacity=".49" stroke-width="3.33" d="M3488.342 770.114c-75.34 151.377-6.516 427.952 141.31 214.72 113.255-163.365 309.254 181.727 357.94 15.428 33.168-113.295-71.435-112.989-94.596-262.704-18.834-121.749-194.349-18.551-224.524-39.195-99.279-67.92-169.116 49.621-180.13 71.751"/>
    <path stroke="#fff" stroke-opacity=".49" stroke-width="5.56" d="M4701.33 1048.518c-141.382-130.346-246.885-46.561-264.199-170.451-13.353-95.551 72.72-121.411 32.954-188.116-34.499-57.871-47.789-54.486-53.086-169.677-6.972-151.59-166.322-230.849-126.99-267.512 1.884-1.756 97.246-26.54 44.29-49.228-27.413-11.744-163.686 3.48-121.993-56.567 41.962-60.433 48.576-.95 148.903 10.459 31.557 3.588 58.857-27.156 62.786-5.153-3.694 98.527 61.298 29.106 104.668 35.32 67.86 9.722-14.663 131.721 104.534 211.274 217.142 144.922-52.004 296.468 96.233 394.241 30.385 20.041 156.8 35.815 128.898 154.703-24.099 102.684-141.559 98.506-156.999 100.708Z"/>
    <path stroke="#fff" stroke-opacity=".49" stroke-width="5.56" d="M4503.911-1.415c58.477 96.71-12.887 86.885-41.751 118.51-35.143 38.506 58.846 42.622 62.43 43.716 81.776 24.956 42.225 110.625 117.938 107.57 54.984-2.218 91.075-8.182 115.327-62.096 25.731-57.203-61.809-15.773-109.164-98.693-45.328-79.373 11.544-120.289-66.814-153.263-38.498-16.2-59.742 8.472-77.966 44.255ZM-7.749 2106.218c92.262 35.32 79.509-29.518 157.936-65.601 48.109-22.135 77.179-29.042 44.097-145.201-17.068-59.93-59.318-54.063-108.674-102.888-63.298-62.618-119.31 15.964-130.485 29.708-53.728 66.081-63.083 245.619 37.127 283.982Z"/>
    <path stroke="#faffff" stroke-opacity=".49" stroke-width="5.56" d="M2201.925-2.171c-13.944 12.813-167.687 129.214 32.832 184.826 149.416 41.439 217.283-47.045 372.162-30.766 158.885 16.7 217.987-86.361 162.022-159.181"/>
    <path stroke="#fff" stroke-opacity=".49" stroke-width="5.56" d="M1391.802 386.983c-54.885-55.425-64.696-189.053 99.494-105.207 113.047 57.729 230.443-7.777 165.302 82.128-9.197 12.694-102.586 94.294-32.787 168.13 82.902 87.697 315.254 26.981 279.666 136.041-29.851 91.479-206.895 19.345-257.535 27.138-102.932 15.841-185.433 164.72-256.571-24.456-50.777-135.029-143.31-92.275-127.605-174.581 18.413-96.501 207.705-23.856 130.036-109.194Z"/>
    <path stroke="#fff" stroke-opacity=".49" stroke-width="2.78" d="M941.949-14.154c-7.857 136.55-27.273 131.918-53.846 203.15-44.979 120.57 93.31 55.063 184.784 110.829 25.408 15.49 131.022 113.567 148.721-39.072 15.171-130.834 112.368-114.18 77.929-191.228-24.638-55.122-80.373-25.326-127.263-98.103-33.315-51.708-72.625-42.801-123.976-27.286-67.228 20.312-97.447 36.206-106.35 41.71Z"/>
    <path stroke="#fff" stroke-opacity=".49" stroke-width="5.56" d="M4008.86-18.862c5.527 26.058 6.29 51.009 45.233 79.065 70.778 50.991 209.118-136.292 79.274-128.784-136.286 7.881-115.65 30.019-124.507 49.718Z"/>
    <path stroke="#faffff" stroke-opacity=".49" stroke-width="3.33" d="M3348.841-6.449c10.236 64.128 26.391 70.828 143.951 74.59 61.579 1.971 79.811 19.936 119.212-3.455 38.883-23.084 37.433-31.101 45.717-74.593"/>
    <path stroke="#faffff" stroke-opacity=".49" stroke-width="5.56" d="M1426.055-28.638c48.261 182.739 12.051 254.299 201.202 258.309 87.162 1.848 162.23 35.201 113.923-37.978-55.563-84.171-56.706-85.667-62.98-186.51-6.041-97.089-58.793-111.42-139.77-142.087"/>
    <path stroke="#faffff" stroke-opacity=".49" stroke-width="3.33" d="M-23.396 532.168c122.268 40.958 128.181 43.394 182.579 6.53 80.599-54.62 88.193-38.099 173.085-84.962 68.659-37.901 129.043-13.043 156.592-74.454 38.829-86.556 45.431-84.489 130.801-125.331 107.286-51.328-99.91-72.855-169.811-145.793C355.732 9.951 385.802-74.973 168.799-52.749-56.337-29.693-191.566-12.56-124.26 329.616c28.996 147.411 108.135 128.28 93.462 277.758"/>
    <path stroke="#faffff" stroke-opacity=".49" stroke-width="4.44" d="M-76.234 808.369c25.097-38.487 63.259-121.56 197.412-175.28 54.015-21.63 312.928-40.346 239.658 174.68-31.028 91.059 77.029 190.132-78.544 207.938-82.501 9.443-56.016 42.975-57.248 71.611-3.001 69.777-116.371 16.27-140.99 12.628-83.722-12.385-123.924-.514-183.208 17.469"/>
    <path stroke="#faffff" stroke-opacity=".49" stroke-width="5.56" d="M2794.159-2.692c66.735 22.635 58.479 63.602 117.115 44.132 60.728-20.165 59.567-23.836 123.84-26.937 33.404-1.612 34.212-4.788 50.692-34.405"/>
    <path stroke="#fff" stroke-opacity=".35" stroke-width="3.33" d="M1931.523 1773.369c38.959-94.199 57.613-89.176 162.521-81.767 82.079 5.797 27.319-53.521 84.236-167.228 25.504-50.951-2.268-51.125-108.881-162.876-58.609-61.434-113.433 26.858-118.657 35.271-111.446 179.48-253.653-87.682-340.913 50.837-9.92 15.747-19.825 31.47-29.452 230.767-2.433 50.37 41.249 163.305-40.008 117.817-48.236-27.002-79.582-169.841-147.796-96.402-57.272 61.66 33.443 99.993-56.019 200.829-198.195 223.394 247.955 464.985 397.266 259.449 17.338-23.868 51.782-40.087 65.749-50.061 102.305-31.026 47.376-64.049 27.725-133.661-31.378-111.153 53.479-93.115 104.227-202.977Z"/>
  </g>
  <g fill="none">
    <path stroke="#faffff" stroke-opacity=".2" stroke-width="5" d="M2328.77 1186.776c-.607-.79-127.537-138.282-37.285-185.547 33.061-17.314 101.639-7.071 103.466 61.404 1.846 69.205-30.873 196.573 179.191 190.091 239.966-7.405 139.983 243.995-10.263 274.54-140.615 28.587-158.497-3.1-259.298 99.276-7.746 7.867-93.385 94.844-133.889 33.439-42.165-63.922 125.322-110.424-22.185-270.289-84.107-91.153 93.373-66.426 137.118-139.304 21.647-36.063 21.775-28.366 43.145-63.61"/>
    <path stroke="#fff" stroke-opacity=".49" stroke-width="3.33" d="M355.826 2564.139c-119.94 34.51-185.152 2.018-228.952 78.285-8.964 15.609-8.419 110.731 183.618 122.813 56.154 3.533 55.899 2.656 110.179 18.95 52.349 15.715 298.493-9.531 239.494-118.418-1.342-2.476-1.577-1.518-19.103-29.569-15.964-25.55-1.122-54.017-71.375-61.442-16.26-1.719-136.34-17.465-213.862-10.619Z"/>
    <path stroke="#fff" stroke-opacity=".49" stroke-width="2.78" d="M387.242 3402.739c-29.713-112.856-23.824-125.664 27.855-171.464 57.978-51.383-83.232-177.228 36.137-258.432 129.986-88.426 145.029 162.767 203.51 208.159 24.712 19.181 91.822 30.187 93.994 141.322 1.907 97.57-74.598 111.159-85.782 113.145-167.516 29.754-224.798 52.074-275.714-32.73"/>
    <path stroke="#fff" stroke-opacity=".49" stroke-width="3.33" d="M695.676 2796.325c-7.892 2.067-97.598 13.744-95.715 96.634 1.167 51.352 31.952 42.445 38.942 104.284 9.61 85.013 54.813 42.209 72.443 7.781 25.369-49.541 21.027-54.091 66.666-85.678 51.026-35.315 52.459-91.952 45.119-112.648-15.275-43.075-124.094-11.046-127.456-10.373Zm297.792 276.911c-81.934 248.454 197.453 103.582 224.54 74.515 10.257-11.007 118.071-198.551-17.95-282.33-88.793-54.69-131.101-85.568-154.823 16.003-9.488 40.626-7.548 82.008-15.601 106.95-2.121 6.569-4.949 15.326-35.587 78.606"/>
    <path stroke="#fff" stroke-opacity=".49" stroke-width="3.89" d="M1484.602 2350.927c-6.216-2.181-51.353-22.348-90.844-12.63-27.222 6.699-69.7 45.127 30.129 103.578 66.676 39.04 61.793 145.598 161.278 123.942 6.36-1.384 93.237-30.744 37.584-100.051-32.466-40.43-34.589-40.294-40.968-78.649-7.061-42.454-47.706-31.483-97.18-36.19Z"/>
    <path stroke="#fff" stroke-opacity=".15" stroke-width="3.89" d="M1604.905 957.408c-44.712 4.422-66.489-92.242-132.728-30.093-34.436 32.31 16.001 50.821-27.493 143.619-68.569 146.295 105.063 79.278 191.734 122.284 104.189 51.699 94.298-32.776 339.826-134.816 169.65-70.505 106.963-269.689 52.121-283.439-33.334-8.358-131.63 32.328-113.779 126.265 8.306 43.71 7.769 57.974-54.507 77.774-18.19 5.783-125.052 17.746-136.047-105.293-.542-6.069-6.516-72.913-65.787-38.371-52.334 30.499-41.212 79.777-39.525 87.251 6.204 27.486 4.747 32.983-13.815 34.819"/>
    <path stroke="#faffff" stroke-opacity=".49" stroke-width="5.56" d="M1514.642 3381.331c87.001-47.549 23.119-112.293 130.964-165.213 9.856-4.836 103.568-70.683 89.288 15.974-26.17 158.804 33.515 194.242-73.756 253.533-78.789 43.549-219.906 21.489-146.496-104.294"/>
    <path stroke="#faffff" stroke-opacity=".49" stroke-width="2.78" d="M1678.231 2738.789c53.939-11.832 44.166 28.391 167.142 18.74 57.579-4.519-15.826 50.387-90.03 130.944-62.461 67.809-86.891-27.593-108.388-65.918-19.871-35.425 6.772-69.612 31.276-83.766"/>
    <path stroke="#fff" stroke-opacity=".49" stroke-width="3.33" d="M-33.454 1392.169c97.074-80.955 134.466-14.532 223.432-102.975 76.439-75.989 230.058-137.451 275.365-125.026 127.134 34.864 66.827 207.013 60.675 224.577-45.133 128.835-2.161 149.052-95.965 249.576-188.15 201.628-219.876 18.195-328.899-12.935-84.49-24.125-208.844 39.376-211.429-150.116-.866-63.467 32.916-36.586 76.821-83.101"/>
    <path stroke="#fff" stroke-opacity=".49" stroke-width="2.78" d="M12.912 947.202c19.789 14.57 65.153 47.43 206.455-38.029 41.94-25.365 24.184-38.186 48.897-99.203 45.068-111.273-41.778-102.752-158.435-91.473C43.604 724.9-15.786 926.073 12.912 947.203Z"/>
    <path stroke="#fff" stroke-opacity=".49" stroke-width="5.56" d="M913.129 2531.974c-6.297 42.665-40.447 127.943 57.183 135.347 184.621 14.002 21.329-124.126 13.755-150.016-9.124-31.187 44.279-99.049-11.985-101.879-33.237-1.672-51.208 31.884-54.077 38.748-16.215 38.802 1.245 36.326-4.876 77.8"/>
    <path stroke="#fff" stroke-opacity=".49" stroke-width="2.22" d="M947.412 1423.05c-84.68 59.514-156.612 95.483-101.504 186.323 27.746 45.737 72.908 28.973 63.774 126.365-10.657 113.638 73.628 72.795 88.328 11.75 28.247-117.309-72.256-135.51-5.64-272.357 30.004-61.636-6.867-68.055-44.958-52.081"/>
    <path stroke="#fff" stroke-opacity=".49" stroke-width="2.78" d="M1283.541 1443.486c-78.305 5.584-170.074 138.224 20.11 139.937 74.104.667 151.761-49.167 151.126-91.323-.882-58.574-66.914-69.402-171.236-48.614"/>
    <path stroke="#fff" stroke-opacity=".49" stroke-width="5.56" d="M399.984 2203.638c-74.485 26.519-4.008 61.912-28.096 137.661-17.621 55.412 44.372 31.178 120.748 5.057 73.442-25.118 134.974-45.536 109.137-81.009-27.145-37.268-74.688-60.71-201.789-61.709M2207.58 427.771c-85.527 23.006-61.106 41.995-57.661 118 2.923 64.475 55.742 67.83 117.744 82.193 41.628 9.643 66.258 4.127 95.891-45.449 10.671-17.852 9.328-18.778 10.917-91.606.518-23.756-41.363-70.868-122.919-64.173-24.64 2.023-19.075-5.661-43.972 1.036Z"/>
    <path stroke="#fff" stroke-opacity=".49" stroke-width="2.78" d="M1867.413 133.894c-55.913 10.127 12.376 118.516 57.525 119.547 65.494 1.495 104.957-118.445-57.525-119.547"/>
    <path stroke="#faffff" stroke-opacity=".49" stroke-width="2.22" d="M3827.874 1565.742c106.051-28.45 13.759-85.574 33.358-124.586 2.916-5.805 76.912-73.487 90.979 13.281 9.383 57.875 11.265 58.093 46.465 100.126 55.385 66.136-71.279 167.177-123.127 74.67-19.924-35.549-12.106-23.625-41.824-42.624-10.814-6.914-18.275-16.607-5.851-20.868Z"/>
    <path stroke="#faffff" stroke-opacity=".49" stroke-width="3.89" d="M4371.321 1581.046c-92.731 72.904-28.861 128.577-8.043 158.13 26.565 37.712 83.95 17.989 57.991-37.403-26.252-56.018 15.466-57.462 8.637-109.226-6.881-52.159-67.254-7.147-71.87-3.706"/>
    <path stroke="#fff" stroke-opacity=".49" stroke-width="2.78" d="M4495.809 404.748c-21.195 50.412-41.332 232.163 40.187 227.507 5.529-.316 98.903-22.478 66.003-140.027-27.143-96.979-87.36-132.266-106.19-87.479Z"/>
    <path stroke="#fff" stroke-opacity=".49" stroke-width="5.56" d="M4683.584 918.072c-58.07-25.472-77.588-15.033-73.355-50.737 4.991-42.09-29.318-33.742-29.161-78.07.032-9.061 10.878-96.234 35.089-73.777 14.819 13.746 15.593 27.617 48.604 30.256 7.15.572 38.92-6.791 59.178 63.931 1.228 4.288 6.727 23.485-4.505 55.567-16.007 45.719-17.771 47.601-35.85 52.829Z"/>
    <path stroke="#fff" stroke-opacity=".49" stroke-width="2.22" d="M4437.767 19.47c-56.593 58.966 28.291 70.418 45.902 48.938 10.855-13.24 12.346-80.471-45.902-48.938"/>
    <path stroke="#fff" stroke-opacity=".49" stroke-width="5.56" d="M4702.079 285.685c-103.561 2.933-44.054 103.179 24.908 81.91 33.478-10.325 35.773-50.625 17.308-69.581-17.289-17.748-39.822-12.163-42.216-12.329"/>
    <path stroke="#fff" stroke-opacity=".49" stroke-width="2.78" d="M3778.928 1096.236c-38.254 72.712 8.118 112.304-25.784 165.104-45.661 71.114 282.189 86.19 236.644 3.18-28.864-52.607-112.961 18.12-122.555-96.526-.768-9.176-44.315-118.986-88.305-71.758"/>
    <path stroke="#fff" stroke-opacity=".49" stroke-width="3.89" d="M346.259 2030.88c50.146 46.337 63.117 51.586 140.495-4.573 68.316-49.582 280.292 12.814 206.099-107.754-63.948-103.919 67.704-185.243-56.475-221.687-8.834-2.593-158.624-27.203-161.541 48.878-5.037 131.405-22.223 115.307-126.677 164.458-88.949 41.856-22.209 99.52-1.901 120.678"/>
    <path stroke="#fff" stroke-opacity=".49" stroke-width="5.56" d="M-15.268 2052.508c83.287 66.307 113.57-19.837 147.072-32.687 3.128-1.2 75.083-13.004 38.18-79.717-37.989-68.677-34.896-78.117-109.752-100.962-2.085-.636-68.457-47.336-118.224 134.266-12.465 45.484 9.237 46.304 42.724 79.1"/>
    <path stroke="#faffff" stroke-opacity=".49" stroke-width="3.33" d="M2560.156-14.271c-1.003 6.302 3.517 24.897 3.724 25.873 5.333 25.155 21.15 108.47 88.683 112.731 45.589 2.876 116.93-63.049 61.638-127.245"/>
    <path stroke="#faffff" stroke-opacity=".49" stroke-width="5.56" d="M2239.837 3.072c-168.852 197.537 230.613 166.432 287.661 118.939 56.148-46.744-71.572-46.067-60.246-149.734"/>
    <path stroke="#fff" stroke-opacity=".49" stroke-width="2.22" d="M976.8 0c-66.343 226.474-15.522 241.052-10.366 243.283 38.39 16.609 41.794-7.839 131.47 11.183 81.796 17.351 73.449-17.239 143.593-108.249 35.522-46.089-31.14-20.972-95.063-87.595-47.632-49.644-66.087-20.601-118.926-65.372C983.555-43.992 979.772-4.83 976.8 0M724.105 356.203c-80.328 46.292-46.975 90.249-30.394 93.413 39.014 7.444 100.646-59.654 78.175-128.435-3.66-11.203-33.042 26.529-47.781 35.023Zm427.676 237.892c-23.51 15.135-106.995 104.066 10.206 119.246 61.603 7.979 164.036 28.366 100.649-49.653-64.292-79.133-93.642-84.381-110.855-69.594Z"/>
    <path stroke="#fff" stroke-opacity=".49" stroke-width="3.89" d="M977.194 413.578c-41.231 32.781 32.265 102.654 20.376 157.109-1.522 6.97-14.39 35.256 10.302 50.194 65.445 39.593 123.821-110.15 117.793-123.278-13.637-29.698-13.19-29.899-15.957-62.434-9.158-107.695-129.315-102.736-110.964-52.65 5.805 15.842 9.566 16.034 5.24 22.811-5.775 9.046-16.861.354-26.79 8.248"/>
    <path stroke="#fff" stroke-opacity=".49" stroke-width="4.44" d="M575.022-10.611C561.51 6.154 488.535 82.898 562.53 103.155c67.657 18.521 87.062-25.671 222.073-32.193 84.076-4.062 210.219-197.62-209.581-81.572Z"/>
    <path stroke="#fff" stroke-opacity=".49" stroke-width="2.78" d="M-24.606 362.484c65.077-17.751 54.242 61.34 152.358 43.953 31.448-5.573 215.914-54.189 252.004-136.235 35.249-80.135-27.008-98.2-105.448-151.333-84.858-57.48-154.832 48.506-276.515 42.067-4.925-.261-88.466-20.348-96.463 65.424-1.914 20.532 2.252 58.111 17.199 87.64 23.361 46.154 51.187 45.091 56.867 48.484Z"/>
    <path stroke="#fff" stroke-opacity=".49" stroke-width="5.56" d="M4333.924 2083.548c64.561-91.274 118.591 5.054 144.1 23.863 3.241 2.39 108.609 35.122 56.523 103.786-49.507 65.264-247.643-44.48-200.623-127.65Z"/>
    <path stroke="#fff" stroke-opacity=".49" stroke-width="2.78" d="M4669.742 1715.767c-18.443 19.41-79.176 99.44-81.374 117.971-.687 5.791-2.362 21.126 10.632 50.359 24.352 54.787 171.134 72.891 101.597-68.058-21.926-44.443 3.244-59.578 9.18-79.334.648-2.155-19.8-42.234-40.035-20.938"/>
    <path stroke="#fff" stroke-opacity=".49" stroke-width="3.89" d="M4539.418 1244.98c-47.071 93.076 29.204 116.625 25.389 163.179-.706 8.619-1.16 8.152-5.165 28.332-14.777 74.47 109.162 122.647 97.889-10.674-7.224-85.431 47.232-125.885 7.47-177.053-37.316-48.021-114.213-26.269-125.584-3.784Zm-303.062 45.884c-73.223 35.288-37.137 81.048 15.609 71.605 84.854-15.19 129.315.457 131.134-85.307 1.244-58.657-92.762-90.361-103.58-42.552-8.784 38.822-5.013 43.393-43.162 56.253Zm-152.106 272.738c-57.563 75.132 31.512 157.211 64.153 73.531 40.415-103.611 163.686-29.09 151.943-105.492-1.76-11.453-30.578-90.595-77.16-103.85-22.632-6.44-118.179-8.936-103.615 29.324 11.006 28.914 8.436 49.377-35.32 106.488Z"/>
    <path stroke="#fff" stroke-opacity=".49" stroke-width="2.22" d="M3668.33 175.233c-11.171-18.251 21.323-70.095 68.285-70.455 42.955-.329 53.108 57.535 19.033 80.573-39.498 26.705-80.698.697-87.318-10.119Z"/>
    <path stroke="#fff" stroke-opacity=".49" stroke-width="1.67" d="M4054.993-7.895c26.814 114.058 143.811-12.023 86.673-31.074-16.388-5.464-42.926.012-46.575.765-27.983 5.774-42.057 21.975-40.098 30.309"/>
    <path stroke="#fff" stroke-opacity=".49" stroke-width="2.78" d="M3949.471 351.293c-16.383-24.878-116.615-173.704 45.282-160.28 69.958 5.801-1.322 82.578 11.555 110.741 14.449 31.601 152.964 27.69 117.19 118.115-22.815 57.67-44.413 31.502-77.594 92.479-6.996 12.856-29.09 17.683-63.771 2.247-45.215-20.124-17.878-104.243-16.363-116.152 3.027-23.785-8.305-38.073-16.299-47.15"/>
    <path stroke="#fff" stroke-opacity=".49" stroke-width="2.22" d="M3494.49 268.249c-34.783 99.625 45.477 68.698 105.212 54.893 53.163-12.286 50.513-86.144 6.842-100.243-56.288-18.172-104.315 23.184-112.054 45.349Z"/>
    <path stroke="#fff" stroke-opacity=".49" stroke-width="2.78" d="M4025.186 824.457c2.8-15.245 19.519-157.827 103.969-74.983 58.632 57.518-32.373 97.827 4.167 154.77 23.992 37.389-68.515 24.464-87.948 11.556-43.618-28.973-23.128-75.334-20.188-91.343"/>
    <path stroke="#faffff" stroke-opacity=".49" stroke-width="2.78" d="M3375.599-20.221c8.832 97.496 66.674 42.571 128.466 58.493 9.17 2.363 110.64 45.215 133.025-46.848"/>
    <path stroke="#faffff" stroke-opacity=".49" stroke-width="1.67" d="M3132.324-4.614c3.237 26.855 4.129 93.093 131.15 61.237 90.01-22.574.9-62.796-3.843-64.937"/>
    <path stroke="#fff" stroke-opacity=".49" stroke-width="2.22" d="M1468.21-9.751c-7.813 42.906-6.04 49.225 33.35 68.257 34.297 16.571 14.57 85.965 76.574 80.955 122.593-9.906 67.589-213.696 5.577-139.095-2.849 3.427-48.262 85.333-70.343 6.105-16.509-59.235-43.671-19.635-45.158-16.222"/>
    <path stroke="#fff" stroke-opacity=".2" stroke-width="3.33" d="M999.541 1979.917c-42.186 44.641-54.753 45.485-58.794 105.45-4.31 63.955-6.847 57.744-36.89 113.909-49.439 92.429 76.188 105.947 109.823 42.319 26.69-50.492 7.559-70.069 74.209-98.186 54.305-22.909 117.945-57.909 91.499-130.68-23.46-64.552-159.208-54.651-179.847-32.812"/>
    <path stroke="#fff" stroke-opacity=".49" stroke-width="3.89" d="M1651.299 1579.437c-35.84 38.134-47.435 122.836-5.347 167.462 86.794 92.027 192.931 32.929 213.16 5.955 42.844-57.129-33.512-78.647-50.498-160.947-6.684-32.383-4.506-50.012-36.136-89.847-13.576-17.098-43.421-24.663-56.814 6.227-17.919 41.328-30.769 41.016-64.365 71.15"/>
  </g>
  <g fill="none">
    <path stroke="#fff" stroke-opacity=".49" stroke-width="4.44" d="M430.178 3353.57c4.909-109.014 76.459-83.505 90.008-154.222 13.32-69.521-100.729-42.173-67.821-135.341 18.239-51.636 109.501-55.074 135.419 40.362 16.701 61.496 4.946 72.033 58.799 105.617 1.674 1.044 68.589 23.998 28.731 120.298-5.031 12.155-15.413 91.701-147.199 64.962-14.742-2.991-31.959-2.033-72.844-6.508-23.982-2.625-26.206-10.448-25.093-35.169Z"/>
    <path stroke="#fff" stroke-opacity=".49" stroke-width="2.78" d="M1048.115 3020.262c-9.474 24.789-65.527 121.607 63.9 122.908 140.32 1.411 131.627-178.561 111.346-208.964-4.305-6.454-56.915-65.105-107.007-24.779-30.706 24.72-27.626 40.054-68.239 110.836Z"/>
    <path stroke="#fff" stroke-opacity=".3" stroke-width="3.33" d="M2308.924 1329.618c-20.948 12.504-57.88 38.49-45.004 94.874 18.155 79.505 119.992 37.145 224.671 15.185 22.925-4.809 25.471-51.933-47.543-47.962-55.607 3.024-61.855-1.073-83.149-52.609-12.421-30.059-22.58-28.904-48.974-9.489Z"/>
    <path stroke="#fff" stroke-opacity=".15" stroke-width="3.89" d="M2028.314 1116.437c-2.472 1.877-79.461 47.413-88.077 125.05-7.216 65.022 162.456 85.906 190.624 20.745 8.276-19.144 18.674-223.291-102.547-145.795"/>
    <path stroke="#fff" stroke-opacity=".35" stroke-width="4.44" d="M1551.627 1022.145c-56.305-3.341-61.178 65.412 25.74 77.672 55.041 7.764 54.462 9.92 109.29 17.943 78.715 11.519 86.938-81.186 60.004-97.175-47.796-28.374-115.742-5.917-125.259-2.772-37.733 12.471-38.427 11.272-69.776 4.332Zm409.835-195.615c-36.633 47.81-34.824 55.13-16.715 89.618 23.991 45.69-64.558 92.586-16.403 101.275 1.92.346 137.659 3.218 117.615-76.577-14.179-56.444 22.703-63.509.113-98.062-30.008-45.9-75.045-28.735-84.609-16.254Z"/>
    <path stroke="#fff" stroke-opacity=".15" stroke-width="3.89" d="M-10.725 1059.765c64.753-61.498 83.304-22.227 163.831-60.923 49.593-23.831 49.201-24.754 102.879-35.39 122.346-24.24 44.918-95.014 65.383-155.003 1.694-4.964 62.096-90.121-65.362-141.529-45.34-18.287-174.585 1.792-218.321 45.389-86.18 85.904-177.415 240.225-48.41 347.455Z"/>
    <path stroke="#fff" stroke-opacity=".49" stroke-width="2.22" d="M287.573 1380.759c-102.634 40.619-35.483 100.426 14.481 166.153 31.023 40.811 131.926 50.498 124.915-76.521-5.481-99.286 8.684-119.407-15.218-135.198-28.391-18.756-79.364 14.202-124.177 45.566Z"/>
    <path stroke="#fff" stroke-opacity=".25" stroke-width="4.44" d="M1415.219 1873.675c-110.952 80.719-105.013 254.385-13.704 280.885 16.92 4.911 135.11 23.702 151.935-24.209 11.802-33.609-11.884-53.043 60.857-90.8 5.051-2.622 56.257-17.032 34.561-85.087-3.018-9.466-17.82-55.896-101.139-72.076-68.221-13.248-108.382-26.266-132.51-8.713"/>
    <path stroke="#fff" stroke-opacity=".49" stroke-width="2.78" d="M1753.688 1588.784c-71.82 16.287-107.603 88.946-40.311 141.101 9.653 7.481 94.747 34.991 92.452-29.176-1.629-45.558-31.977-116.499-52.141-111.926Z"/>
    <path stroke="#fff" stroke-opacity=".49" stroke-width="3.33" d="M2093.489 1464.85c-19.503 54.079-32.592 99.496-141.43 139.501-103.4 38.006 97.692 92.636 145.38 42.631 38.826-40.713 24.961-48.062 48.871-118.436 7.307-21.508-.793-39.885-11.746-58.052-13.741-22.792-32.749-28.728-41.075-5.643Z"/>
    <path stroke="#faffff" stroke-opacity=".2" stroke-width="3.33" d="M3488.977 1129.609c-49.697 45.849 63.919 195.649 66.519 245.892 2.061 39.829-11.762 53.09 41.538 77.83 69.075 32.062 65.615 72.557 123.826 41.791 60.782-32.124 68.062 55.34 92.954 21.478 39.997-54.409-144.266-191.848-99.511-198.66 25.093-3.819 69.964 81.956 201.062 45.403 140.81-39.261 139.276-163.637 86.637-164.807-66.855-1.485-72.737-8.727-91.239-73.256-3.38-11.79-26.831-93.58-122.842-91.724-88.033 1.702-63.006 96.091-60.513 105.495 23.357 88.09-43.353 72.138-116.271 93.982-108.054 32.37-65.49-116.373-122.162-103.424Z"/>
    <path stroke="#fff" stroke-opacity=".49" stroke-width="5.56" d="M4682.933 938.344c-123.908-22.348-170.291 20.365-166.493-55.725 3.022-60.541 66.756-102.647 35.266-194.544-21.401-62.454-102.586-28.769-92.205-144.625 8.115-90.569-18.617-100.342 12.782-178.973 21.347-53.459 122.359 49.113 127.923 71.628 33.591 135.938 64.761 68.018 53.196 153.603-17.034 126.057 71.564 104.449 107.403 187.648 53.954 125.253-20.909 131.637-77.871 160.989Z"/>
    <path stroke="#fff" stroke-opacity=".49" stroke-width="2.78" d="M487.918 1851.205c44.684-70.501 11.564-147.213 98.644-132.958 109.647 17.95 86.374 66.723 82.537 74.764-16.582 34.751-36.109 44.183-20.587 127.393 18.042 96.716-88.28 18.775-225.88 98.183-65.949 38.059-112.419-76.782-38.184-100.596 53.257-17.084 65.385-17.21 103.47-66.786"/>
    <path stroke="#faffff" stroke-opacity=".49" stroke-width="2.78" d="M2584.92-21.076c-4.414 87.849 63.771 109.676 86.941 104.617 59.333-12.955 7.515-77.142-5.535-110.386"/>
    <path stroke="#faffff" stroke-opacity=".49" stroke-width="1.67" d="M2286.174-.315c-9.225 11.346-80.575 78.561-8.635 121.806 16.059 9.653 67.265 28.846 118.82 14.041 35.286-10.133 34.839-11.416 71.489-15.504 42.048-4.69 22.153-34.111 4.422-57.65-39.695-52.698-52.541-56.767-51.615-83.058"/>
    <path stroke="#fff" stroke-opacity=".15" stroke-width="5.56" d="M2199.876 735.772c-87.162 35.833-104.203 228.916-58.371 266.921 63.822 52.921 140.147-46.018 148.773-50.04 40.922-19.085 131.71 69.808 207.001-24.433 57.677-72.194-18.094-234.066-105.546-226.514-33.908 2.928-32.786 9.757-114.148 16.298-46.622 3.748-32.748 2.908-77.709 17.769Z"/>
    <path stroke="#fff" stroke-opacity=".49" stroke-width="1.67" d="M638.087-8.122c-86.955 20.628-40.217 58.812-35.389 61.411 35.227 18.965 164.498 8.427 169.135-56.283.705-9.836-20.369-97.251-133.746-5.128"/>
    <path stroke="#fff" stroke-opacity=".49" stroke-width="2.22" d="M-59.25 220.842c160.571-10.563 195.408-60.053 267.53-46.955 166.916 30.315 64.087 211.11-89.267 140.215-143.05-66.131-154.233-1.348-198.119-20.388-46.881-20.339 15.109-69.135 19.857-72.873Z"/>
    <path stroke="#fff" stroke-opacity=".1" stroke-width="5.56" d="M4676.993 1618.334c-62.453 58.42-70.651 53.867-84.096 100.747-18.692 65.174-59.155 60.874-71.437 98.308-1.387 4.228-2.415 8.988-3.011 14.441-6.501 59.442 140.535 166.508 182.747 161.858 123.855-13.641 120.125-255.057 87.75-304.574-55.814-85.367-107.106-70.757-111.952-70.781Z"/>
    <path stroke="#fff" stroke-opacity=".49" stroke-width="1.67" d="M4346.251 889.803c-73.228 128.814 121.186 149.714 125.761 148.907 14.618-2.581 50.151-34.403-7.307-75.434-61.504-43.92-93.383-117.575-118.454-73.473"/>
    <path stroke="#fff" stroke-opacity=".25" stroke-width="3.89" d="M3658.64 356.65c-102.286 70.562 9.219 140.338 43.488 84.348 21.294-34.791 4.398-225.58 143.554-181.621 97.032 30.652 48.137 140.63 42.997 152.191-36.188 81.396 20.995 80.702 47.796 119.462 24.977 36.122 39.631 141.407 122.422 101.636 63.859-30.677-32.169-86.925 9.501-130.049 18.45-19.094 156.235-119.286 34.098-185.811-107.802-58.717 8.194-198.016-85.704-179.823-68.05 13.185-80.793 20.466-114.864-40.487-44.829-80.198-153.064-31.161-124.406-9.377 4.59 3.489 139.592 73.074-11.327 123.196-19.904 6.611-61.951 16.506-73.727 59.482-11.675 42.609 4.488 52.402-33.828 86.851Z"/>
    <path stroke="#fff" stroke-opacity=".15" stroke-width="5.56" d="M3482.304 838.186c23.267-29.015 84.797-42.273 127.306 55.93 7.703 17.795 9.057 61.293-3.215 83.067-15.231 27.026-94.664 80.649-112.626 8.242-6.104-24.606-35.75-116.956-11.465-147.24Z"/>
    <path stroke="#faffff" stroke-opacity=".49" stroke-width="1.67" d="M3457.448-53.275c38.745 71.993 58.729 78.755 66.708 81.455 8.581 2.904 110.415 14.045 83.422-55.462"/>
    <path stroke="#faffff" stroke-opacity=".49" stroke-width="1.11" d="M909.681-45.45c-53.877 190.277-27.139 218.393-132.405 265.402-20.716 9.251-92.53 41.321-181.951 217.536-45.592 89.845 85.614 187.676 130.698 129.328 47.594-61.597 34.003-74.447 107.712-119.684 29.706-18.231 108.91-94.279 105.414-12.759-2.263 52.764-29.136 49.368-19.833 120.903 7.461 57.371-149.937 36.403-86.472 149.096 33.394 59.297 34.451 62.656 12.665 127.94-18.09 54.211 34.173 151.159 161.62 64.791 100.513-68.116 186.412 43.212 73.159 104.738-11.067 6.013-87.419 31.965-57.736 87.607 2.726 5.109 82.253 113.856 196.577 79.961 153.917-45.633 175.275-126.316 96.482-126.589-7.27-.025-142.973 58.358-122.958-63.186 9.239-56.103 81.218-112.093-46.431-163.769-6.929-2.805-102.299-6.564-74.764-49.714 52.22-81.834 155.095 37.045 224.938 25.725 61.596-9.983 122.545-95.197-5.742-163.018-.251-.133-93.565-35.473-117.77-106.286-46.482-135.986 168.339-137.276 133.606-227.912-20.462-53.396-46.429-70.997 25.003-121.963 18.401-13.129 160.145-101.699-64.772-196.53"/>
  </g>
  <g fill="none">
    <path stroke="#fff" stroke-opacity=".49" stroke-width="2.22" d="M282.835 2661.908c-6.888-.603-85.785-5.316-73.673 39.077 11.681 42.813 105.326 42.122 131.003 26.879 10.585-6.284 48.238-74.98-57.331-65.956Zm255.101-27.958c-111.589 28.161-9.056 93.243 13.559 92.721 43.65-1.008 51.494-32.112 47.191-48.65-9.369-36.01-34.665-50.654-60.75-44.071"/>
    <path stroke="#fff" stroke-opacity=".49" stroke-width="2.78" d="M-14.856 3036.395c27.166 44.383 113.133 36.561 128.226 92.765 13.314 49.581-63.156 16.698-131.765 52.653-60.416 31.661-85.159-38.064-62.504-87.782 36.682-80.501 58.505-60.917 66.043-57.635Z"/>
    <path stroke="#fff" stroke-opacity=".49" stroke-width="2.22" d="M193.699 3201.983c-97.197 21.589 19.489 60.079 24.1 61.774 51.231 18.831 63.328 39.358 84.04 26.544 5.976-3.697 87.562-129.201 5.088-86.07-48.223 25.219-51.619-12.844-113.228-2.248"/>
    <path stroke="#fff" stroke-opacity=".49" stroke-width="3.89" d="M66.894 3339.524c21.093-92.244 124.717-66.652 142.353-6.426 27.093 92.522-149.772 66.536-142.353 6.426m388.377-4.913c68.662-57.927 111.186-140.445 158.156-91.184 5.57 5.842 75.149 109.939-20.27 113.197-116.388 3.975-133.29-12.169-137.885-22.013Z"/>
    <path stroke="#fff" stroke-opacity=".49" stroke-width="2.22" d="M498.901 3065.547c-47.447 18.153-1.4 84.572 43.978 81.639 44.411-2.87 13.957-103.805-43.978-81.639m-351.074-639.57c-6.725.473-85.582-4.273-96.482 56.485-8.525 47.522 53.428 41.763 59.173 41.229 92.466-8.595 103.628-96.07 37.308-97.715Zm982.816 515.66c-18.66 16.206-62.945 45.516-32.233 102.868 21.374 39.914 119.492 36.388 109.107-46.505-8.212-65.551-30.321-69.03-76.873-56.363Zm66.276-328.175c23.662-45.999 107.829-76.331 132.252 31.109 19.891 87.5 61.425 159.67-37.596 135.254-15.973-3.939-120.342-42.416-94.656-166.363m235.317 313.941c-28.152 54.021 1.977 122.882 62.95 121.91 57.039-.909-9.031-132.048-62.95-121.91m120.172-466.736c-49.816 31.502-6.876 79.058 27.167 67.939 12.173-3.976 55.677-65.297-27.167-67.939"/>
    <path stroke="#fff" stroke-opacity=".49" stroke-width="2.78" d="M1576.052 2633.307c-25.467 14.169-54.923 30.773-48.952 82.528 5.18 44.898 102.054 66.092 116.09-7.388 14.571-76.282-52.648-72.677-67.138-75.14m-278.289 712.463c-35.547-141.623 62.009-131.854 82.816-101.739 30.262 43.801 10.933 203.447-82.816 101.739"/>
    <path stroke="#fff" stroke-opacity=".49" stroke-width="2.22" d="M2335.745 1040.348c-97.974-5.195-6.129 87.167 9.244 89.235 6.617.89 50.919-58.192-9.244-89.235"/>
    <path stroke="#fff" stroke-opacity=".2" stroke-width="2.78" d="M2032.297 1164.897c-65.28 35.505-71.572 83.571-4.04 88.746 113.922 8.73 89.193-59.492 71.824-77.897-26.176-27.736-63.303-11.845-67.784-10.85Z"/>
    <path stroke="#faffff" stroke-opacity=".49" stroke-width="2.22" d="M1731.594 2807.595c-55.471 47.893-18.133 63.145 2.654 55.617 71.495-25.894 123.112-137.891-2.654-55.617"/>
    <path stroke="#fff" stroke-opacity=".49" stroke-width="1.67" d="M262.092 1426.543c-10.754 61.485 45.242 73.035 77.067 90.35 23.988 13.051 90.342 29.578 63.435-62.3-10.676-36.454 17.496-84.573-45.331-74.824-13.473 2.091-89.986 17.133-95.17 46.774Z"/>
    <path stroke="#fff" stroke-opacity=".25" stroke-width="2.78" d="M574.837 892.721c-73.122 38.663 35.787 106.186 46.01 122.181 18.883 29.546 24.373 44.598 72.126 17.25 43.469-24.894 57.232-30.898 33.69-75.374-35.542-67.147 2.068-75.507-.592-105.225-1.036-11.578-33.321-50.301-58.002-3.986-25.912 48.624-41.199 27.638-93.232 45.154"/>
    <path stroke="#fff" stroke-opacity=".49" stroke-width="2.78" d="M31.233 906.413c-.564 21.385-6.657 57.603 81.537 34.334 100.858-26.611 63.708-65.376 83.852-102.473 6.367-11.725 106.82-93.703 17.174-98.952-76.027-4.451-113.95-24.465-151.187 42.785-17.195 31.055-31.001 114.23-31.375 124.306Zm78.971 515.836c-124.641-1.185-97.425 116.416-42.446 129.769 77.952 18.931 159.591-113.651 42.446-129.769"/>
    <path stroke="#fff" stroke-opacity=".49" stroke-width="2.22" d="M186.106 2199.416c-64.239 2.202-46.74 51.093-7.084 56.251 66.362 8.631 87.176-19.376 80.738-34.748-1.696-4.049-13.395-23.568-73.654-21.503m239.602 39.903c-96.346 22.215 21.172 138.77 83.66 69.489 24.093-26.712 9.625-90.998-83.66-69.489"/>
    <path stroke="#fff" stroke-opacity=".49" stroke-width="1.67" d="M556.324 2100.03c-7.415 3.514-40.674 19.501-50.846 38.174-36.072 66.213 144.579 45.694 153.565 20.665 7.787-21.69-48.738-80.134-102.718-58.839Zm173.334-51.019c-17.913 4.463-71.95 13.565-63.174 39.276 15.139 44.351 99.668 41.545 114.312-61.849 2.674-18.88-6.939-26.557-19.308-11.956-15.375 18.151-11.567 29.481-31.831 34.529Z"/>
    <path stroke="#fff" stroke-opacity=".49" stroke-width="2.78" d="M1026.478 1989.514c-94.359 31.962-9.308 128.838 79.984 108.902 65.557-14.637 78.493-59.508 49.63-86.83-31.24-29.572-84.621-30.684-129.614-22.072"/>
    <path stroke="#fff" stroke-opacity=".1" stroke-width="3.89" d="M1349.188 2028.162c.585-25.708 50.727-138.917 156.76-108.973 16.741 4.728 108.506 40.459 69.645 89.73-22.108 28.03-30.21 23.454-47.477 76.855-3.037 9.394-27.411 84.776-107.836 60.006-79.11-24.365-71.94-80.362-71.092-117.619Z"/>
    <path stroke="#fff" stroke-opacity=".49" stroke-width="2.22" d="M2322.535 1379.195c-60.568 2.1-32.881 54.02-4.933 59.496 3.926.769 47.044 9.217 47.24-16.417.207-27.011-37.789-41.371-42.307-43.079"/>
    <path stroke="#fff" stroke-opacity=".49" stroke-width="1.67" d="M2023.194 451.562c-31.635-21.987-169.736-.94-84.174 50.926 13.899 8.425 88.15 38.878 108.958 2.048 10.731-18.995-4.465-38.851-24.784-52.974"/>
    <path stroke="#fff" stroke-opacity=".49" stroke-width="2.22" d="M1898.26 158.44c-37.972 23.797 1.033 63.777 27.928 53.221 42.974-16.867-1.046-70.067-27.928-53.221"/>
    <path stroke="#faffff" stroke-opacity=".49" stroke-width="2.22" d="M3898.025 1547.483c-25.23 31.746-27.628 49.396 23.967 72.889 55.814 25.414 66.664-18.605 62.61-34.828-9.462-37.862-63.708-37.063-86.577-38.061"/>
    <path stroke="#fff" stroke-opacity=".49" stroke-width="1.67" d="M4515.724 460.068c-14.696 22.618-41.088 111.431 17.823 114.811 70.25 4.03 14.967-165.276-17.823-114.811"/>
    <path stroke="#fff" stroke-opacity=".49" stroke-width="2.78" d="M4681.245 891.672c-29.54-19.651-52.636-32.821-51.555-80.743.751-33.272 48.369-42.804 63.276-25.255.817.962 32 62.936-11.722 105.998Z"/>
    <path stroke="#fff" stroke-opacity=".49" stroke-width="2.22" d="M3795.626 1137.608c-2.622 4.963-26.774 41.349-2.546 55.197 53.035 30.315 38.463-95.631 2.546-55.197M431.092 1931.649c-54.355 31.542-.896 42.98 2.4 43.391 9.042 1.128 8.802-1.854 112.77-15.975 53.982-7.332 21.397-34.76 31.115-58.933 1.74-4.329 63.715-74.042 26.012-108.541-12.821-11.732-44.428-.915-59.688 41.769-8.521 23.834-9.813 38.154-46.029 59.319-34.226 20.002-28.496 16.87-66.58 38.97"/>
    <path stroke="#fff" stroke-opacity=".49" stroke-width="2.78" d="M44.216 1878.434c-76.143 90.146-24.807 175.352 55.132 138 30.013-14.023 96.386-25.277 41.382-90.06-31.769-37.417-47.341-68.936-96.514-47.94"/>
    <path stroke="#faffff" stroke-opacity=".49" stroke-width="2.22" d="M2616.224-9.624c-2.387 1.414 3.439 47.337 19.933 50.365 10.975 2.015 16.832-20.522 3.585-43.254m-337.001 60.364c-55.524 28.105 34.839 80.761 85.645 59.53 95.818-40.041 34.22-94.207 1.922-96.41-43.543-2.97-70.449 28.215-87.566 36.88Z"/>
    <path stroke="#fff" stroke-opacity=".49" stroke-width="1.67" d="M997.545 38.953c-41.194 73.177-39.654 177.113 25.89 167.632 5.052-.731 10.484-2.135 16.306-4.28 41.774-15.386 42.209-22.932 84.768-9.51 81.296 25.638 78.094-63.554 5.108-88.302-7.251-2.459-51.919-33.6-74.312-45.444-26.597-14.068-42.226-47.694-57.761-20.097Z"/>
    <path stroke="#fff" stroke-opacity=".25" stroke-width="1.11" d="M899.692 638.053c3.62 76.111 34.844 81.982 9.906 125.428-10.603 18.473-55.773 65.981-39.135 102.402 15.657 34.274 162.738 60.383 122.757-55.793-22.752-66.112 28.386-98.653 9.33-134.867-25.954-49.323-103.808-57.156-102.858-37.169Z"/>
    <path stroke="#fff" stroke-opacity=".49" stroke-width="1.67" d="M126.416 221.419C9.55 319.244 291.663 306.401 261.497 241.697c-27.171-58.28-105.229-45.266-135.081-20.278"/>
    <path stroke="#fff" stroke-opacity=".49" stroke-width="2.22" d="M4428.198 2131.33c-92.92 17.557 14.846 85.159 60.634 60.655 21.113-11.299-18.544-68.607-60.634-60.655"/>
    <path stroke="#fff" stroke-opacity=".49" stroke-width=".56" d="M4681.524 1646.884c-77.739 61.188-58.382 76.077-80.825 115.581-17.943 31.584-105.507 47.856-19.936 136.643 29.915 31.04 110.713 86.817 151.319 42.344 102.11-111.835-12.632-190.024-40.071-281.681-5.279-17.636-7.311-5.646-8.472-6.228"/>
    <path stroke="#fff" stroke-opacity=".49" stroke-width="1.67" d="M4569.441 1258.009c-38.825 38.079-2.111 61.278 33.501 113.321 22.614 33.047 36.712-7.97 34.245-44.787-5.42-80.895-44.497-83.831-67.746-68.534"/>
    <path stroke="#fff" stroke-opacity=".49" stroke-width="2.22" d="M4155.351 1121.489c-3.855 101.054 86.268 51.715 93.437 5.576 12.278-79.017-90.998-109.387-93.437-5.576m47.858 346.946c-69.15 65.411 19.755 88.594 42.848 84.001 37.735-7.505 7.299-72.858-42.848-84.001"/>
    <path stroke="#fff" stroke-opacity=".49" stroke-width="1.67" d="M4010.987 372.524c-18.735 13.952-59.537 101.636-14.216 118.344 30.719 11.325 96.748-49.032 105.01-78.714 10.431-37.477-37.489-79.326-90.794-39.63m-504.03 468.925c-38.007 17.049-8.112 104.963 4.659 114.203 17.055 12.34 108.776 13.036 60.052-69.588-9.603-16.284-44.365-53.742-64.711-44.615m91.643-122.935c-.449.492-39.287 30.266 29.987 80.285 60.903 43.975 93.242 25.704 88.612-2.039-4.872-29.193-100.659-97.904-118.599-78.245Zm166.642 99.717c-48.097 22.772-33.945 49.127-25.495 66.882 10.179 21.387 200.462 109.104 97.737-3.93-64.168-70.608 17.02-101.866-19.582-124.337-11.74-7.207-36.269-3.753-44.847 15.889-9.156 20.965 12.329 35.958-7.814 45.495Z"/>
    <path stroke="#fff" stroke-opacity=".49" stroke-width="2.22" d="M4060.066 789.974c-24.368 95.524 22.085 79.276 27.866 76.308 27.201-13.969 40.786-66.8 27.25-94.733-8.422-17.381-44.376-24.144-55.117 18.425ZM146.963 1028.707c-66.133 7.685-46.249 49.473-14.405 53.026 81.723 9.118 83.484-42.437 62.92-57.134-21.599-15.436-23.371-4.827-48.515 4.108"/>
  </g>
  <g fill="none">
    <path stroke="#fff" stroke-opacity=".49" stroke-width="2.22" d="M73.383 1452.564c-61.2 51.857 8.753 86.052 42.783 62.824 37.897-25.867-.715-98.47-42.783-62.824"/>
    <path stroke="#fff" stroke-opacity=".2" stroke-width="2.22" d="M623.071 935.189c-67.47 35.553 82.524 113.727 69.508 42.519-.716-3.915-5.192-28.401-29.612-39.972-18.635-8.829-19.341-4.619-39.896-2.547"/>
    <path stroke="#fff" stroke-opacity=".49" stroke-width="1.67" d="M57.401 879.107c2.392 27.101-3.266 74.317 58.85 42.922 42.413-21.437 36.415-29.364 43.722-76.115 8.915-57.034 50.726-63.253 25.448-84.499-8.315-6.989-90.605-32.425-109.399 34.133-9.651 34.177-21.026 56.313-18.621 83.559"/>
    <path stroke="#fff" stroke-opacity=".49" stroke-width="2.22" d="M119.465 803.251c-31.177-1.616-47.487 36.82-28.316 72.814 11.485 21.563 39.559 3.955 41.348-12.896 1.854-17.46 6.35-58.914-13.033-59.919Zm226.828 629.228c-90.21-35.926-69.072 25.467-44.472 42.644 84.3 58.862 105.727-15.814 44.472-42.644"/>
    <path stroke="#fff" stroke-opacity=".49" stroke-width="2.78" d="M1437.524 1972.453c-57.026 31.982-115.21 72.542-44.074 136.061 28.213 25.192 86.629 35.233 114.748-68.043 24.391-89.582-67.643-68.239-70.673-68.018Z"/>
    <path stroke="#fff" stroke-opacity=".49" stroke-width="2.22" d="M84.095 1919.845c-74.056 45.77-12.864 68.255 18.526 67.473 52.755-1.314 5.671-82.428-18.526-67.473m4558.003-112.536c-47.287 20.045-47.525 80.411 22.322 97.182 15.212 3.652 29.881 2.694 9.272-59.986-9.16-27.861-11.707-45.626-31.595-37.196Z"/>
    <path stroke="#fff" stroke-opacity=".05" stroke-width="5.56" d="M3924.447-15.717c-39.613 25.142-54.751 38.466-27.893 76.876 6.842 9.784 26.267 33.292 32.671 39.186 46.732 43.004 153.427-8.285 54.497-79.745-26.433-19.093-27.646-29.633-34.407-38.778-9.311-12.594-12.781-7.636-24.868 2.461"/>
    <path stroke="#faffff" stroke-opacity=".49" stroke-width="2.22" d="M3524.343-53.669c.073 1.496-2.621 77.233 48.585 64.796 24.175-5.872 25.21-26.386 25.596-27.437"/>
  </g>
</svg>
