<svg xmlns="http://www.w3.org/2000/svg" xmlns:xlink="http://www.w3.org/1999/xlink" fill="none" viewBox="0 0 167 146">
  <g fill="#F5F5F6" clip-path="url(#a)">
    <path d="M166.34 2.32A4.65 4.65 0 0 0 162.33 0H4.64C2.98 0 1.45.88.62 2.32c-.83 1.43-.83 3.2 0 4.64l3.89 6.74a4.65 4.65 0 0 0 4.02 2.32h134.08L83.48 118.44 40.66 44.28a4.65 4.65 0 0 0-4.01-2.32c-1.65 0-3.19.88-4.01 2.32l-3.89 6.74c-.83 1.43-.83 3.2 0 4.64l50.72 87.86a4.65 4.65 0 0 0 4.01 2.32c1.65 0 3.19-.88 4.01-2.32L166.34 6.95c.83-1.43.83-3.2 0-4.64z"/>
    <path d="M104.22 34.4a2.6 2.6 0 0 0-.93-.93c-.38-.22-.81-.34-1.26-.34h-1.9.03-.06.03-35.19c-.9 0-1.74.48-2.19 1.26a2.54 2.54 0 0 0 0 2.53L81.3 69.05c.45.78 1.29 1.26 2.19 1.26.45 0 .89-.12 1.26-.34.38-.22.7-.53.93-.93l18.55-32.13c.45-.78.45-1.75 0-2.53z"/>
  </g>
  <defs>
    <clipPath id="a">
      <path fill="#fff" d="M0 0h166.96v145.83H0z"/>
    </clipPath>
  </defs>
</svg>
