<svg version="1.2" xmlns="http://www.w3.org/2000/svg" viewBox="0 0 585 175" width="585" height="175"><style>.a{paint-order:stroke fill markers;stroke:#000;stroke-width: 8;stroke-linejoin: round;;fill:#fff}</style><path class="a" d="m196.4 11.7l2.1 0.6q1 0 2.5-1.5 1.5-1.7 2.6-1.7 1.2 0 3.3 1.4 2.1 1.2 2.1 2.2 0 2.4-11 15.8-10.9 13.2-24 28.3-13 15.2-24 30.6-10.9 15.3-11 21.3 0 10.2 1.5 15.6l0.5 1.5q0 1.1-2.6 1.1-2.5 0-4-0.3-1.4-0.5-3.3-1.7-3.6-2.4-5.1-12.7 0-5 0.9-9.2 0.9-4.3 4.2-10.3 3.5-6 6.6-10.8 3.3-4.8 11.4-14.6 10.7-12.7 23.9-27.4 13.2-14.9 14.4-16.2 1.3-1.5 1.3-1.8 0-0.3-8.5 7.3-8.4 7.5-29.3 27-20.7 19.5-25.6 25.4-19.7 22.5-24.2 29.2-0.8 2-2.7 2-1.8 0-3.3-2.6-2.5-4.3-2.5-10.9 3-11 11.7-27.6 8.7-16.8 19.3-33l7.1-9.2q1-1.6 1-2.1l-0.1-0.1q-0.2 0-11.6 12.3-11.4 12.3-13.5 14.7l-32.1 35.1q-19.1 20.8-27.5 25.1-14.5 4.8-17.5 5.4-1.7 0-1.7-0.6 0-0.6 1.5-1.9 22-22.4 27.5-27.8 1.2-0.7 19.7-18.7 18.4-18.1 39.4-37.5 21.2-19.3 30-24.1 5.9-1.8 8.7-1.8 3 0 3 1.6 0 1.1-1.3 2.4-22.7 32.4-26.6 41l-9.1 17.2q-0.5 1.1-0.5 1.5 0 0.9 0.3 0.6 11.9-9.6 31.1-27 19.3-17.4 29.5-25.2 10.2-7.9 15.5-7.9zm20.5 48.9q7 0.7 7 3.1 0 1.1-1.2 2.4-21.1 23.6-48.6 60-8 10.8-16.2 20.4-8.3 9.6-15.5 14.1-7.2 4.4-15 4.4-3.9 0-6.9-2.1-3-2.1-3-5.7 0-8.4 8.1-17.4 8.1-9 18.2-14.6 10-5.7 17.4-6.6l3.1 0.5q1.5-0.2 11-11.6 9.6-11.4 9.6-12 0.2-0.7-0.1-0.7l-2.9 2.2q-11.2 10.5-17.5 10.5-4.1 0-4.1-5.7 0-7.6 12.5-24.1 12.4-16.5 18.3-16.5 0.4 0 1 0.3 4.2 1 4.2 3 0 0.7-0.4 1.2-0.3 0.3-3 2.8-2.6 2.6-5.1 5.4-2.6 2.7-5.4 6-6.5 7.5-6.5 11.3 0 0.9 0.9 0.9 1.1 0 3.8-1.7 21.3-14.5 33.3-27.7 1-2.1 3-2.1zm-91.6 97.8q5.3-1.7 14.1-10.2 8.9-8.7 15.2-16.4l6.3-7.8q0.9-1.2 0.9-1.5 0-0.3-0.5-0.3-4.8 0-13.8 7.4-8.8 7.3-15.9 16-6.9 8.7-6.9 12.3 0 0.5 0.6 0.5zm95.1-129q14.6-10.1 33.2-15.9 18.6-5.9 30.7-5.9 12.2 0 19.5 2.7 7.5 2.6 10.8 6.6 5.6 6.9 5.6 12 0 6.2-8.6 14.4-4.3 4.2-12.3 9.3l-1.6 0.9q-1.1 0.3-1.1 0.9l0.9 0.8q5.9 2.4 8.9 5.7 3.1 3.3 3.1 9.7 0 8.9-7.9 17-7.8 7.9-18.5 12.9-10.6 4.8-20 7.6-9.3 2.9-13.3 2.9-3.9 0-7.1-0.9-3.1-1.1-5.1-2.4-4-2.9-5.6-5.9-0.6-0.7-1.1-0.7-1 0-3.9 6.6-2.9 6.6-3 6.6v-0.2q-0.5 1.5-1.5 1.5-2.4 0-4.7-4.3-2-4.5-2-6.9 0-2.6 3-8.4 3-6 6-10.2l3-4.2q3.4-7.5 28.5-31.4 25-23.8 28.3-23.8 1.5 0 2.4 1 1.1 0.9 1.7 2.9 0 1.2-1.4 1.9l-21.1 22.8q-0.3 0.6-0.3 0.9 0 0.2 0.4 0.2 3.3 0 15-5.1 11.7-5.1 22.7-12.5 11.1-7.3 11.1-12.1 0-5.3-21-5.3-13.4 0-26.4 3-12.9 2.9-22.2 7.1-9.2 4-16.5 8.5-7.4 4.5-11 7.8-3.6 3.3-3.6 4.2 0 0.9 0.8 0.9 4.8 0 15.7-5.1 11.1-5.2 13.5-6.9 2.4-1.8 3-1.8 0.8 0 1.2 0.8-5.5 9.1-15.3 15.6-9.6 6.3-15 6.3-5.4 0-9-4.4-3.4-4.5-3.4-7.8 0-10 14.5-19.9zm81.8 35.4q0-1.5-2-2.4-1.8-0.9-3.7-1.1h-2q-9.4 0-24 4.2-4.9 1.4-6.1 1.4-1.2 0-2.1-0.9-0.8-0.9-1.2-1.7-0.3-0.9-1.1-0.9-0.9 0-1.9 1.1l-26 34.6v0.2q0.8 1.3 3 1.3h1.8q11.3 0 26.9-6.1 15.6-6.3 27-14.9 11.4-8.7 11.4-14.8zm50.3-1.1q-3.9 0-13.2 8.1-9.3 8-9.3 9.8 0 0.3 0.5 0.3 3.3 0 13-7.4 9.9-7.3 9.9-10 0-0.8-0.9-0.8zm-32 48q-11.5 0-11.5-14.1 0-8.8 7.7-18.7 7.8-10.1 18.3-16.4 10.5-6.4 18.6-6.4 3.6 0 6.6 2.8 3.1 2.9 3.1 5.6 0 4.9-7 11.2-7.1 6.2-14.9 10.1-7.6 3.7-10.2 3.7-2.4 0-3.6-2.2-0.6-0.5-1.6-0.5-1.1 0-3.5 4.1-2.4 3.9-2.4 6.4 0 2.4 1.8 3 11.4 0 24.8-6.6 13.3-6.7 36.9-23.5 1.6-1.2 4.9-3.6 3.5-2.4 4.1-2.9 1.3 1.1 1.3 2.6 0 1.5-1.3 2.7-7.5 7.5-19.5 16.8-11.9 9.3-27.3 17.7-15.5 8.2-25.3 8.2zm56.7-7.2q5 0 15-5.7 10.2-5.8 18.2-12.6 8.1-6.7 8.1-9.4 0-0.5-0.5-0.5-3.3 0-13.9 6.8-10.5 6.6-19.5 13.5-9 6.7-9 7.3 0 0.6 1.6 0.6zm38.1-63.3q1.7 0 3.6 2.6 2 2.4 2 3.6 0 1.2-0.5 1.6-10.3 9-20.1 18.9-9.7 9.9-14.4 15.3l-4.5 5.4q-1.2 1.2-1.2 1.7 0 0.4 0.3 0.4 0.3 0 0.8-0.4l1.3-1.1q24.6-21.9 38.3-21.9 1.8 0 3.3 1.1 5.1 4.2 5.1 9.6 0 5.2-7.7 13.5-7.5 8.2-18.6 14.5-11.1 6.2-18.6 6.2-7.4 0-9.7-3.9l-1.7-2.4q-0.1-0.2-0.4-0.2-3.3 0-22 21-18.4 21-23.7 30.5-0.6 2.7-2.4 2.7-0.9 0-1.6-0.6l-6.8-5.3q-0.6-0.3-0.6-1.3 0-1.8 22.7-29.4 22.8-27.8 47.7-54.9 24.9-27.2 29.4-27.2zm21.9 63.3q5 0 15-5.7 10.2-5.8 18.2-12.6 8.1-6.7 8.1-9.4 0-0.5-0.5-0.5-3.3 0-13.9 6.8-10.5 6.6-19.5 13.5-9 6.7-9 7.3 0 0.6 1.6 0.6zm38.1-63.3q1.7 0 3.6 2.6 2 2.4 2 3.6 0 1.2-0.5 1.6-10.3 9-20.1 18.9-9.7 9.9-14.4 15.3l-4.5 5.4q-1.2 1.2-1.2 1.7 0 0.4 0.3 0.4 0.3 0 0.8-0.4l1.3-1.1q24.6-21.9 38.3-21.9 1.8 0 3.3 1.1 5.1 4.2 5.1 9.6 0 5.2-7.7 13.5-7.5 8.2-18.6 14.5-11.1 6.2-18.6 6.2-7.4 0-9.7-3.9l-1.7-2.4q-0.1-0.2-0.4-0.2-3.3 0-22 21-18.4 21-23.7 30.5-0.6 2.7-2.4 2.7-0.9 0-1.6-0.6l-6.8-5.3q-0.6-0.3-0.6-1.3 0-1.8 22.7-29.4 22.8-27.8 47.7-54.9 24.9-27.2 29.4-27.2zm54.2 22.5q-3.9 0-13.2 8.1-9.3 8-9.3 9.8 0 0.3 0.5 0.3 3.3 0 13-7.4 9.9-7.3 9.9-10 0-0.8-0.9-0.8zm-32 48q-11.5 0-11.5-14.1 0-8.8 7.7-18.7 7.8-10.1 18.3-16.4 10.5-6.4 18.6-6.4 3.6 0 6.6 2.8 3.1 2.9 3.1 5.6 0 4.9-7 11.2-7.1 6.2-14.9 10.1-7.6 3.7-10.2 3.7-2.4 0-3.6-2.2-0.6-0.5-1.6-0.5-1.1 0-3.5 4.1-2.4 3.9-2.4 6.4 0 2.4 1.8 3 11.4 0 24.8-6.6 13.3-6.7 36.9-23.5 1.6-1.2 4.9-3.6 3.5-2.4 4.1-2.9 1.3 1.1 1.3 2.6 0 1.5-1.3 2.7-7.5 7.5-19.5 16.8-11.9 9.3-27.3 17.7-15.5 8.2-25.3 8.2z"/></svg>