<?xml version="1.0" encoding="UTF-8" standalone="no"?><!DOCTYPE svg PUBLIC "-//W3C//DTD SVG 1.1//EN" "http://www.w3.org/Graphics/SVG/1.1/DTD/svg11.dtd"><svg width="100%" height="100%" viewBox="0 0 3840 2160" version="1.1" xmlns="http://www.w3.org/2000/svg" xmlns:xlink="http://www.w3.org/1999/xlink" xml:space="preserve" xmlns:serif="http://www.serif.com/" style="fill-rule:evenodd;clip-rule:evenodd;stroke-linecap:round;stroke-linejoin:round;stroke-miterlimit:1.5;"><rect x="0" y="0" width="3845.494" height="2160" style="stroke:#fff;stroke-width:8.14px;"/><g id="Silhouette"><path d="M2119.809,282.554c15.013,-212.281 161.348,-171.201 157.915,-160.743c-8.129,24.765 -112.448,13.014 -58.834,73.587c17.74,20.042 -24.577,43.686 -36.927,74.382c-16.407,40.775 -5.922,118.051 -47.217,54.679c-10.827,-16.615 -12.9,-1.024 -27.005,12.866c-2.474,-26.498 0.112,-10.359 12.069,-54.771Z" style="fill:none;stroke:#faffff;stroke-opacity:0.75;stroke-width:3.25px;"/><path d="M2177.701,537.145c-9.08,-21.009 -46.434,-117.585 -50.399,-127.837c-1.86,-4.809 -21.424,-55.391 -1.317,-64.316c14.305,-6.349 43.433,65.582 55.948,-3.574c1.5,-8.289 11.023,-60.907 40.279,-97.473c11.71,-14.636 12.877,27.375 3.589,55.222c-13.316,39.925 -13.972,41.707 1.865,74.846c27.019,56.537 -31.537,298.867 -49.965,163.132Z" style="fill:none;stroke:#faffff;stroke-opacity:0.75;stroke-width:3.25px;"/><path d="M1869.079,2137.002c-78.182,8 -79.206,-2.39 -155.301,16.731c-62.523,15.71 -61.938,-46.687 -61.878,-53.16c0.305,-32.513 -7.176,-31.841 -4.36,-64.187c3.42,-39.29 24.51,-43.841 -3.49,-76.507c-47.366,-55.258 19.242,-45.791 77.773,-119.936c9.872,-12.505 60.435,-47.307 16.462,-51.541c-37.835,-3.643 -113.469,18.78 -93.297,-49.448c13.87,-46.913 -49.306,-60.668 -11.209,-128.922c19.521,-34.973 39.999,-92.354 148.566,-75.497c64.688,10.044 2.646,45.691 -0.692,47.609c-50.983,29.293 -63.015,88.277 0.332,66.613c7.353,-2.515 106.469,-55.9 85,48.726c-11.588,56.475 90.03,37.046 61.243,78.718c-12.825,18.566 -27.437,22.58 -8.291,34.223c118.672,72.169 -76.078,67.878 -60.911,124.122c15.811,58.631 142.583,-6.508 162.476,6.267c26.62,17.095 -32.731,56.949 -2.621,62.371c7.943,1.43 153.689,-18.586 112.323,30.444c-32.08,38.023 -117.193,6.633 -161.778,76.535c-22.597,35.428 -63.8,24.15 -100.347,26.839Z" style="fill:none;stroke:#faffff;stroke-opacity:0.75;stroke-width:4.07px;"/><path d="M1663.138,1421.985c-18.044,110.33 153.483,22.523 163.497,123.828c2.677,27.08 -45.013,67.167 9.541,74.791c59.96,8.38 76.408,8.672 73.07,68.931c-3.416,61.684 123.611,80.673 114.783,32.167c-12.627,-69.388 -23.934,-66.23 -41.592,-183.215c-18.952,-125.555 -56.946,-106.068 -77.984,-138.131c-15.159,-23.104 56.384,-57.328 -11.344,-73.832c-115.827,-28.224 14.007,-33.734 17.052,-33.591c52.058,2.446 -13.595,-62.719 29.275,-109.524c31.997,-34.935 91.277,53.434 116.486,-8.729c16.926,-41.739 12.346,-43.995 40.912,-78.613c19.479,-23.606 -12.985,-42.253 -57.785,-13.263c-52.504,33.975 -64.49,9.177 -128.245,47.425c-46.992,28.192 -58.805,-27.028 -86.639,12.313c-17.852,25.232 -52.444,84.446 -86.487,120.417c-43.771,46.25 32.302,62.288 2.791,99.779c-7.871,10 -23.124,17.161 -21.444,33.177c2.642,25.188 -47.246,9.388 -55.888,26.07Z" style="fill:none;stroke:#faffff;stroke-opacity:0.75;stroke-width:2.03px;"/><path d="M2193.841,1761.313c-6.66,0.585 -99.042,-5.644 -169.239,35.073c-32.145,18.645 -22.05,31.685 -44.763,66.382c-8.034,12.273 -12.927,15.981 -0.037,23.408c3.413,1.966 7.139,3.35 10.648,5.144c9.606,4.912 16.599,17.998 32.066,20.556c22.267,3.683 23.255,0.964 41.652,13.575c34.347,23.545 55.448,-9.847 101.84,26.829c78.695,62.214 100.178,-37.365 109.451,-52.084c37.477,-59.486 51.146,40.607 51.492,41.47c5.338,13.327 37.318,45.319 78.566,41.996c50.07,-4.034 -24.14,92.347 53.414,103.901c73.686,10.977 75.795,-12.081 147.688,7.554c42.844,11.701 58.24,-3.75 50.937,-6.652c-2.144,-0.852 -25.719,-10.22 -24.07,-15.769c7.189,-24.191 67.212,-14.217 73.073,-13.243c39.383,6.544 53.756,-15.631 57.751,10.691c0.125,0.822 -3.132,51.3 35.374,31.579c59.734,-30.593 -20.182,-78.869 -27.696,-95.73c-11.362,-25.496 1.925,-39.495 -34.733,-61.288c-41.089,-24.427 -15.258,-34.182 -12.307,-34.321c10.247,-0.483 88.487,76.327 121.503,67.473c30.875,-8.279 -35.624,-35.222 -52.333,-56.717c-2.59,-3.332 -49.449,-85.26 4.041,-65.166c2.455,0.922 56.002,32.027 58.855,6.875c0.697,-6.14 -50.978,-84.027 -52.088,-85.054c-28.968,-26.775 -46.582,6.384 -136.088,-27.953c-78.088,-29.957 -102.444,8.189 -166.002,-2.603c-39.275,-6.669 -39.239,-7.545 -78.303,-1.041c-35.682,5.941 -32.962,-54.216 -49.726,-33.941c-9.631,11.649 16.025,54.863 -10.641,51.547c-20.571,-2.558 -14.258,-74.356 -68.233,-58.605c-39.19,11.436 -23.11,56.115 -102.092,56.115Z" style="fill:none;stroke:#faffff;stroke-opacity:0.75;stroke-width:3.25px;"/><path d="M2956.311,2162.429c-27.071,-85.146 -109.941,-36.379 -116.457,-109.649c-3.988,-44.845 63.384,-59.858 20.103,-104.641c-47.074,-48.708 -22.005,-56.482 -17.232,-57.356c16.569,-3.033 64.826,50.973 46.91,3.057c-4.502,-12.039 -61.079,-110.65 -5.613,-105.395c36.667,3.474 29.494,72.002 105.562,46.023c87.28,-29.808 86.62,-42.726 177.84,-30.132c80.862,11.164 99.093,-26.306 70.513,-36.435c-37.257,-13.204 -54.856,-20.303 -28.66,-49.778c32.732,-36.83 45.551,-53.098 -11.99,-92.179c-25.951,-17.625 -17.839,-46.63 -82.037,-33.156c-8.533,1.791 -110.733,39.737 -65.732,-47.663c118.694,-230.526 229.403,-157.088 232.082,-96.56c2.85,64.395 -0.195,74.32 63.912,103.777c49.325,22.665 32.246,49.196 85.015,62.983c65.443,17.098 11.346,121.435 29.936,216.993c5.653,29.059 30.157,99.696 -23.896,186.158c-31.481,50.357 -51.702,31.637 -90.937,87.809c-39.405,56.414 -68.404,3.78 -123.716,45.17c-70.928,53.076 -226.297,21.059 -265.603,10.973Z" style="fill:none;stroke:#faffff;stroke-opacity:0.75;stroke-width:2.44px;"/><path d="M2436.485,1578.642c-8.196,73.01 -4.877,73.03 -1.357,106.587c5.427,51.747 -42.238,-3.629 -56.914,-5.601c-21.801,-2.93 -13.591,35.208 -29.915,25.715c-52.385,-30.468 -60.195,-268.566 -100.931,-229.002c-31.414,30.509 27.926,101.252 29.482,125.969c0.301,4.786 3.616,57.43 -24.965,54.658c-20.66,-2.004 11.895,-62.655 -50.918,-50.302c-3.342,0.657 -42.481,8.354 -42.567,-1.653c-0.045,-5.25 51.065,-35.206 -0.984,-42.685c-53.551,-7.694 -62.057,73.999 -98.137,26.875c-92.334,-120.599 -65.677,-162.339 -103.113,-181.836c-28.989,-15.098 -31.004,-21.226 -17.022,-50.391c13.591,-28.35 -33.884,-37.818 -9.457,-50.747c4.281,-2.266 9.671,-19.679 12.774,-23.364c22.002,-26.128 -10.159,-75.664 49.772,-64.216c51.263,9.792 99.363,80.277 106.487,-15.761c2.131,-28.735 -17.149,-50.475 0.092,-81.792c16.291,-29.589 23.188,-22.13 25.589,-67.498c1.846,-34.874 39.06,-38.975 61.089,-23.837c19.785,13.596 20.368,41.332 43.027,30.041c63.969,-31.875 59.22,-127.209 73.376,-124.145c45.445,9.838 50.751,-4.709 67.458,12.602c21.624,22.405 16.532,6.162 35.745,45.903c18.005,37.241 -50.612,87.228 -60.855,118.992c-14.501,44.965 8.243,79.715 25.985,119.764c13.485,30.44 41.824,203.311 48.878,233.42c7.956,33.958 21.391,82.878 17.379,112.306Z" style="fill:none;stroke:#faffff;stroke-opacity:0.75;stroke-width:3.25px;"/><path d="M2745.071,1072.267c7.796,-106.452 59.064,-167.822 108.83,-109.627c30.647,35.837 43.164,81.072 86.94,74.172c46.588,-7.344 53.134,-7.49 76.059,32.854c44.013,77.457 122.935,-3.399 122.996,61.645c0.036,38.098 6.119,47.019 49.15,40.963c37.957,-5.342 46.149,13.721 58.777,-0.131c1.515,-1.662 28.11,-48.352 62.595,-40.644c25.134,5.617 37.556,45.083 23.668,73.937c-1.133,2.354 -26.513,34.157 -10.223,47.753c2.321,1.937 43.766,23.548 22.152,41.426c-30.936,25.589 -39.992,21.705 -43.138,61.182c-3.958,49.657 -39.522,-4.782 -139.593,14.986c-109.782,21.686 -70.668,92.258 -126.294,119.37c-47.584,23.193 -61.137,16.571 -69.901,70.686c-18.14,112.011 -147.381,167.877 -178.247,156.526c-19.162,-7.047 -33.78,-46.194 -68.316,-31.948c-56.738,23.404 -57.274,22.174 -118.671,21.032c-38.389,-0.714 -136.904,29.734 -132.382,-27.153c5.318,-66.9 100.185,10.674 169.146,-139.864c26.327,-57.47 -21.123,-68.529 22.977,-150.83c100.868,-188.244 81.134,-284.396 83.473,-316.334Z" style="fill:none;stroke:#faffff;stroke-opacity:0.75;stroke-width:3.25px;"/><path d="M2512.298,1308.056c-76.436,92.528 -54.126,123.168 -35.605,238.963c20.34,127.164 134.213,36.442 143.138,-32.219c9.793,-75.335 -15.793,-82.543 33.306,-160.693c55.679,-88.624 7.141,-107.183 -22.207,-89.144c-3.279,2.016 -33.888,25.995 -46.291,29.405c-32.911,9.05 -34.62,7.755 -72.341,13.687Z" style="fill:none;stroke:#faffff;stroke-opacity:0.75;stroke-width:4.07px;"/><path d="M2409.722,1040.586c38.329,47.644 80.553,26.992 74.665,85.844c-4.511,45.097 29.092,37.005 30.431,82.152c0.291,9.809 -6.801,50.578 12.696,63.964c6.608,4.537 15.571,10.69 77.077,-63.813c38.329,-46.429 -13.113,-65.037 25.143,-110.847c69.776,-83.555 73.378,-80.065 104.655,-111.301c67.682,-67.593 63.638,-130.121 52.697,-124.318c-39.917,21.173 -21.359,100.135 -163.45,142.628c-86.072,25.741 -162.789,-10.35 -206.364,18.667c-6.64,4.421 -11.917,10.4 -7.549,17.023Z" style="fill:none;stroke:#faffff;stroke-opacity:0.75;stroke-width:3.66px;"/><path d="M2244.208,196.603c-53.23,-51.572 37.483,-35.767 51.937,-69.233c6.871,-15.909 5.549,-59.067 81.067,-65.003c57.557,-4.524 69.248,50.376 36.695,92.069c-53.669,68.737 -21.415,88.466 -82.805,150.129c-35.856,36.015 -95.394,26.247 -80.394,-14.888c5.872,-16.104 29.852,-24.781 28.69,-44.266c-0.866,-14.517 -16.934,-28.361 -35.19,-48.809Z" style="fill:none;stroke:#faffff;stroke-opacity:0.75;stroke-width:3.25px;"/><path d="M2461.789,78.64c6.722,62.171 -59.936,94.611 -71.064,161.626c-1.012,6.096 -8.097,54.669 77.523,11.016c119.455,-60.904 135.032,-2.99 243.348,93.371c42.53,37.836 41.943,137.632 92.652,123.246c69.275,-19.653 -60.149,-159.019 -72.502,-207.623c-21.355,-84.024 31.737,-134.174 -106.884,-171.521c-88.123,-23.742 -169.171,-66.512 -163.073,-10.115Z" style="fill:none;stroke:#faffff;stroke-opacity:0.75;stroke-width:3.25px;"/><path d="M2248.253,454.278c0.648,-77.663 24.017,-69.355 96.394,-132.542c29.818,-26.032 208.914,-46.508 257.186,-15.908c10.878,6.896 107.577,81.35 127.812,136.812c31.693,86.867 -18.916,140.063 25.546,281.265c31.625,100.434 22.422,146.23 -111.781,230.262c-39.391,24.665 -196.813,58.092 -276.739,-53.396c-55.717,-77.719 -26.961,-26.812 -98.12,-91.862c-107.573,-98.337 -46.937,-243.288 -21.712,-339.603c0.51,-1.949 0.935,-13.121 1.415,-15.029Z" style="fill:none;stroke:#faffff;stroke-opacity:0.75;stroke-width:3.66px;"/><path d="M2032.383,2158.11c-0.837,-12.23 35.682,-8.409 69.149,-44.935c21.329,-23.278 44.74,24.346 105.508,-35.497c23.149,-22.796 36.904,-76.727 116.755,-42.286c45.43,19.594 -19.823,40.997 1.323,74.45c20.572,32.544 116.649,4.591 66.584,70.705c-26.088,34.45 -66.118,50.223 -255.453,15.201c-85.112,-15.743 -102.259,-14.172 -103.866,-37.638Z" style="fill:none;stroke:#fff;stroke-opacity:0.61;stroke-width:4.07px;"/></g><g id="Silhouette-Medium"><path d="M2440.261,2031.527c-17.015,53.901 87.906,52.117 68.098,25.992c-2.471,-3.259 -25.622,-23.377 -16.113,-41.062c12.986,-24.152 35.971,-2.656 80.087,-34.856c15.146,-11.055 16.172,-8.745 69.307,-17.133c49.508,-7.815 63.627,48.549 95.922,30.627c25.453,-14.125 -18.877,-39.067 -22.145,-40.906c-52.342,-29.451 -44.799,-101.777 15.554,-77.721c20.087,8.006 16.574,-12.665 8.637,-23.912c-14.956,-21.192 -11.549,-22.7 -10.488,-48.439c1.048,-25.417 -43.448,-31.424 -114.885,-37.808c-18.225,-1.629 -150.37,-1.036 -153.23,-0.423c-67.346,14.423 2.731,66.682 -17.682,122.745c-6.187,16.992 -25.642,37.782 -14.388,70.433c10.991,31.891 13.392,35.792 11.325,72.461Z" style="fill:none;stroke:#fff;stroke-opacity:0.61;stroke-width:2.03px;"/><path d="M2921.155,1937.797c5.416,-49.397 -32.178,-69.803 -13.246,-77.796c29.835,-12.596 50.639,81.937 97.187,27.843c27.483,-31.938 58.58,6.797 105.704,18.912c52.212,13.423 12.343,56.092 34.609,77.697c3.918,3.802 31.765,20.627 22.563,40.711c-4.32,9.429 -46.106,36.074 -121.528,-17.823c-21.931,-15.672 -51.282,-45.813 -62.467,-8.878c-3.821,12.62 -2.672,91.439 -53.797,60.322c-41.59,-25.314 -37.922,-66.964 -37.345,-73.517c2.059,-23.372 -13.135,-21.522 -8.797,-44.593c3.568,-18.98 32.919,-3.74 37.118,-2.88Z" style="fill:none;stroke:#fff;stroke-opacity:0.61;stroke-width:4.07px;"/><path d="M3277.456,2036.619c-12.735,-3.841 -31.168,5.875 -46.757,1.084c-25.044,-7.697 -43.935,-31.218 -63.094,-61.38c-18.35,-28.888 11.744,-31.686 40.14,-100.563c7.608,-18.453 -7.934,-57.106 30.821,-48.551c29.999,6.622 27.685,21.451 64.57,14.586c29.961,-5.577 29.935,7.482 60.231,2.446c50.359,-8.372 63.585,51.472 65.082,58.245c5.163,23.362 28.53,70.796 -56.094,142.092c-31.426,26.477 -35.537,9.946 -94.9,-7.958Z" style="fill:none;stroke:#fff;stroke-opacity:0.61;stroke-width:3.25px;"/><path d="M2967.912,2128.543c-12.44,-24.397 11.77,-116.971 116.144,-72.924c42.265,17.836 56.291,8.492 73.418,11.717c75.51,14.216 65.602,77.916 -12.978,86.394c-57.184,6.17 -169.275,-3.154 -176.584,-25.187Z" style="fill:none;stroke:#fff;stroke-opacity:0.61;stroke-width:4.07px;"/><path d="M1967.21,1362.48c7.462,21.145 29.628,-2.583 70.112,5.923c36.829,7.737 36.602,10.804 74.047,5.446c73.023,-10.449 74.104,47.352 100.371,26.723c5.172,-4.062 41.44,-52.921 62.815,7.315c0.342,0.964 17.015,97.546 75.937,74.564c10.34,-4.033 44.049,-17.182 29.325,-133.948c-11.07,-87.785 -102.792,-99.853 -40.266,-267.504c26.802,-71.865 -42.464,-60.521 -78.756,-25.813c-29.524,28.235 -30.962,27.998 -72.157,31.883c-25.829,2.436 -48.829,18.312 -45.979,77.369c0.818,16.956 26.463,58.426 -17.132,140.331c-42.408,79.676 -141.835,-88.852 -162.134,6.971c-5.377,25.381 -2.278,25.352 3.817,50.741Z" style="fill:none;stroke:#fff;stroke-opacity:0.61;stroke-width:2.03px;"/><path d="M1893.245,2169.963c37.529,-48.65 59.476,-0.758 120.743,-33.379c12.963,-6.902 48.521,-23.822 33.707,-31.875c-14.35,-7.801 -26.947,-9.433 -13.6,-18.917c22.022,-15.647 81.142,-3.642 123.74,-59.598c17.752,-23.319 24.531,12.268 37.37,3.257c2.808,-1.971 0.915,-4.043 32.196,-28.234c16.202,-12.53 -17.823,-2.312 -19.307,-1.866c-1.307,0.393 -28.186,8.465 -16.533,-4.243c20.103,-21.924 57.274,-2.193 72.533,-44.431c1.308,-3.621 19.946,-55.212 32.815,-35.529c13.567,20.749 -48.405,68.241 5.585,93.802c26.51,12.551 53.551,-9.147 65.862,28.154c7.807,23.653 5.297,29.415 30.166,33.383c30.079,4.799 13.889,38.177 48.644,37.136c61.759,-1.85 63.45,-20.244 166.828,10.117c77.348,22.716 79.729,-7.074 138.551,3.304c45.835,8.087 45.706,11.602 91.573,4.487c99.671,-15.461 103.4,91.874 -1.219,104.858c-179.89,22.324 -267.133,-26.979 -700.431,-3.936c-143.859,7.65 -262.98,21.331 -249.224,-56.491Z" style="fill:none;stroke:#faffff;stroke-opacity:0.61;stroke-width:2.44px;"/><path d="M2305.235,1949.758c-16.516,26.18 -10.39,31.96 17.484,47.204c29.355,16.054 63.656,6.749 42.183,-9.912c-17.467,-13.553 -43.214,-2.549 -50.256,-18.645c-2.893,-6.613 4.12,-40.095 -9.41,-18.647Z" style="fill:none;stroke:#faffff;stroke-opacity:0.61;stroke-width:4.07px;"/><path d="M2974.841,1730.32c-4.469,6.381 -47.804,85.525 84.863,48.948c63.163,-17.414 82.051,23.283 125.893,1.936c31.496,-15.336 -24.936,-33.698 -0.352,-58.636c2.611,-2.649 49.971,-30.041 33.953,-62.415c-7.107,-14.363 -26.636,-16.817 -37.509,-34.177c-0.655,-1.046 -15.601,-39.437 -38.023,-18.352c-17.722,16.665 -19.572,15.981 -43.823,11.751c-21.45,-3.741 -16.753,8.835 -65.359,46.818c-23.757,18.565 -22.477,22.497 -59.642,64.128Z" style="fill:none;stroke:#faffff;stroke-opacity:0.61;stroke-width:2.85px;"/><path d="M3188.467,1412.572c-11.549,4.959 -88.654,45.384 -91.821,113.384c-2.69,57.744 74.041,-5.723 107.652,57.809c32.88,62.148 81.257,59.476 51.529,109.307c-1.999,3.35 -47.816,43.379 -9.898,56.249c66.39,22.532 49.236,-58.273 80.993,-52.022c46.953,9.243 6.698,92.362 72.431,117.004c48.183,18.063 49.056,-92.864 -0.148,-131.468c-22.158,-17.385 -51.203,-26.138 -16.325,-41.006c62.103,-26.474 -80.591,-66.495 -100.73,-94.379c-22.012,-30.477 1.432,-186.122 -93.682,-134.88Z" style="fill:none;stroke:#faffff;stroke-opacity:0.61;stroke-width:4.07px;"/><path d="M2673.296,1157.053c-18.642,-104.049 36.225,-111.24 49.325,-81.847c15.84,35.543 -45.051,226.295 -49.325,81.847Z" style="fill:none;stroke:#faffff;stroke-opacity:0.61;stroke-width:4.07px;"/><path d="M2967.388,1062.542c-24.269,6.194 -101.166,21.615 -24.691,43.894c51.017,14.863 4.958,60.11 1.295,63.708c-80.936,79.508 -20.13,144.151 -80.596,212.528c-8.022,9.072 -51.412,58.139 -44.806,143.802c3.753,48.667 83.114,38.884 78.535,2.251c-4.445,-35.556 3.14,-35.718 34.41,-53.335c67.548,-38.056 50.435,-178.843 93.761,-151.789c26.962,16.836 -4.544,117.813 38.168,82.464c35.464,-29.35 -30.979,-71.476 33.036,-123.165c12.69,-10.246 50.606,-28.742 16.901,-100.647c-32.823,-70.025 -65.656,-38.798 -115.651,-98.209c-15.475,-18.39 -15.933,-25.185 -30.362,-21.502Z" style="fill:none;stroke:#faffff;stroke-opacity:0.61;stroke-width:4.07px;"/><path d="M2221.833,1772.131c-47.723,13.176 -108.858,-8.039 -180.551,23.404c-41.563,18.229 -46.103,94.615 -9.985,101.133c32.608,5.885 32.247,6.203 63.673,16.205c45.128,14.364 48.405,7.338 87.025,34.941c31.122,22.244 98.737,-42 80.467,-93.877c-27.672,-78.573 -26.586,-82.501 -40.629,-81.807Z" style="fill:none;stroke:#faffff;stroke-opacity:0.61;stroke-width:2.44px;"/><path d="M2221.402,1788.009c-9.76,-12.453 -191.645,4.085 -191.493,67.503c0.113,47.07 59.354,6.874 138.305,67.451c61.294,47.029 120.702,-48.811 53.187,-134.954Z" style="fill:none;stroke:#faffff;stroke-opacity:0.75;stroke-width:2.03px;"/><path d="M2374.502,1819.336c-23.334,14.841 -61.047,39.373 -35.796,100.579c17.266,41.853 74.904,70.954 66.847,7.869c-9.514,-74.49 23.664,-80.239 6.332,-105.138c-8.9,-12.786 -24.102,-9.566 -37.382,-3.31Z" style="fill:none;stroke:#faffff;stroke-opacity:0.61;stroke-width:4.07px;"/><path d="M2396.571,1825.409c-6.411,-1.35 -53.506,17.675 -48.644,64.182c1.923,18.392 26.105,62.08 31.394,11.516c4.662,-44.575 30.625,-72.881 17.25,-75.697Z" style="fill:none;stroke:#faffff;stroke-opacity:0.61;stroke-width:2.03px;"/><path d="M2158.562,1429.563c-14.873,-2.326 -96.132,8.26 -76.331,60.092c8.609,22.537 125.916,62.474 134.597,58.79c21.116,-8.96 -3.5,-110.318 -58.267,-118.882Z" style="fill:none;stroke:#faffff;stroke-opacity:0.61;stroke-width:2.85px;"/><path d="M2387.15,1082.649c-64.831,65.813 18.736,141.689 21.182,145.933c5.092,8.835 12.773,62.373 43.094,57.425c61.644,-10.06 25.518,-93.662 22.44,-102.783c-17.535,-51.961 -27.049,-111.258 -86.716,-100.574Z" style="fill:none;stroke:#faffff;stroke-opacity:0.61;stroke-width:3.25px;"/><path d="M3167.127,1220.027c58.022,-14.492 107.741,-34.025 111.74,47.427c2.633,53.632 20.993,105.383 -33.538,88.518c-47.786,-14.778 -50.31,-27.639 -125.264,2.808c-44.191,17.951 -26.137,-28.294 -0.629,-54.846c8.334,-8.675 21.88,-30.114 26.215,-42.012c8.069,-22.147 4.145,-37.566 21.476,-41.895Z" style="fill:none;stroke:#faffff;stroke-opacity:0.61;stroke-width:4.07px;"/><path d="M2475.762,1069.455c-1.393,-1.605 -41.665,-27.641 -16.984,-35.924c33.534,-11.255 32.292,25.799 130.934,16.219c1.345,-0.131 47.499,-8.918 28.345,17.426c-12.856,17.682 -31.272,28.294 -14.482,79.803c14.702,45.103 -5.789,50.596 -44.515,89.65c-30.247,30.504 -22.239,-27.692 -27.192,-45.594c-11.336,-40.977 -33.385,-34.4 -31.469,-76.651c1.316,-29.017 0.771,-34.966 -24.638,-44.929Z" style="fill:none;stroke:#faffff;stroke-opacity:0.61;stroke-width:2.85px;"/><path d="M2570.572,1646.377c-2.177,0.228 -58.057,2.733 -65.134,23.558c-12.131,35.7 121.702,7.901 133.087,-2.922c8.672,-8.244 5.963,-21.287 -14.348,-22.819c-21.246,-1.602 -49.506,1.551 -53.605,2.182Z" style="fill:none;stroke:#fff;stroke-opacity:0.61;stroke-width:2.03px;"/><path d="M2691.963,1600.644c-17.997,55.617 45.293,54.211 67.481,66.208c8.927,4.827 57.337,71.19 100.76,1.507c25.48,-40.89 52.681,-59.62 5.69,-71.252c-49.259,-12.194 -57.248,-10.795 -84.744,-48.937c-3.079,-4.271 -28.533,-39.582 -64.671,-15.014c-34.97,23.774 -10.676,24.716 -24.517,67.488Z" style="fill:none;stroke:#fff;stroke-opacity:0.61;stroke-width:4.07px;"/><path d="M2438.618,190.306c-40.009,39.063 -3.417,43.951 21.939,42.997c56.796,-2.135 98.072,-91.154 160.308,-11.949c35.676,45.403 50.489,28.95 89.623,71.584c16.169,17.615 19.967,3.355 18.117,-2.406c-7.133,-22.216 -20.233,-18.973 -20.089,-68.075c0.32,-108.956 -32.594,-102.269 -147.514,-130.883c-50.332,-12.532 -44.645,10.813 -93.471,54.71c-13.471,12.111 -13.185,28.666 -28.913,44.022Z" style="fill:none;stroke:#fff;stroke-opacity:0.3;stroke-width:2.03px;"/><path d="M2726.096,1406.072c-40.371,25.406 -86.788,92.957 -48.39,108.807c30.546,12.609 64.687,-10.015 75.531,-34.737c5.801,-13.226 5.697,-94.734 -27.14,-74.07Z" style="fill:none;stroke:#fff;stroke-opacity:0.61;stroke-width:4.07px;"/><path d="M2041.935,1627.114c23.497,-3.45 27.484,29.705 72.501,-4.803c28.057,-21.507 28.931,28.795 76.184,23.466c14.997,-1.691 26.245,-5.392 50.05,33.367c19.854,32.326 -14.643,81.38 -133.946,60.762c-23.587,-4.076 -35.945,-9.65 -55.162,-48.092c-20.423,-40.854 -29.017,-61.852 -9.626,-64.699Z" style="fill:none;stroke:#fff;stroke-opacity:0.61;stroke-width:4.07px;"/><path d="M1666.766,1636.31c-2.583,0.533 -32.998,10.026 -15.919,32.03c13.841,17.833 28.02,13.69 22.93,49.989c-2.476,17.657 -15.804,56.068 121.569,60.036c21.371,0.617 54.711,-6.972 30.658,-21.646c-15.911,-9.707 -24.183,-18.29 0.311,-33.743c2.658,-1.677 28.471,-17.961 10.795,-37.396c-19.911,-21.892 -70.358,17.284 -112.033,-31.306c-13.926,-16.237 -28.704,-27.395 -58.312,-17.965Z" style="fill:none;stroke:#fff;stroke-opacity:0.61;stroke-width:4.07px;"/><path d="M1806.017,1790.823c-78.835,56.274 -8.026,145.017 -104.798,136.218c-62.131,-5.649 -17.638,50.62 -16.044,61.364c3.628,24.45 -20.436,42.472 15.164,45.796c18.345,1.713 29.23,32.457 66.479,-12.978c30.52,-37.229 -0.517,-57.564 53.274,-96.337c32.796,-23.64 24.829,-34.858 62.997,-48.542c119.038,-42.678 -49.585,-105.141 -77.071,-85.521Z" style="fill:none;stroke:#fff;stroke-opacity:0.61;stroke-width:2.85px;"/></g><g id="Silhouette-far"><path d="M2083.101,1959.724c-1.599,0.546 -21.776,7.438 -15.048,14.65c1.745,1.87 29.379,10.435 15.048,-14.65Z" style="fill:none;stroke:#fff;stroke-opacity:0.61;stroke-width:1.63px;"/><path d="M2128.82,1963.822c-16.854,9.431 7.183,20.192 18.999,12.228c10.165,-6.851 -17.681,-12.023 -18.999,-12.228Z" style="fill:none;stroke:#fff;stroke-opacity:0.61;stroke-width:1.63px;"/><path d="M2366.651,2075.36c-38.076,13.42 0.375,51.415 6.844,46.255c7.213,-5.753 7.734,-17.483 7.807,-19.132c0.569,-12.793 -1.655,-27.832 -14.652,-27.123Z" style="fill:none;stroke:#fff;stroke-opacity:0.61;stroke-width:1.63px;"/><path d="M2309.971,2047.795c-10.442,-3.142 -54.238,5.806 -76.781,47.902c-6.824,12.742 3.785,23.232 23.379,7.756c10.882,-8.595 10.187,-11.51 37.49,-31.464c17.034,-12.45 24.705,-18.773 15.912,-24.194Z" style="fill:none;stroke:#fff;stroke-opacity:0.61;stroke-width:1.63px;"/><path d="M2493.269,2117.006c-12.37,2.641 -57.088,3.932 -53.145,16.019c8.055,24.695 220.815,17.438 221.503,11.66c1.233,-10.356 -51.819,-16.138 -63.9,-17.69c-50.896,-6.538 -52.107,-17.542 -104.458,-9.99Z" style="fill:none;stroke:#fff;stroke-opacity:0.61;stroke-width:3.25px;"/><path d="M2563.102,2022.422c-44.784,38.876 14.94,46.244 34.361,39.849c29.484,-9.708 31.565,-61.987 -34.361,-39.849Z" style="fill:none;stroke:#fff;stroke-opacity:0.61;stroke-width:1.63px;"/><path d="M2263.518,1768.989c-28.224,35.284 24.302,86.905 24.559,87.048c17.992,10.024 62.907,-12.268 58.811,-54.258c-0.703,-7.204 -1.528,-56.063 -25.591,-68.908c-28.385,-15.153 -53.904,30.711 -57.779,36.118Z" style="fill:none;"/><path d="M2298.285,1784.829c-45.402,35.46 13.918,64.052 29.736,37.445c14.572,-24.511 9.545,-68.125 -29.736,-37.445Z" style="fill:none;stroke:#fff;stroke-opacity:0.61;stroke-width:2.03px;"/><path d="M3103.99,1638.656c-22.284,5.471 -58.4,28.105 -98.671,93.396c-30.268,49.073 21.433,20.918 93.74,24.89c20.625,1.133 76.514,-6.809 74.831,-10.748c-9.725,-22.757 -15.981,-30.693 21.503,-55.563c47.806,-31.719 -19.166,-24.598 -27.864,-35.971c-5.494,-7.184 4.601,-29.647 -5.143,-31.894c-18.613,-4.291 -23.619,7.353 -58.395,15.891Z" style="fill:none;stroke:#fff;stroke-opacity:0.61;stroke-width:2.44px;"/><path d="M3081.736,1681.355c-15.366,-10.352 -22.905,0.974 -45.911,34.727c-24.129,35.401 19.464,26.68 29.271,23.856c15.084,-4.344 35.124,-29.176 16.64,-58.583Z" style="fill:none;stroke:#fff;stroke-opacity:0.61;stroke-width:1.22px;"/><path d="M3231.493,1889.989c-44.402,23.846 -65.232,95.826 -16.122,114.977c7.53,2.936 91.082,35.519 99.745,-16.961c2.815,-17.052 5.729,-72.277 -2.435,-84.865c-7.959,-12.271 -43.551,-27.654 -81.187,-13.151Z" style="fill:none;stroke:#fff;stroke-opacity:0.61;stroke-width:2.73px;"/><path d="M3256.687,1917.657c-7.589,2.666 -35.484,7.559 -40.499,47.835c-3.247,26.078 45.457,40.968 65.203,7.135c2.794,-4.787 25.378,-63.1 -24.704,-54.97Z" style="fill:none;stroke:#fff;stroke-opacity:0.61;stroke-width:1.22px;"/><path d="M2179.905,1224.22c10.605,77.86 26.711,96.632 64.381,78.938c38.555,-18.109 45.844,30.706 70.549,7.435c30.311,-28.551 -44.36,-78.436 -46.634,-81.523c-17.823,-24.193 12.732,-119.715 -42.325,-115.589c-28.354,2.125 -44.588,39.063 -46.634,43.72c-11.02,25.075 -2.464,43.462 0.663,67.018Z" style="fill:none;stroke:#fff;stroke-opacity:0.61;stroke-width:2.85px;"/><path d="M1854.741,1165.949c-46.935,24.196 -68.911,48.514 -91.932,99.113c-32.216,70.809 68.193,17.909 86.861,13.825c33.874,-7.411 58.902,3.473 56.986,-33.465c-1.442,-27.786 13.585,-26.712 8.793,-54.008c-3.589,-20.445 -17.735,-47.618 -60.708,-25.465Z" style="fill:none;stroke:#fff;stroke-opacity:0.2;stroke-width:2.03px;"/><path d="M2028.7,1120.3c-46.786,20.969 -11.555,45.059 8.757,35.047c25.224,-12.433 41.793,-49.58 -8.757,-35.047Z" style="fill:none;stroke:#fff;stroke-opacity:0.2;stroke-width:2.03px;"/><path d="M1856.533,1495.359c-11.908,63.523 -10.154,93.294 48.234,117.093c62.929,25.65 86.089,-64.665 5.312,-158.172c-31.309,-36.243 -39.151,-36.614 -31.838,-83.965c2.857,-18.496 -49.5,-77.152 -101.459,-21.155c-28.454,30.666 -75.694,57.062 -25.101,79.287c58.269,25.597 109.705,7.84 104.852,66.912Z" style="fill:none;stroke:#fff;stroke-opacity:0.25;stroke-width:2.03px;"/><path d="M2387.247,2010.52c-10.097,8.101 -8.829,21.912 3.54,26.463c13.446,4.948 20.473,-7.836 19.273,-16.744c-0.731,-5.429 -10.241,-19.807 -22.814,-9.719Z" style="fill:none;stroke:#faffff;stroke-opacity:0.61;stroke-width:1.63px;"/><path d="M2743.522,2072.462c-36.344,-6.705 -60.148,10.099 -40.869,23.659c8.83,6.211 27.096,8.506 40.705,4.041c13.537,-4.441 19.993,-24.042 0.164,-27.7Z" style="fill:none;stroke:#faffff;stroke-opacity:0.61;stroke-width:1.63px;"/><path d="M2793.505,1974.798c-16.191,27.095 17.487,51.116 37.21,37.091c3.414,-2.428 22.914,-24.664 -37.21,-37.091Z" style="fill:none;stroke:#faffff;stroke-opacity:0.61;stroke-width:1.63px;"/><path d="M3028.947,1140.567c-101.277,-5.26 -53.464,138.749 -16.463,142.312c68.926,6.637 125.912,-130.944 16.463,-142.312Z" style="fill:none;stroke:#faffff;stroke-opacity:0.61;stroke-width:4.07px;"/><path d="M2914.194,1272.505c-6.525,147.404 -70.723,120.091 -53.102,173.12c5.632,16.949 79.356,44.178 100.617,-47.695c17.773,-76.801 28.021,-76.82 16.383,-115.313c-13.884,-45.922 -62.883,-33.069 -63.899,-10.113Z" style="fill:none;stroke:#faffff;stroke-opacity:0.61;stroke-width:2.03px;"/><path d="M2939.651,1273.444c-31.958,18.781 -10.811,113.424 18.903,77.764c4.719,-5.664 26.374,-79.463 -18.903,-77.764Z" style="fill:none;stroke:#faffff;stroke-opacity:0.61;stroke-width:1.22px;"/><path d="M2905.389,1378.398c-38.012,37.138 -27.176,69.161 -1.886,68.374c32.707,-1.018 45.823,-46.516 46.036,-50.915c1.895,-39.255 -34.846,-18.373 -44.15,-17.459Z" style="fill:none;stroke:#faffff;stroke-opacity:0.61;stroke-width:2.03px;"/><path d="M2853.501,1466.924c-49.671,40.482 3.949,75.543 25.825,60.87c8.119,-5.445 30.907,-69.987 -25.825,-60.87Z" style="fill:none;stroke:#faffff;stroke-opacity:0.61;stroke-width:1.63px;"/><path d="M2125.223,1807.492c-12.046,3.03 -82.251,11.209 -58.726,47.165c16.827,25.719 43.752,1.558 106.28,42.446c21.399,13.993 75.443,-5.106 66.457,-45.212c-0.578,-2.581 -17.577,-47.656 -35.282,-56.146c-13.016,-6.242 -52.395,5.125 -78.728,11.748Z" style="fill:none;stroke:#faffff;stroke-opacity:0.61;stroke-width:1.22px;"/><path d="M2374.934,1848.695c-26.647,12.433 -15.893,35.081 -10.74,35.511c9.193,0.767 12.811,-12.207 14.808,-16.192c7.623,-15.209 3.588,-22.891 -4.068,-19.319Z" style="fill:none;stroke:#faffff;stroke-opacity:0.61;stroke-width:1.22px;"/><path d="M2152.15,1456.121c-84.835,13.385 20.683,53.715 23.907,53.892c20.352,1.116 48.237,-45.805 -23.907,-53.892Z" style="fill:none;stroke:#faffff;stroke-opacity:0.61;stroke-width:1.63px;"/><path d="M2211.285,1000c-4.941,2.248 -26.641,16.932 0.962,17.748c10.728,0.317 -3.644,20.708 5.763,19.981c14.639,-1.132 35.935,-30.392 41.92,-45.695c10.843,-27.726 -19.915,-3.507 -48.644,7.966Z" style="fill:none;stroke:#faffff;stroke-opacity:0.49;stroke-width:2.44px;"/><path d="M2074.402,1026.698c-11.312,4.923 -29.431,16.181 -21.885,27.256c5.932,8.705 52.022,1.999 60.276,-13.066c12.069,-22.03 -28.914,-18.314 -38.391,-14.19Z" style="fill:none;stroke:#faffff;stroke-opacity:0.49;stroke-width:2.44px;"/><path d="M2510.129,1098.841c35.38,-25.533 64.096,-21.335 70.403,8.124c14.293,66.766 26.224,75.064 -4.458,94.498c-8.892,5.632 -20.448,22.864 -26.041,9.445c-11.857,-28.448 -6.036,-31.719 -31.649,-59.995c-16.897,-18.653 -12.598,-33.441 -8.255,-52.073Z" style="fill:none;stroke:#faffff;stroke-opacity:0.61;stroke-width:2.03px;"/><path d="M2750.967,1575.057c-1.183,0.155 -34.089,-1.096 -33.058,29.689c1.753,52.321 48.49,27.806 81.987,59.34c25.475,23.983 50.865,-2.109 25.337,-29.399c-41.846,-44.735 -35.837,-61.262 -74.266,-59.631Z" style="fill:none;stroke:#fff;stroke-opacity:0.61;stroke-width:2.85px;"/><path d="M2891.313,1134.332c-35.311,20.45 -2.801,40.325 14.372,35.522c22.035,-6.162 24.362,-45.356 -14.372,-35.522Z" style="fill:none;stroke:#fff;stroke-opacity:0.2;stroke-width:1.63px;"/><path d="M1812.944,1838.17c-50.585,5.58 -32.792,40.883 -22.946,43.609c19.195,5.313 61.309,-37.075 22.946,-43.609Z" style="fill:none;stroke:#fff;stroke-opacity:0.61;stroke-width:1.63px;"/><path d="M1906.229,1977.935c-29.129,16.903 -84.878,51.565 -88.169,80.044c-3.988,34.51 82.827,-23.657 96.482,-36.556c21.095,-19.928 29.872,-54.819 -8.313,-43.488Z" style="fill:none;stroke:#fff;stroke-opacity:0.61;stroke-width:1.63px;"/><path d="M1730.555,1555.796c-6.313,1.035 -38.587,2.705 -47.633,25.318c-9.136,22.836 17.935,34.012 41.303,26.505c11.571,-3.717 50.147,-53.731 6.33,-51.823Z" style="fill:none;stroke:#fff;stroke-opacity:0.49;stroke-width:1.63px;"/></g><g id="Face-Main" serif:id="Face Main"><path d="M2269.35,456.937c12.465,-31.41 32.835,-149.435 271.616,-134.763c113.601,6.98 107.915,70.634 139.161,93.006c0.022,0.016 37.679,17.305 40.365,46.894c4.246,46.768 -49.464,42.489 -23.328,139.956c12.762,47.59 42.137,97.183 24.914,227.926c-0.753,5.714 32.276,51.86 -126.419,125.613c-3.361,1.562 -138.699,65.267 -223.556,-81.816c-41.737,-72.344 -133.124,-32.768 -136.241,-189.994c-0.687,-34.649 13.724,-94.452 15.959,-107.771c10.871,-64.795 3.259,-54.814 17.529,-119.053Z" style="fill:none;stroke:#faffff;stroke-opacity:0.61;stroke-width:2.03px;"/><path d="M2485.072,529.015c-13.238,14.007 -13.766,74.805 16.124,75.397c29.449,0.583 -4.885,-87.289 -16.124,-75.397Z" style="fill:none;stroke:#faffff;stroke-opacity:0.61;stroke-width:1.63px;"/><path d="M2548.296,427.026c-59.871,19.734 2.564,52.208 29.111,49.854c13.467,-1.194 72.463,-13.273 74.021,-15.174c8.868,-10.82 -43.294,-18.382 -52.872,-29.036c-14.963,-16.643 -29.318,-12.546 -50.26,-5.644Z" style="fill:none;stroke:#faffff;stroke-opacity:0.75;stroke-width:1.22px;"/><path d="M2361.563,476.325c-53.917,38.897 -43.16,49.023 -38.666,51.614c11.723,6.759 14.454,-5.026 66.299,-11.434c47.733,-5.899 25.111,-30.011 24.406,-30.646c-21.212,-19.101 -47.758,-11.261 -52.039,-9.535Z" style="fill:none;stroke:#faffff;stroke-opacity:0.75;stroke-width:1.22px;"/><path d="M2634.324,710.861c-61.306,4.71 -41.071,-2.109 -71.933,2.393c-17.727,2.586 -25.39,7.302 -35.093,9.386c-11.075,2.379 -25.896,-4.73 -35.976,-2.257l-69.518,33.988c66.613,12.734 91.829,4.223 112.793,0.107c33.265,-6.53 54.728,-21.234 99.726,-43.617Z" style="fill:none;stroke:#fff;stroke-opacity:0.55;stroke-width:1.63px;"/><path d="M2538.288,619.814c-23.686,15.96 18.173,20.333 26.909,3.045c5.238,-10.368 -9.138,-15.019 -26.909,-3.045Z" style="fill:none;stroke:#fff;stroke-opacity:0.4;stroke-width:2.03px;"/><path d="M2457.58,629.968c-10.828,4.536 -4.426,26.584 25.336,15.822c6.49,-2.347 7.059,-21.377 -25.336,-15.822Z" style="fill:none;stroke:#faffff;stroke-opacity:0.4;stroke-width:1.63px;"/></g><g id="Face-Medium" serif:id="Face Medium"><path d="M2313.186,468.461c14.451,-14.02 86.924,-44.431 115.041,-28.602c20.115,11.323 55.098,96.698 -13.763,116.99c-66.519,19.602 -68.694,33.718 -112.962,31.654c-42.237,-1.969 -39.018,-42.42 -34.332,-56.031c5.595,-16.252 22.869,-35.351 46.015,-64.011Z" style="fill:none;stroke:#faffff;stroke-opacity:0.4;stroke-width:1.22px;"/><path d="M2264.583,689.644c4.902,56.071 5.398,166.443 95.334,91.011c19.365,-16.242 10.545,-32.809 44.741,-52.088c1.79,-1.009 36.31,-13.257 31.471,-49.859c-3.822,-28.91 -32.603,-32.239 -27.798,-66.404c0.935,-6.651 11.207,-33.995 -20.798,-26.015c-34.989,8.724 -34.048,12.309 -69.356,19.069c-46.611,8.924 -50.664,60.029 -53.594,84.285Z" style="fill:none;stroke:#faffff;stroke-opacity:0.4;stroke-width:0.98px;"/><path d="M2572.046,539.966c-7.036,39.262 36.378,41.503 25.477,79.978c-11.894,41.977 -4.698,70.684 25.525,64.38c30.372,-6.336 34.407,-5.594 50.33,19.779c19.879,31.678 37.448,10.775 33.572,-9.172c-11.595,-59.663 -54.559,-52.547 -37.673,-130.597c0.065,-0.302 19.555,-56.854 -20.736,-39.518c-28.667,12.334 -30.251,16.888 -76.495,15.15Z" style="fill:none;stroke:#faffff;stroke-opacity:0.4;stroke-width:0.98px;"/><path d="M2358.294,380.33c-63.463,36.805 -32.465,52.924 -27.661,53.878c40.615,8.059 36.204,-16.56 118.894,-31.71c27.853,-5.103 92.843,-43.846 79.833,-48.891c-17.724,-6.873 -60.377,10.056 -81.903,8.963c-41.428,-2.103 -53.512,-2.968 -89.163,17.761Z" style="fill:none;stroke:#faffff;stroke-opacity:0.2;stroke-width:4.07px;"/><path d="M2478.787,460.779c-20.619,-58.947 16.859,-61.385 99.209,-69.728c37.786,-3.828 37.645,1.582 95.343,35.141c74.476,43.318 -14.222,73.776 -26.295,80.9c-37.481,22.118 -40.157,23.256 -106.74,7.971c-40.96,-9.403 -32.968,-23.746 -61.516,-54.285Z" style="fill:none;stroke:#faffff;stroke-opacity:0.4;stroke-width:1.22px;"/><path d="M2425.267,731.671c-114.952,53.32 18.708,154.73 44.883,160.595c14.898,3.338 175.224,22.204 201.89,-117.178c18.996,-99.291 -48.563,-59.977 -109.917,-77.083c-32.344,-9.018 -36.763,-25.931 -67.111,1.092c-38.284,34.091 -32.328,18.799 -69.745,32.574Z" style="fill:none;stroke:#faffff;stroke-opacity:0.2;stroke-width:2.85px;"/><path d="M2451.324,580.991c20.162,-46.029 2.521,-119.029 33.901,-96.404c17.612,12.698 24.725,45.248 62.555,81.575c29.237,28.076 60.516,80.447 13.849,81.427c-12.764,0.268 -30.296,-9.483 -48.785,-7.123c-14.2,1.813 -25.181,20.005 -58.645,19.266c-35.182,-0.777 -7.56,-68.044 -2.875,-78.74Z" style="fill:none;stroke:#faffff;stroke-opacity:0.2;stroke-width:1.22px;"/><path d="M2415.623,922.227c-3.253,-4.333 -40.967,-48.041 -14.163,-52.869c26.063,-4.694 35.607,50.689 161.978,34.42c63.037,-8.115 137.647,-109.235 141.058,-78.924c2.545,22.613 -51.917,83.278 -95.705,111.247c-62.761,40.088 -98.193,32.847 -139.481,17.56c-16.791,-6.217 -17.86,-13.753 -53.688,-31.435Z" style="fill:none;stroke:#fff;stroke-opacity:0.2;stroke-width:2.44px;"/><path d="M2144.15,392.562c-4.67,62.788 41.309,60.272 45.66,95.484c3.189,25.806 18,15.332 21.366,2.151c0.981,-3.843 2.799,-76.052 -0.836,-84.028c-13.873,-30.438 -65.203,-26.877 -66.19,-13.607Z" style="fill:none;stroke:#fff;stroke-opacity:0.61;stroke-width:2.85px;"/><path d="M2160.614,201.446c-45.164,6.735 -20.535,105.741 4.215,65.045c23.345,-38.387 22.289,-40.511 19.079,-42.458c-3.477,-2.108 -13.853,-1.545 -16.739,-5.184c-1.887,-2.38 -0.211,-18.349 -6.556,-17.403Z" style="fill:none;stroke:#fff;stroke-opacity:0.61;stroke-width:1.63px;"/></g><g id="Face-Far" serif:id="Face Far"><path d="M2331.239,478.423c-59.342,63.41 -53.833,59.555 -53.718,67.803c0.398,28.447 39.123,5.697 57.726,7.336c19.31,1.701 19.957,6.722 46.263,-5.2c39.498,-17.9 68.863,-25.471 52.683,-77.733c-2.245,-7.251 -27.08,-32.566 -73.236,-10.833c-8.527,4.015 -20.124,8.374 -29.719,18.626Z" style="fill:none;stroke:#faffff;stroke-opacity:0.2;stroke-width:2.44px;"/><path d="M2469.324,520.229c3.327,64.05 -14.038,76.512 0,91.428c10.392,11.041 69.889,16.439 59.76,-22.553c-6.098,-23.474 -23.442,-52.175 -33.366,-71.311c-12.661,-24.414 -27.019,-9.597 -26.394,2.436Z" style="fill:none;stroke:#faffff;stroke-opacity:0.2;stroke-width:2.44px;"/><path d="M2556.276,405.785c-27.464,2.817 -59.166,-0.919 -60.731,38.839c-0.913,23.191 13.552,17.304 23.626,41.492c2.147,5.155 8.889,21.342 67.913,19.245c35.147,-1.248 31.891,-13.047 66.004,-21.382c55.522,-13.566 23.688,-36.665 8.011,-42.174c-28.996,-10.19 -34.008,-4.486 -48.157,-27.419c-10.503,-17.025 -38.939,-10.459 -42.323,-9.678l-6.69,1.592c-1.552,0.355 -6.259,-0.834 -7.654,-0.514Z" style="fill:none;stroke:#faffff;stroke-opacity:0.2;stroke-width:2.44px;"/><path d="M2434.478,774.014c-10.353,6.514 -31.746,22.205 25.058,69.643c22.305,18.628 116.488,34.767 162.493,-1.104c25.499,-19.882 36.916,-25.939 40.346,-77.263c2.28,-34.121 -22.505,-35.665 -41.018,-16.27c-14.69,15.39 -17.212,9.235 -34.471,42.611c-23.6,45.639 -100.199,31.509 -105.081,2.984c-0.673,-3.934 -1.541,-22.426 -20.761,-22.261c-8.528,0.073 -20.064,-3.29 -26.565,1.66Z" style="fill:none;stroke:#faffff;stroke-opacity:0.1;stroke-width:2.44px;"/><path d="M2522.221,768.611c-37.832,17.692 -9.779,45.096 33.054,35.634c18.543,-4.096 31.811,-19.106 24.136,-28.992c-1.723,-2.219 -20.902,-18.464 -57.19,-6.642Z" style="fill:none;stroke:#faffff;stroke-opacity:0.2;stroke-width:2.03px;"/><path d="M2277.788,670.008c-1.066,59.355 24.42,24.596 26.116,22.284c14.614,-19.931 30.014,4.683 73.025,-36.705c34.189,-32.899 16.701,-55.639 -3.914,-46.855c-22.195,9.457 -10.561,5.207 -51.606,13.352c-33.203,6.589 -41.143,25.05 -43.621,47.924Z" style="fill:none;stroke:#faffff;stroke-opacity:0.2;stroke-width:1.22px;"/><path d="M2280.301,724.654c0.496,4.649 2.998,61.796 25.439,65.145c12.223,1.824 8.875,-9.194 33.884,-21.09c30.921,-14.708 14.04,-45.218 45.622,-50.196c1.395,-0.22 21.775,0.719 33.239,-17.672c19.046,-30.555 -1.223,-69.516 -31.386,-38.977c-18.842,19.077 -31.245,50.413 -71.309,52.902c-31.831,1.977 -31.933,-6.155 -35.489,9.889Z" style="fill:none;stroke:#faffff;stroke-opacity:0.2;stroke-width:1.22px;"/><path d="M2604.881,622.527c3.696,-12.2 4.882,-41.628 42.483,-6.696c33.17,30.816 32.737,50.819 -12.734,61.047c-49.445,11.121 -33.102,-43.282 -29.749,-54.351Z" style="fill:none;stroke:#faffff;stroke-opacity:0.2;stroke-width:1.22px;"/><path d="M2362.81,492.672c-24.393,9.616 1.81,17.923 3.141,18.051c8.11,0.778 17.034,-3.879 14.965,-9.784c-1.475,-4.211 -16.557,-7.889 -18.106,-8.267Z" style="fill:none;stroke:#fff;stroke-opacity:0.2;stroke-width:1.63px;"/><path d="M2564.597,440.659c-43.528,29.578 39.472,28.373 47.195,21.101c16.333,-15.38 -43.201,-20.564 -47.195,-21.101Z" style="fill:none;stroke:#fff;stroke-opacity:0.2;stroke-width:1.63px;"/></g><g id="Details-Dotted" serif:id="Details Dotted"><path d="M1781.073,-0.466c-131.694,100.704 -183.784,-21.17 -277.341,24.198c-108.726,52.723 161.16,164.507 -28.414,245.392c-139.873,59.679 24.629,76.848 32.509,77.671c121.263,12.656 103.748,56.582 223.998,73.395c82.762,11.571 66.091,81.201 -28.474,77.786c-77.601,-2.802 -110.314,-32.418 -149.732,49.851c-43.942,91.713 -74.828,-71.232 -143.929,-53.928c-71.431,17.888 -46.108,56.222 -151.38,80.59c-118.591,27.45 -50.887,68.19 -64.279,186.543c-8.816,77.909 129.051,56.606 75.944,83.757c-57.078,29.181 -76.509,-18.687 -200.807,18.384c-98.749,29.451 -107.245,-45.749 -224.927,-3.341c-22.374,8.063 -183.788,94.581 -198.93,24.892c-9.056,-41.682 54.932,-10.134 157.751,-67.763c96.077,-53.85 -6.112,-73.519 -31.72,-66.084c-13.401,3.891 -101.761,48.461 -116.174,-1.075c-15.345,-52.74 103.854,-64.222 80.489,-113.636c-59.838,-126.55 -61.73,-127.169 -74.786,-131.441c-54.981,-17.991 -51.137,23.773 -139.405,23.395c-11.357,-0.049 -95.306,11.338 -8.33,107.144c118.986,131.065 -88.631,2.834 -186.935,95.44c-27.999,26.376 20.406,28.718 -38.152,58.863c-13.975,7.194 -56.131,-2.646 -76.551,4.845c-15.417,5.656 -13.659,32.781 -28.102,39.651c-17.27,8.215 -31.504,-8.884 -47.992,-3.867c-30.885,9.399 -59.825,37.936 -62.104,44.401" style="fill:none;stroke:#fff;stroke-opacity:0.49;stroke-width:2.44px;stroke-dasharray:9.764,19.528,0,0,0,0;"/><path d="M841.966,2164.319c-39.391,-85.407 -143.384,-148.756 -86.659,-203.012c34.033,-32.551 69.282,48.49 87.05,3.53c14.376,-36.377 -14.371,-217.564 57.576,-199.925c34.249,8.397 70.7,33.938 92.686,-37.547c17.793,-57.849 26.774,-117.125 69.463,-115.219c47.859,2.136 68.626,-3.262 48.722,-39.471c-14.427,-26.245 -148.266,-78.128 -47.836,-111.987c96.44,-32.513 199.661,42.991 247.363,45.208c35.05,1.629 34.582,1 69.215,6.934c69.944,11.984 54.567,-50.134 87.88,-34.691c36.365,16.857 -15.515,102.995 -20.357,111.035c-47.597,79.027 26.916,97.826 -57.975,212.405c-59.408,80.184 109.256,117.245 44.834,239.257c-26.55,50.285 -74.901,50.714 -167.37,134.555c-44.954,40.759 -108.024,93.896 -322.805,50.649c-96.22,-19.374 -96.872,-53.11 -101.787,-61.721Z" style="fill:none;stroke:#faffff;stroke-opacity:0.49;stroke-width:2.44px;stroke-dasharray:9.764,19.528,0,0,0,0;"/><path d="M3592.981,-40.99c-43.618,107.079 -29.12,128.44 -59.165,119.782c-14.083,-4.058 -107.849,-64.318 -135.586,22.848c-29.085,91.401 109.5,81.776 123.504,186.542c6.717,50.245 84.242,100.828 19.833,136.391c-23.003,12.701 -147.343,-12.758 -134.273,39.205c5.361,21.314 75.658,24.759 82.692,25.104c125.539,6.152 54.063,79.442 24.468,64.69c-13.244,-6.601 -33.531,-31.99 -45.104,12.698c-7.188,27.756 38.524,101.572 63.114,112.553c12.914,5.767 111.682,25.938 35.932,76.009c-112.183,74.154 -89.896,-212.047 -185.305,-146.565c-39.248,26.937 7.81,48.419 -32.532,75.019c-33.792,22.281 -40.776,24.526 -26.506,58.986c10.99,26.54 -50.257,104.476 27.045,80.901c7.795,-2.377 99.88,-61.711 95.391,-26.889c-2.906,22.548 -74.998,37.042 -80.301,61.932c-0.618,2.899 -0.456,2.7 -6.162,36.446c-32.129,4.147 -31.94,4.039 -34.699,4.479c-61.374,9.785 -73.147,312.262 62.313,199.589c15.704,-13.062 5.345,-23.408 24.72,-36.087c31.332,-20.504 72.31,-2.612 86.792,-19.215c44.724,-51.276 -35.904,-112.913 -3.333,-127.533c24.457,-10.978 68.166,82.05 131.978,79.329c28.066,-1.197 20.7,-27.316 57.147,-9.409c22.02,10.819 47.779,39.404 56.943,56.854c6.553,12.479 -40.898,49.962 -39.223,62.174c2.727,19.881 -26.028,29.059 -43.388,44.429c-11.04,9.774 -11.597,26.309 -15.445,35.98c-11.419,28.702 -80.621,14.248 -97.732,30.383c-36.372,34.3 41.63,69.963 85.286,76.062c60.184,8.407 50.015,49.106 85.608,57.349c28.18,6.526 69.702,1.449 72.701,1.001" style="fill:none;stroke:#faffff;stroke-opacity:0.49;stroke-width:2.44px;stroke-dasharray:9.764,19.528,0,0,0,0;"/><path d="M3426.82,-27.936c-26.002,80.681 -108.204,64.453 -79.996,170.774c23.771,89.597 74.502,64.321 80.968,90.681c4.31,17.574 -97.307,90.263 11.276,65.771c74.071,-16.707 10.392,83.083 -43.177,55.235c-72.387,-37.629 -70.827,-1.029 -68.733,3.188c4.092,8.24 99.416,91.191 -56.353,97.644c-69.025,2.859 -94.822,-5.223 -78.221,-60.745c25.305,-84.635 -84.385,-13.178 -86.54,-80.015c-0.953,-29.548 76.865,-106.726 -0.348,-104.473c-78.099,2.279 -2.78,179.365 -86.781,147.1c-39.705,-15.251 -17.001,-61.347 -89.177,-45.951c-125.076,26.68 -135.258,-90.552 -90.67,-75.17c8.242,2.843 48.391,30.519 122.308,-11.871c70.525,-40.444 42.78,-142.045 -96.64,-74.256c-6.747,3.28 -81.325,58.823 -91.221,-21.244c-7.072,-57.214 38.124,-21.797 118.614,-36.23c193.485,-34.693 137.455,-99.381 214.276,-152.47c42.66,-29.481 127.37,-15.606 186.011,-7.498c102.62,14.189 120.029,8.104 134.405,39.527Z" style="fill:none;stroke:#faffff;stroke-opacity:0.49;stroke-width:2.44px;stroke-dasharray:9.764,19.528,0,0,0,0;"/><path d="M83.44,660.606c63.281,-25.542 74.527,6.092 135.362,-23.742c71.867,-35.244 112.635,-20.211 115.563,-60.442c1.236,-16.982 -9.528,-18.74 4.068,-52.014c7.283,-17.824 19.513,-42.29 -21.024,-71.7c-17.73,-12.863 -32.44,-6.632 -119.836,-0.055c-61.549,4.632 -63.969,33.465 -114.388,117.705c-33.795,56.465 -5.977,85.373 0.255,90.249Z" style="fill:none;stroke:#fff;stroke-opacity:0.49;stroke-width:2.44px;stroke-dasharray:9.764,19.528,0,0,0,0;"/><path d="M80.939,968.225c45.84,-94.806 86.647,-52.864 156.795,-75.897c16.52,-5.424 151.444,-115.949 230.769,-85.139c68.098,26.45 10.375,101.099 7.888,107.214c-27.837,68.44 32.796,99.037 -72.101,156.627c-62.7,34.423 -75.925,56.555 -125.953,9.839c-108.248,-101.081 -184.734,6.274 -205.028,-51.498c-14.032,-39.946 1.969,-55.642 7.632,-61.147Z" style="fill:none;stroke:#fff;stroke-opacity:0.49;stroke-width:2.03px;stroke-dasharray:8.136,16.273,0,0,0,0;"/><path d="M867.874,1278.962c-43.125,66.599 -110.963,108.049 -91.021,191.638c15.165,63.566 129.299,72.373 152.706,5.847c19.866,-56.461 22.971,-61.501 91.973,-75.631c57.904,-11.857 16.456,-99.298 0.629,-115.135c-28.085,-28.102 -139.523,-29.52 -154.286,-6.72Z" style="fill:none;stroke:#fff;stroke-opacity:0.49;stroke-width:2.85px;stroke-dasharray:11.391,22.782,0,0,0,0;"/><path d="M1400.78,981.691c-14.519,26.43 -62.311,58.156 -29.673,168.437c35.675,120.544 307.702,20.578 230.328,-60.289c-18.513,-19.349 -75.329,-53.115 6.507,-62.761c23.156,-2.729 107.772,2.323 116.302,-78.009c4.311,-40.605 -33.781,-53.599 -63.133,-17.582c-64.714,79.408 -89.541,47.159 -188.575,14.105c-3.216,-1.073 -23.452,-7.828 -43.274,-2.059c-26.664,7.76 -17.859,18.822 -28.481,38.158Z" style="fill:none;stroke:#fff;stroke-opacity:0.49;stroke-width:3.25px;stroke-dasharray:13.018,26.037,0,0,0,0;"/><path d="M3802.971,652.762c-38.107,-68.803 -91.509,-1.019 -156.938,-53.937c-68.111,-55.088 78.753,-95.382 9.841,-153.118c-21.655,-18.143 -47.934,-21.764 -61.481,-101.134c-7.346,-43.037 25.631,-50.738 -14.832,-97.461c-34.136,-39.417 87.394,-83.579 106.525,-44.46c13.003,26.588 1.097,44.517 45.867,64.871c64.073,29.129 56.113,38.977 121.439,231.253c9.486,27.919 16.359,51.377 13.822,86.166c-4.034,55.324 -57.814,64.971 -64.244,67.822Z" style="fill:none;stroke:#fff;stroke-opacity:0.49;stroke-width:4.07px;stroke-dasharray:16.273,32.546,0,0,0,0;"/><path d="M830.286,-6.534c-27.629,132.471 -72.657,147.089 -108.965,175.125c-118.282,91.334 -120.464,97.881 -124.326,109.47c-18.334,55.013 50.039,84.999 106.924,26.806c38.124,-39 48.129,-34.747 62.488,-83.828c15.843,-54.154 65.182,-13.724 140.28,-14.989c69.027,-1.163 47.589,33.69 83.939,47.118c6.508,2.404 91.976,8.407 99.28,-70.681c8.861,-95.946 95.886,-84.741 61.71,-133.732c-16.239,-23.278 -35.472,-12.299 -75.977,-56.7c-89.403,-98.001 -238.865,-29.701 -245.354,1.41Z" style="fill:none;stroke:#fff;stroke-opacity:0.49;stroke-width:2.44px;stroke-dasharray:9.764,19.528,0,0,0,0;"/><path d="M58.055,309.378c49.911,5.83 49.096,7.359 86.649,16.407c40.151,9.675 33.408,-13.047 85.851,-31.667c135.366,-48.062 160.84,-15.554 226.827,-89.019c32.371,-36.04 75.343,-55.888 9.25,-80.703c-85.705,-32.179 -55.559,-61.292 -130.953,-108.035c-20.909,-12.963 -81.608,-17.52 -113.603,10.53c-49.987,43.824 -52.847,44.452 -132.017,52.275c-51.078,5.047 -85.25,18.787 -24.668,178.19c9.412,24.765 -10.215,48.21 -7.338,52.021Z" style="fill:none;stroke:#fff;stroke-opacity:0.49;stroke-width:2.85px;stroke-dasharray:11.391,22.782,0,0,0,0;"/><path d="M2926.891,508.71c-45.661,-45.516 5.149,-69.489 58.388,-41.716c68.717,35.848 125.856,-19.597 160.754,20.786c24.537,28.393 -21.686,45.857 18.152,84.973c0.702,0.689 32.614,25.428 21.392,45.722c-11.393,20.603 -50.072,6.692 -54.066,5.255c-49.039,-17.637 -52.222,-8.108 -97.988,-24.656c-27.271,-9.861 -4.337,-23.859 -58.742,-43.007c-24.819,-8.735 -26.285,-25.821 -47.89,-47.357Z" style="fill:none;stroke:#fff;stroke-opacity:0.49;stroke-width:4.07px;stroke-dasharray:16.273,32.546,0,0,0,0;"/><path d="M78.232,1844.716c107.538,7.045 16.923,80.784 86.584,118.953c13.064,7.158 230.016,61.619 182.903,-22.557c-37.689,-67.339 -21.309,-86.66 -108.287,-104.84c-231.558,-48.401 -155.767,-396.189 52.508,-248.017c71.87,51.13 81.096,-29.462 239.839,-41.381c295.992,-22.224 316.914,291.063 184.846,396.574c-139.852,111.731 98.807,153.179 20.177,238.241c-44.06,47.664 -500.653,228.105 -746.819,-55.695c-127.698,-147.22 -67.794,-392.61 88.249,-281.279Z" style="fill:none;stroke:#faffff;stroke-opacity:0.49;stroke-width:2.44px;stroke-dasharray:9.764,19.528,0,0,0,0;"/></g><g id="Near"><path d="M295.482,1643.603c-76.542,22.674 -146.039,22.391 -148.655,78.095c-2.361,50.266 119.27,125.501 224.611,122.397c96.275,-2.837 103.568,25.199 212.945,-22.631c86.042,-37.626 105.794,-14.421 130.554,-52.984c33.614,-52.352 -57.681,-49.132 -77.785,-66.03c-24.779,-20.827 -20.428,-70.227 -139.21,-52.565c-32.214,4.79 -46.257,8.443 -94.705,-0.58c-61.324,-11.421 -62.506,-19.458 -107.754,-5.701Z" style="fill:none;stroke:#fff;stroke-opacity:0.49;stroke-width:1.63px;"/><path d="M89.204,1902.164c39.808,90.094 51.39,92.227 122.964,96.504c71.751,4.288 124.35,16.169 102.901,60.329c-21.881,45.049 -77.151,-9.216 -132.204,26.448c-25.385,16.445 -28.463,31.919 -130.692,20.081c-86.921,-10.066 -64.82,-80.704 -58.98,-99.972c16.33,-53.88 80.382,-93.076 96.011,-103.39Z" style="fill:none;stroke:#fff;stroke-opacity:0.49;stroke-width:2.85px;"/><path d="M362.721,2192.182c22.497,-36.99 7.968,-41.046 28.985,-78.8c39.245,-70.494 -35.657,-74.262 -24.621,-126.9c1.076,-5.131 22.8,-73.357 57.015,-92.489c66.898,-37.405 147.732,21.511 164.119,79.204c13.749,48.404 3.85,57.065 53.813,78.635c7.188,3.103 48.332,20.865 65.026,64.342c3.52,9.167 8.562,76.752 -20.326,90.929c-47.59,23.356 -242.448,2.472 -322.104,-12.392" style="fill:none;stroke:#fff;stroke-opacity:0.49;stroke-width:2.85px;"/><path d="M868.894,1968.565c23.862,-82.037 -36.543,-144.732 44.221,-168.695c95.957,-28.47 248.953,67.386 225.675,175.341c-14.564,67.544 -10.3,156.214 -219.414,171.393c-119.03,8.64 -46.592,-89.012 -95.578,-110.405c-37.293,-16.286 -33.154,-21.249 -30.701,-23.101c27.46,-20.733 51.538,-0.36 75.798,-44.534Z" style="fill:none;stroke:#fff;stroke-opacity:0.49;stroke-width:2.85px;"/><path d="M1041.471,1670.407c20.176,-35.959 63.751,-34.346 120.213,3.485c38.741,25.957 29.397,52.107 82.176,92.763c85.946,66.206 6.212,103.377 65.655,176.382c74.642,91.671 -84.219,96.658 -105.318,19.353c-23.117,-84.699 -21.404,-94.89 -112.448,-138.067c-76.826,-36.435 -71.371,-94.643 -50.278,-153.916Z" style="fill:none;stroke:#fff;stroke-opacity:0.49;stroke-width:2.44px;"/><path d="M1872.079,872.335c-54.387,30.123 -27.267,41.878 -2.112,91.742c19.701,39.053 38.134,12.659 180.049,14.244c81.637,0.912 217.649,-45.631 98.426,-91.204c-73.953,-28.269 -100.78,23.252 -163.578,-38.421c-38.343,-37.657 -60.755,-5.902 -112.785,23.639Z" style="fill:none;stroke:#fff;stroke-opacity:0.49;stroke-width:3.25px;"/><path d="M3785.645,2186.792c-27.869,-57.188 9.913,-101.469 -15.433,-139.828c-8.765,-13.265 -95.405,-47.885 -50.392,-100.11c36.456,-42.298 60.35,-10.746 141.33,-56.969" style="fill:none;stroke:#faffff;stroke-opacity:0.49;stroke-width:4.07px;"/><path d="M3795.346,1899.811c-22.998,3.772 -85.678,19.991 -77.214,-14.856c7.263,-29.901 7.739,-34.956 -25.561,-47.351c-53.841,-20.041 10.287,-34.366 7.041,-82.961c-3.18,-47.6 -24.054,-52.891 20.346,-102.449c49.186,-54.901 -75.311,-51.936 -42.214,-87.628c4.764,-5.137 106.131,-43.065 62.738,-72.772c-25.163,-17.227 -105.841,23.462 -111.842,51.071c-0.494,2.273 0.659,46.752 -30.846,42.644c-56.764,-7.401 5.536,-65.116 -82.519,-92.614c-46.288,-14.455 -59.93,-27.399 -23.508,-55.378c48.119,-36.964 -30.42,-57.593 14.09,-104.486c88.422,-93.157 152.335,85.09 278.093,53.952c3.97,-0.983 129.236,-59.273 113.626,91.827c-10.705,103.625 -2.225,103.696 -15.123,207.363c-6.084,48.902 -30.9,81.158 -44.894,163.64c-9.243,54.48 -25.06,37.46 -42.214,49.998Z" style="fill:none;stroke:#faffff;stroke-opacity:0.49;stroke-width:4.07px;"/><path d="M3401.546,2161.544c42.422,-41.416 74.147,13.629 129.729,-30.118c37.699,-29.672 14.365,-51.363 60.46,-59.915c51.744,-9.599 46.5,-36.822 70.105,-24.281c20.052,10.654 8.418,30.987 41.996,74.806c25.46,33.225 44.076,58.665 -36.986,81.142c-39.749,11.021 -56.244,1.355 -220.648,-20.955c-49.122,-6.666 -43.409,-14.744 -44.658,-20.68Z" style="fill:none;stroke:#faffff;stroke-opacity:0.49;stroke-width:4.07px;"/><path d="M378.344,1228.711c-89.121,35.103 -50.417,69.455 -21.937,145.925c33.755,90.636 78.057,-18.826 173.369,-28.57c107.252,-10.965 189.321,6.187 136.845,-100.456c-34.27,-69.644 65.253,-140.066 -76.32,-154.219c-112.499,-11.247 -119.699,8.204 -128.427,65.021c-8.771,57.096 -59.956,63.036 -83.53,72.298Z" style="fill:none;stroke:#fff;stroke-opacity:0.49;stroke-width:2.44px;"/><path d="M45.794,1064.251c225.048,38.683 259.917,182.756 362.897,68.026c121.671,-135.554 115.203,-139.663 135.354,-205.938c16.27,-53.512 75.587,-86.727 10.602,-162.998c-44.17,-51.842 -171.175,-54.011 -200.958,-13.702c-31.177,42.196 -48.136,50.377 -106.251,62.643c-51.368,10.842 -16.375,63.097 -99.676,44.068c-32.698,-7.469 -71.489,10.695 -123.028,172.337" style="fill:none;stroke:#fff;stroke-opacity:0.49;stroke-width:2.85px;"/><path d="M697.877,1029.138c-54.753,-8.998 -110.383,-57.458 -11.71,-72.727c87.943,-13.609 83.896,-22.948 166.415,-51.514c50.527,-17.492 87.898,2.163 68.694,52.334c-26.99,70.514 -20.431,72.465 8.533,141.982c48.942,117.465 -128.1,187.276 -140.169,63.73c-3.987,-40.816 -26.889,-123.143 -91.763,-133.805Z" style="fill:none;stroke:#fff;stroke-opacity:0.49;stroke-width:2.44px;"/><path d="M1111.993,892.395c-111.923,22.941 -150.71,54.329 -131.387,174.924c5.404,33.725 84.275,111.503 106.407,94.644c32.174,-24.508 10.675,-81.403 104.381,-95.999c40.516,-6.311 140.698,-15.965 146.715,-165.074c2.366,-58.63 -69.771,-21.278 -165.488,-19.424c-31.662,0.613 -30.712,3.419 -60.628,10.929Z" style="fill:none;stroke:#fff;stroke-opacity:0.49;stroke-width:2.85px;"/><path d="M56.759,1601.309c49.121,-80.06 129.263,-94.297 191.472,-61.12c134.285,71.615 153.883,-69.437 92.423,-61.222c-4.478,0.599 -53.794,27.541 -121.565,4.044c-45.992,-15.946 -68.775,-71.482 15.745,-61.222c3.24,0.393 80.242,15.936 95.966,-12.072c6.408,-11.414 -18.843,-109.838 -63.224,-89.502c-29.963,13.729 -19.274,25.851 -75.185,48.371c-69.383,27.947 -62.462,51.818 -138.915,43.646c-8.871,-0.948 -68.027,-7.272 -86.025,59.143c-10.655,39.317 51.901,99.793 89.308,129.934Z" style="fill:none;stroke:#fff;stroke-opacity:0.49;stroke-width:4.07px;"/><path d="M788.249,1265.108c-22.075,91.283 -68.388,62.842 -49.896,165.439c2.627,14.577 31.467,174.581 168.882,119.938c90.729,-36.078 18.613,-96.143 108.932,-124.41c49.762,-15.574 115.442,3.739 75.323,-75.823c-33.012,-65.468 37.654,-71.172 10.687,-97.423c-23.935,-23.299 -93.956,-91.181 -158.492,-24.685c-51.688,53.258 -144.887,-6.657 -155.436,36.964Z" style="fill:none;stroke:#fff;stroke-opacity:0.49;stroke-width:3.25px;"/><path d="M1543.404,255.314c-4.399,2.299 -48.448,25.321 -43.332,40.144c10.047,29.112 56.77,3.526 120.706,47.825c75.589,52.373 86.286,11.552 124.075,12.961c40.276,1.501 32.444,81.489 153.289,93.926c26.563,2.734 98.026,-17.595 99.075,-84.997c0.709,-45.56 0.861,-45.447 15.642,-89.21c17.912,-53.032 -62.814,-33.692 -68.895,-32.235c-46.741,11.198 -47.01,10.029 -95.741,7.448c-72.024,-3.815 -75.311,91.216 -115.976,38.052c-29.122,-38.073 -86.007,1.528 -116.057,-37.995c-12.683,-16.681 -51.632,-6.977 -72.787,4.079Z" style="fill:none;stroke:#fff;stroke-opacity:0.49;stroke-width:4.07px;"/><path d="M1555.296,65.763c-72.687,13.018 1.759,99.796 41.624,124.095c96.142,58.601 166.438,-139.998 -41.624,-124.095Z" style="fill:none;stroke:#fff;stroke-opacity:0.49;stroke-width:4.07px;"/><path d="M2851.957,502.994c-59.428,98.871 -5.14,279.514 111.464,140.243c89.335,-106.701 243.938,118.694 282.341,10.077c26.163,-73.998 -56.348,-73.798 -74.617,-171.583c-14.856,-79.519 -153.301,-12.117 -177.103,-25.6c-78.31,-44.362 -133.397,32.41 -142.085,46.864Z" style="fill:none;stroke:#faffff;stroke-opacity:0.49;stroke-width:2.44px;"/><path d="M3808.755,684.832c-111.522,-85.134 -194.741,-30.411 -208.398,-111.329c-10.533,-62.408 57.361,-79.298 25.994,-122.867c-27.213,-37.798 -37.695,-35.587 -41.874,-110.823c-5.499,-99.01 -131.194,-150.778 -100.169,-174.724c1.486,-1.147 76.707,-17.334 34.936,-32.153c-21.623,-7.671 -129.114,2.273 -96.227,-36.946c33.099,-39.472 38.316,-0.62 117.454,6.831c24.892,2.344 46.426,-17.737 49.525,-3.366c-2.914,64.352 48.352,19.01 82.562,23.069c53.527,6.35 -11.566,86.033 82.456,137.992c171.28,94.654 -41.021,193.636 75.908,257.495c23.967,13.089 123.683,23.393 101.674,101.043c-19.009,67.068 -111.661,64.339 -123.84,65.776Z" style="fill:none;stroke:#fff;stroke-opacity:0.49;stroke-width:4.07px;"/><path d="M3653.032,-0.924c46.126,63.165 -10.165,56.748 -32.933,77.404c-27.721,25.15 46.417,27.838 49.244,28.553c64.504,16.3 33.307,72.254 93.029,70.259c43.371,-1.449 71.839,-5.344 90.969,-40.558c20.297,-37.362 -48.755,-10.302 -86.108,-64.46c-35.755,-51.842 9.106,-78.566 -52.702,-100.102c-30.367,-10.581 -47.125,5.533 -61.499,28.905Z" style="fill:none;stroke:#fff;stroke-opacity:0.49;stroke-width:4.07px;"/><path d="M94.26,1375.661c72.776,23.069 62.716,-19.279 124.579,-42.847c37.948,-14.457 60.879,-18.968 34.783,-94.837c-13.463,-39.143 -46.79,-35.311 -85.721,-67.2c-49.929,-40.898 -94.111,10.427 -102.926,19.404c-42.381,43.16 -49.759,160.425 29.285,185.481Z" style="fill:none;stroke:#fff;stroke-opacity:0.49;stroke-width:4.07px;"/><path d="M1837.238,-1.418c-10.999,8.369 -132.271,84.395 25.898,120.718c117.859,27.066 171.391,-30.727 293.559,-20.095c125.327,10.907 171.947,-56.406 127.802,-103.968" style="fill:none;stroke:#faffff;stroke-opacity:0.49;stroke-width:4.07px;"/><path d="M1198.218,252.755c-43.293,-36.2 -51.032,-123.479 78.48,-68.715c89.171,37.706 181.772,-5.079 130.389,53.642c-7.255,8.291 -80.919,61.588 -25.862,109.813c65.393,57.278 248.67,17.623 220.599,88.854c-23.546,59.749 -163.197,12.635 -203.142,17.725c-81.192,10.347 -146.268,107.586 -202.382,-15.973c-40.052,-88.193 -113.042,-60.269 -100.654,-114.026c14.524,-63.029 163.837,-15.582 102.572,-71.319Z" style="fill:none;stroke:#fff;stroke-opacity:0.49;stroke-width:4.07px;"/><path d="M843.376,-9.244c-6.198,89.187 -21.512,86.162 -42.473,132.686c-35.479,78.749 73.602,35.964 145.757,72.387c20.042,10.117 103.349,74.176 117.31,-25.519c11.966,-85.453 88.635,-74.576 61.47,-124.899c-19.434,-36.002 -63.398,-16.541 -100.384,-64.076c-26.279,-33.773 -57.286,-27.955 -97.792,-17.822c-53.029,13.266 -76.866,23.647 -83.888,27.243Z" style="fill:none;stroke:#fff;stroke-opacity:0.49;stroke-width:2.03px;"/><path d="M3262.539,-12.32c4.36,17.019 4.961,33.316 35.679,51.641c55.829,33.305 164.951,-89.018 62.531,-84.114c-107.502,5.147 -91.224,19.607 -98.21,32.473Z" style="fill:none;stroke:#fff;stroke-opacity:0.49;stroke-width:4.07px;"/><path d="M2741.92,-4.212c8.074,41.885 20.817,46.261 113.548,48.718c48.573,1.287 62.955,13.021 94.034,-2.257c30.671,-15.077 29.527,-20.313 36.061,-48.72" style="fill:none;stroke:#faffff;stroke-opacity:0.49;stroke-width:2.44px;"/><path d="M1225.236,-18.705c38.068,119.355 9.506,166.094 158.707,168.713c68.753,1.207 127.966,22.991 89.862,-24.805c-43.827,-54.976 -44.729,-55.953 -49.678,-121.818c-4.765,-63.413 -46.375,-72.773 -110.25,-92.803" style="fill:none;stroke:#faffff;stroke-opacity:0.49;stroke-width:4.07px;"/><path d="M81.918,347.582c96.445,26.751 101.108,28.343 144.017,4.265c63.576,-35.675 69.566,-24.884 136.528,-55.492c54.158,-24.755 101.788,-8.519 123.519,-48.629c30.628,-56.533 35.836,-55.183 103.175,-81.859c84.627,-33.525 -78.808,-47.585 -133.946,-95.224c-74.24,-64.143 -50.52,-119.611 -221.691,-105.095c-177.586,15.059 -284.254,26.249 -231.164,249.739c22.872,96.28 85.297,83.785 73.722,181.415" style="fill:none;stroke:#faffff;stroke-opacity:0.49;stroke-width:2.44px;"/><path d="M40.239,527.98c19.797,-25.137 49.899,-79.396 155.717,-114.483c42.607,-14.127 246.836,-26.352 189.041,114.091c-24.475,59.475 60.76,124.184 -61.955,135.813c-65.076,6.167 -44.185,28.069 -45.157,46.772c-2.367,45.574 -91.792,10.627 -111.212,8.248c-66.039,-8.089 -97.751,-0.335 -144.513,11.41" style="fill:none;stroke:#faffff;stroke-opacity:0.49;stroke-width:3.25px;"/><path d="M2304.389,-1.758c52.641,14.784 46.128,41.541 92.38,28.825c47.902,-13.17 46.986,-15.568 97.684,-17.594c26.349,-1.053 26.986,-3.127 39.985,-22.471" style="fill:none;stroke:#faffff;stroke-opacity:0.49;stroke-width:4.07px;"/><path d="M1623.947,1158.263c30.731,-61.526 45.445,-58.245 128.196,-53.405c64.744,3.786 21.549,-34.957 66.445,-109.224c20.118,-33.278 -1.789,-33.392 -85.884,-106.381c-46.231,-40.125 -89.476,17.542 -93.596,23.037c-87.908,117.226 -200.08,-57.269 -268.91,33.204c-7.825,10.285 -15.637,20.555 -23.231,150.724c-1.919,32.899 32.537,106.662 -31.558,76.952c-38.048,-17.636 -62.774,-110.93 -116.58,-62.964c-45.176,40.273 26.379,65.31 -44.188,131.17c-156.335,145.908 195.586,303.702 313.361,169.457c13.676,-15.589 40.845,-26.182 51.862,-32.697c80.698,-20.264 37.37,-41.833 21.87,-87.3c-24.75,-72.599 42.184,-60.818 82.214,-132.573Z" style="fill:none;stroke:#fff;stroke-opacity:0.35;stroke-width:2.44px;"/></g><g id="Medium"><path d="M1937.294,775.134c-0.479,-0.516 -100.601,-90.318 -29.411,-121.188c26.078,-11.309 80.172,-4.618 81.613,40.105c1.456,45.201 -24.353,128.39 141.345,124.156c189.284,-4.837 110.418,159.363 -8.095,179.314c-110.916,18.671 -125.021,-2.025 -204.532,64.841c-6.11,5.138 -73.661,61.947 -105.611,21.841c-33.26,-41.75 98.853,-72.122 -17.499,-176.537c-66.343,-59.536 73.652,-43.386 108.158,-90.985c17.075,-23.554 17.176,-18.527 34.033,-41.546Z" style="fill:none;stroke:#faffff;stroke-opacity:0.2;stroke-width:3.66px;"/><path d="M381.046,1674.749c-94.608,22.54 -146.047,1.318 -180.596,51.131c-7.071,10.195 -6.641,72.323 144.837,80.214c44.294,2.308 44.093,1.735 86.909,12.377c41.293,10.264 235.45,-6.225 188.912,-77.344c-1.058,-1.617 -1.244,-0.991 -15.068,-19.313c-12.592,-16.688 -0.885,-35.281 -56.3,-40.13c-12.826,-1.122 -107.544,-11.407 -168.693,-6.936Z" style="fill:none;stroke:#fff;stroke-opacity:0.49;stroke-width:2.44px;"/><path d="M405.826,2222.474c-23.437,-73.711 -18.792,-82.077 21.972,-111.991c45.733,-33.56 -65.653,-115.755 28.504,-168.793c102.532,-57.755 114.398,106.31 160.528,135.957c19.493,12.528 72.428,19.716 74.142,92.304c1.505,63.727 -58.843,72.602 -67.665,73.9c-132.135,19.434 -177.319,34.012 -217.481,-21.377Z" style="fill:none;stroke:#fff;stroke-opacity:0.49;stroke-width:2.03px;"/><path d="M649.118,1826.399c-6.225,1.35 -76.985,8.977 -75.499,63.116c0.92,33.541 25.203,27.722 30.717,68.112c7.58,55.525 43.236,27.568 57.143,5.082c20.011,-32.357 16.586,-35.329 52.586,-55.96c40.249,-23.066 41.379,-60.058 35.59,-73.575c-12.049,-28.134 -97.885,-7.215 -100.536,-6.775Z" style="fill:none;stroke:#fff;stroke-opacity:0.49;stroke-width:2.44px;"/><path d="M884.014,2007.262c-64.629,162.276 155.75,67.654 177.116,48.669c8.091,-7.189 93.134,-129.682 -14.159,-184.402c-70.04,-35.721 -103.412,-55.888 -122.124,10.452c-7.484,26.535 -5.954,53.563 -12.306,69.854c-1.673,4.29 -3.904,10.01 -28.07,51.341" style="fill:none;stroke:#fff;stroke-opacity:0.49;stroke-width:2.44px;"/><path d="M1271.418,1535.491c-4.903,-1.424 -40.507,-14.597 -71.657,-8.249c-21.473,4.376 -54.979,29.474 23.766,67.651c52.593,25.499 48.742,95.096 127.215,80.952c5.017,-0.904 73.545,-20.08 29.646,-65.348c-25.609,-26.407 -27.283,-26.318 -32.315,-51.369c-5.57,-27.729 -37.631,-20.563 -76.655,-23.637Z" style="fill:none;stroke:#fff;stroke-opacity:0.49;stroke-width:2.85px;"/><path d="M1366.312,625.324c-35.268,2.888 -52.446,-60.247 -104.695,-19.655c-27.163,21.103 12.622,33.194 -21.687,93.804c-54.087,95.552 82.873,51.78 151.239,79.869c82.184,33.767 74.382,-21.408 268.053,-88.054c133.819,-46.05 84.372,-176.145 41.113,-185.126c-26.294,-5.459 -103.829,21.115 -89.748,82.469c6.552,28.549 6.128,37.866 -42.995,50.797c-14.348,3.777 -98.641,11.591 -107.313,-68.771c-0.428,-3.964 -5.139,-47.623 -51.892,-25.062c-41.281,19.92 -32.508,52.106 -31.177,56.988c4.893,17.952 3.744,21.543 -10.897,22.742Z" style="fill:none;stroke:#fff;stroke-opacity:0.15;stroke-width:2.85px;"/><path d="M1295.114,2208.492c68.626,-31.056 18.236,-73.344 103.304,-107.908c7.774,-3.159 81.694,-46.166 70.43,10.433c-20.642,103.722 26.436,126.867 -58.178,165.593c-62.148,28.444 -173.46,14.035 -115.555,-68.119Z" style="fill:none;stroke:#faffff;stroke-opacity:0.49;stroke-width:4.07px;"/><path d="M1424.151,1788.82c42.547,-7.728 34.838,18.543 131.841,12.24c45.418,-2.951 -12.484,32.91 -71.015,85.525c-49.269,44.289 -68.539,-18.022 -85.496,-43.054c-15.674,-23.138 5.342,-45.467 24.67,-54.711Z" style="fill:none;stroke:#faffff;stroke-opacity:0.49;stroke-width:2.03px;"/><path d="M73.984,909.285c76.572,-52.875 106.066,-9.491 176.242,-67.257c60.295,-49.632 181.468,-89.775 217.207,-81.66c100.283,22.771 52.713,135.209 47.86,146.681c-35.601,84.148 -1.704,97.352 -75.697,163.009c-148.412,131.692 -173.437,11.884 -259.433,-8.448c-66.645,-15.757 -164.735,25.718 -166.774,-98.047c-0.683,-41.453 25.964,-23.896 60.596,-54.277Z" style="fill:none;stroke:#fff;stroke-opacity:0.49;stroke-width:2.44px;"/><path d="M110.557,618.658c15.61,9.516 51.392,30.978 162.851,-24.838c33.082,-16.567 19.076,-24.941 38.57,-64.794c35.549,-72.677 -32.955,-67.111 -124.973,-59.745c-52.238,4.182 -99.084,135.577 -76.447,149.377Z" style="fill:none;stroke:#fff;stroke-opacity:0.49;stroke-width:2.03px;"/><path d="M820.643,1653.741c-4.967,27.867 -31.905,83.565 45.106,88.401c145.628,9.146 16.824,-81.072 10.85,-97.982c-7.197,-20.37 34.927,-64.693 -9.454,-66.542c-26.217,-1.092 -40.393,20.825 -42.655,25.308c-12.79,25.343 0.982,23.726 -3.846,50.814Z" style="fill:none;stroke:#fff;stroke-opacity:0.49;stroke-width:4.07px;"/><path d="M847.686,929.455c-66.795,38.871 -123.534,62.364 -80.066,121.695c21.886,29.872 57.509,18.923 50.305,82.535c-8.406,74.222 58.078,47.545 69.672,7.674c22.281,-76.619 -56.995,-88.507 -4.449,-177.888c23.667,-40.257 -5.416,-44.45 -35.463,-34.016Z" style="fill:none;stroke:#fff;stroke-opacity:0.49;stroke-width:1.63px;"/><path d="M1112.823,942.803c-61.767,3.647 -134.154,90.28 15.862,91.399c58.453,0.436 119.708,-32.113 119.207,-59.647c-0.696,-38.257 -52.781,-45.329 -135.07,-31.752Z" style="fill:none;stroke:#fff;stroke-opacity:0.49;stroke-width:2.03px;"/><path d="M415.878,1439.29c-58.753,17.32 -3.161,40.437 -22.162,89.913c-13.9,36.192 35.001,20.364 95.245,3.303c57.93,-16.406 106.467,-29.741 86.087,-52.91c-21.412,-24.341 -58.913,-39.652 -159.17,-40.305Z" style="fill:none;stroke:#fff;stroke-opacity:0.49;stroke-width:4.07px;"/><path d="M1841.699,279.395c-67.463,15.026 -48.2,27.429 -45.482,77.071c2.305,42.111 43.969,44.303 92.876,53.684c32.836,6.298 52.264,2.696 75.638,-29.685c8.417,-11.66 7.358,-12.265 8.611,-59.832c0.409,-15.516 -32.627,-46.287 -96.958,-41.914c-19.436,1.321 -15.047,-3.698 -34.685,0.676Z" style="fill:none;stroke:#fff;stroke-opacity:0.49;stroke-width:4.07px;"/><path d="M1573.377,87.452c-44.104,6.614 9.762,77.408 45.376,78.081c51.661,0.977 82.789,-77.361 -45.376,-78.081Z" style="fill:none;stroke:#fff;stroke-opacity:0.49;stroke-width:2.03px;"/><path d="M3119.778,1022.653c83.653,-18.582 10.853,-55.892 26.313,-81.372c2.3,-3.792 60.667,-47.998 71.764,8.674c7.401,37.801 8.885,37.943 36.651,65.396c43.687,43.196 -56.224,109.19 -97.122,48.77c-15.716,-23.219 -9.549,-15.43 -32.99,-27.839c-8.53,-4.516 -14.415,-10.847 -4.615,-13.63Z" style="fill:none;stroke:#faffff;stroke-opacity:0.49;stroke-width:1.63px;"/><path d="M3548.446,1032.649c-73.146,47.617 -22.765,83.979 -6.344,103.282c20.954,24.631 66.219,11.75 45.743,-24.429c-20.707,-36.588 12.2,-37.531 6.813,-71.34c-5.428,-34.068 -53.05,-4.668 -56.691,-2.421" style="fill:none;stroke:#faffff;stroke-opacity:0.49;stroke-width:2.85px;"/><path d="M3646.642,264.359c-16.719,32.926 -32.603,151.635 31.699,148.594c4.362,-0.206 78.014,-14.682 52.063,-91.458c-21.41,-63.341 -68.909,-86.389 -83.762,-57.137Z" style="fill:none;stroke:#fff;stroke-opacity:0.49;stroke-width:2.03px;"/><path d="M3794.757,599.632c-45.805,-16.637 -61.201,-9.819 -57.862,-33.139c3.936,-27.49 -23.126,-22.038 -23.002,-50.991c0.025,-5.918 8.581,-62.855 27.678,-48.187c11.689,8.978 12.3,18.038 38.339,19.761c5.64,0.373 30.7,-4.436 46.68,41.756c0.969,2.8 5.306,15.339 -3.554,36.293c-12.626,29.861 -14.018,31.09 -28.278,34.505Z" style="fill:none;stroke:#fff;stroke-opacity:0.49;stroke-width:4.07px;"/><path d="M3600.858,12.717c-44.641,38.513 22.316,45.993 36.207,31.963c8.562,-8.648 9.739,-52.559 -36.207,-31.963Z" style="fill:none;stroke:#fff;stroke-opacity:0.49;stroke-width:1.63px;"/><path d="M3809.346,186.593c-81.689,1.915 -34.75,67.39 19.648,53.499c26.407,-6.744 28.218,-33.066 13.652,-45.446c-13.638,-11.592 -31.412,-7.944 -33.3,-8.052Z" style="fill:none;stroke:#fff;stroke-opacity:0.49;stroke-width:4.07px;"/><path d="M3081.17,715.998c-30.175,47.491 6.403,73.351 -20.338,107.837c-36.017,46.448 222.589,56.294 186.663,2.077c-22.768,-34.36 -89.103,11.835 -96.671,-63.045c-0.606,-5.993 -34.956,-77.715 -69.655,-46.868Z" style="fill:none;stroke:#fff;stroke-opacity:0.49;stroke-width:2.03px;"/><path d="M373.5,1326.455c39.555,30.264 49.786,33.693 110.821,-2.987c53.887,-32.384 221.093,8.369 162.57,-70.379c-50.442,-67.874 53.404,-120.99 -44.547,-144.793c-6.968,-1.693 -125.122,-17.767 -127.422,31.924c-3.973,85.826 -17.53,75.312 -99.922,107.415c-70.163,27.338 -17.518,65.001 -1.5,78.82Z" style="fill:none;stroke:#fff;stroke-opacity:0.49;stroke-width:2.85px;"/><path d="M88.329,1340.581c65.696,43.308 89.583,-12.956 116.01,-21.35c2.467,-0.784 59.225,-8.494 30.116,-52.067c-29.966,-44.856 -27.525,-51.022 -86.572,-65.942c-1.645,-0.416 -53.998,-30.917 -93.255,87.695c-9.832,29.707 7.286,30.243 33.701,51.664Z" style="fill:none;stroke:#fff;stroke-opacity:0.49;stroke-width:4.07px;"/><path d="M2119.809,-9.321c-0.791,4.116 2.774,16.261 2.937,16.899c4.207,16.43 16.683,70.846 69.953,73.629c35.96,1.879 92.234,-41.18 48.62,-83.109" style="fill:none;stroke:#faffff;stroke-opacity:0.49;stroke-width:2.44px;"/><path d="M1867.143,2.006c-133.19,129.02 181.906,108.704 226.905,77.684c44.29,-30.531 -56.455,-30.088 -47.522,-97.797" style="fill:none;stroke:#faffff;stroke-opacity:0.49;stroke-width:4.07px;"/><path d="M870.867,0c-52.331,147.92 -12.243,157.442 -8.177,158.899c30.282,10.848 32.967,-5.12 103.703,7.304c64.52,11.332 57.936,-11.26 113.265,-70.702c28.02,-30.103 -24.563,-13.698 -74.985,-57.212c-37.572,-32.425 -52.129,-13.455 -93.808,-42.697c-34.67,-24.324 -37.654,1.254 -39.998,4.409Z" style="fill:none;stroke:#fff;stroke-opacity:0.49;stroke-width:1.63px;"/><path d="M671.542,232.652c-63.362,30.235 -37.054,58.946 -23.974,61.012c30.774,4.862 79.389,-38.962 61.664,-83.887c-2.887,-7.317 -26.064,17.327 -37.69,22.875Z" style="fill:none;stroke:#fff;stroke-opacity:0.49;stroke-width:1.63px;"/><path d="M1008.891,388.029c-18.544,9.885 -84.397,67.97 8.051,77.885c48.592,5.212 129.391,18.527 79.391,-32.43c-50.713,-51.685 -73.865,-55.113 -87.442,-45.455Z" style="fill:none;stroke:#fff;stroke-opacity:0.49;stroke-width:1.63px;"/><path d="M871.177,270.126c-32.523,21.411 25.451,67.048 16.072,102.614c-1.2,4.552 -11.351,23.027 8.126,32.784c51.623,25.86 97.67,-71.944 92.915,-80.518c-10.757,-19.397 -10.405,-19.528 -12.587,-40.778c-7.223,-70.341 -102.003,-67.101 -87.528,-34.388c4.579,10.347 7.546,10.473 4.133,14.899c-4.555,5.909 -13.3,0.231 -21.132,5.387Z" style="fill:none;stroke:#fff;stroke-opacity:0.49;stroke-width:2.85px;"/><path d="M553.947,-6.931c-10.658,10.95 -68.221,61.075 -9.854,74.305c53.367,12.097 68.674,-16.767 175.17,-21.027c66.318,-2.653 165.819,-129.074 -165.316,-53.278Z" style="fill:none;stroke:#fff;stroke-opacity:0.49;stroke-width:3.25px;"/><path d="M80.963,236.754c51.332,-11.594 42.786,40.064 120.179,28.708c24.806,-3.64 170.312,-35.393 198.779,-88.981c27.805,-52.34 -21.304,-64.139 -83.177,-98.842c-66.936,-37.543 -122.131,31.681 -218.114,27.475c-3.885,-0.17 -69.781,-13.29 -76.09,42.731c-1.51,13.41 1.777,37.955 13.566,57.242c18.427,30.145 40.376,29.451 44.856,31.667Z" style="fill:none;stroke:#fff;stroke-opacity:0.49;stroke-width:2.03px;"/><path d="M3518.947,1360.855c50.925,-59.615 93.544,3.301 113.665,15.586c2.557,1.561 85.67,22.94 44.585,67.787c-39.051,42.627 -195.339,-29.052 -158.25,-83.373Z" style="fill:none;stroke:#fff;stroke-opacity:0.49;stroke-width:4.07px;"/><path d="M3783.838,1120.641c-14.548,12.678 -62.454,64.948 -64.187,77.052c-0.542,3.782 -1.863,13.798 8.386,32.892c19.209,35.783 134.99,47.608 80.139,-44.452c-17.295,-29.028 2.559,-38.913 7.241,-51.817c0.511,-1.408 -15.618,-27.585 -31.58,-13.676Z" style="fill:none;stroke:#fff;stroke-opacity:0.49;stroke-width:2.03px;"/><path d="M3681.04,813.15c-37.129,60.792 23.036,76.173 20.027,106.579c-0.557,5.629 -0.915,5.325 -4.074,18.505c-11.656,48.639 86.107,80.106 77.214,-6.972c-5.698,-55.799 37.257,-82.221 5.893,-115.641c-29.435,-31.364 -90.09,-17.158 -99.06,-2.471Z" style="fill:none;stroke:#fff;stroke-opacity:0.49;stroke-width:2.85px;"/><path d="M3441.986,843.119c-57.758,23.048 -29.293,52.936 12.312,46.769c66.932,-9.921 102.003,0.298 103.437,-55.718c0.981,-38.311 -73.17,-59.018 -81.703,-27.792c-6.929,25.356 -3.954,28.342 -34.046,36.741Z" style="fill:none;stroke:#fff;stroke-opacity:0.49;stroke-width:2.85px;"/><path d="M3322.006,1021.256c-45.405,49.072 24.857,102.681 50.603,48.026c31.879,-67.673 129.114,-19 119.851,-68.901c-1.388,-7.48 -24.12,-59.172 -60.863,-67.829c-17.852,-4.206 -93.219,-5.837 -81.731,19.153c8.682,18.885 6.654,32.25 -27.86,69.552Z" style="fill:none;stroke:#fff;stroke-opacity:0.49;stroke-width:2.85px;"/><path d="M2993.93,114.452c-8.812,-11.921 16.82,-45.782 53.862,-46.017c33.882,-0.215 41.891,37.579 15.013,52.626c-31.155,17.442 -63.654,0.455 -68.876,-6.609Z" style="fill:none;stroke:#fff;stroke-opacity:0.49;stroke-width:1.63px;"/><path d="M3298.928,-5.157c21.15,74.496 113.437,-7.853 68.367,-20.296c-12.927,-3.569 -33.859,0.008 -36.738,0.499c-22.073,3.771 -33.174,14.353 -31.629,19.796Z" style="fill:none;stroke:#fff;stroke-opacity:0.49;stroke-width:1.22px;"/><path d="M3215.693,229.444c-12.923,-16.249 -91.985,-113.453 35.718,-104.686c55.183,3.789 -1.043,53.935 9.115,72.329c11.397,20.64 120.657,18.085 92.439,77.146c-17.996,37.667 -35.033,20.575 -61.206,60.402c-5.518,8.397 -22.946,11.549 -50.302,1.468c-35.665,-13.144 -14.102,-68.085 -12.907,-75.864c2.388,-15.535 -6.551,-24.867 -12.857,-30.796Z" style="fill:none;stroke:#fff;stroke-opacity:0.49;stroke-width:2.03px;"/><path d="M2856.806,175.205c-27.437,65.069 35.872,44.87 82.991,35.853c41.935,-8.025 39.844,-56.264 5.397,-65.473c-44.399,-11.869 -82.283,15.142 -88.388,29.62Z" style="fill:none;stroke:#fff;stroke-opacity:0.49;stroke-width:1.63px;"/><path d="M3275.416,538.488c2.209,-9.957 15.396,-103.084 82.01,-48.975c46.249,37.567 -25.535,63.895 3.287,101.087c18.925,24.42 -54.044,15.979 -69.373,7.548c-34.405,-18.923 -18.243,-49.204 -15.924,-59.66Z" style="fill:none;stroke:#fff;stroke-opacity:0.49;stroke-width:2.03px;"/><path d="M2763.026,-13.207c6.967,63.679 52.592,27.805 101.333,38.205c7.233,1.543 87.272,29.532 104.929,-30.599" style="fill:none;stroke:#faffff;stroke-opacity:0.49;stroke-width:2.03px;"/><path d="M2571.132,-3.013c2.553,17.54 3.257,60.803 103.45,39.996c70.999,-14.744 0.71,-41.015 -3.031,-42.413" style="fill:none;stroke:#faffff;stroke-opacity:0.49;stroke-width:1.22px;"/><path d="M1258.488,-6.369c-6.163,28.024 -4.764,32.151 26.307,44.582c27.053,10.823 11.493,56.147 60.401,52.875c96.701,-6.47 53.314,-139.574 4.399,-90.849c-2.247,2.239 -38.068,55.735 -55.486,3.988c-13.022,-38.689 -34.447,-12.824 -35.62,-10.595Z" style="fill:none;stroke:#fff;stroke-opacity:0.49;stroke-width:1.63px;"/><path d="M888.804,1293.168c-33.276,29.157 -43.189,29.708 -46.376,68.874c-3.4,41.772 -5.401,37.715 -29.098,74.399c-38.998,60.369 60.097,69.199 86.628,27.64c21.053,-32.978 5.963,-45.765 58.535,-64.129c42.835,-14.963 93.034,-37.823 72.174,-85.353c-18.505,-42.162 -125.583,-35.695 -141.862,-21.431Z" style="fill:none;stroke:#fff;stroke-opacity:0.2;stroke-width:2.44px;"/><path d="M1402.907,1031.598c-28.27,24.907 -37.417,80.23 -4.218,109.377c68.463,60.107 152.183,21.507 168.14,3.889c33.795,-37.313 -26.434,-51.368 -39.832,-105.121c-5.272,-21.151 -3.555,-32.665 -28.504,-58.683c-10.709,-11.167 -34.25,-16.109 -44.815,4.067c-14.135,26.993 -24.27,26.789 -50.771,46.471Z" style="fill:none;stroke:#fff;stroke-opacity:0.49;stroke-width:2.85px;"/></g><g id="Far"><path d="M439.695,2190.36c3.872,-71.202 60.311,-54.54 70.998,-100.729c10.507,-45.407 -79.454,-27.545 -53.497,-88.397c14.386,-33.726 86.374,-35.971 106.818,26.362c13.174,40.166 3.901,47.048 46.38,68.983c1.321,0.682 54.103,15.674 22.663,78.572c-3.968,7.939 -12.158,59.894 -116.11,42.43c-11.628,-1.954 -25.209,-1.328 -57.459,-4.25c-18.917,-1.714 -20.671,-6.824 -19.793,-22.971Z" style="fill:none;stroke:#fff;stroke-opacity:0.49;stroke-width:3.25px;"/><path d="M927.119,1972.663c-7.473,16.191 -51.687,79.426 50.404,80.276c110.684,0.921 103.827,-116.626 87.829,-136.484c-3.396,-4.215 -44.894,-42.523 -84.406,-16.184c-24.221,16.145 -21.791,26.161 -53.827,72.392Z" style="fill:none;stroke:#fff;stroke-opacity:0.49;stroke-width:2.03px;"/><path d="M1921.639,868.431c-16.524,8.167 -45.655,25.139 -35.499,61.967c14.321,51.928 94.649,24.261 177.219,9.918c18.083,-3.141 20.091,-33.919 -37.502,-31.326c-43.863,1.975 -48.791,-0.701 -65.588,-34.361c-9.797,-19.633 -17.811,-18.878 -38.631,-6.197Z" style="fill:none;stroke:#fff;stroke-opacity:0.3;stroke-width:2.44px;"/><path d="M1700.295,729.193c-1.95,1.226 -62.679,30.967 -69.475,81.675c-5.692,42.469 128.144,56.109 150.363,13.549c6.528,-12.504 14.73,-145.841 -80.888,-95.225Z" style="fill:none;stroke:#fff;stroke-opacity:0.15;stroke-width:2.85px;"/><path d="M1324.287,667.607c-44.413,-2.182 -48.257,42.723 20.304,50.731c43.416,5.071 42.959,6.479 86.208,11.72c62.09,7.523 68.576,-53.026 47.331,-63.469c-37.701,-18.533 -91.297,-3.865 -98.804,-1.81c-29.763,8.146 -30.311,7.362 -55.039,2.829Z" style="fill:none;stroke:#fff;stroke-opacity:0.35;stroke-width:3.25px;"/><path d="M1647.562,539.842c-28.896,31.227 -27.469,36.008 -13.185,58.533c18.924,29.842 -50.923,60.472 -12.939,66.147c1.514,0.226 108.585,2.102 92.774,-50.015c-11.184,-36.866 17.908,-41.48 0.089,-64.048c-23.67,-29.979 -59.195,-18.768 -66.739,-10.616Z" style="fill:none;stroke:#fff;stroke-opacity:0.35;stroke-width:3.25px;"/><path d="M91.913,692.178c51.077,-40.167 65.71,-14.517 129.229,-39.791c39.118,-15.565 38.81,-16.168 81.151,-23.114c96.506,-15.832 35.431,-62.058 51.574,-101.239c1.336,-3.242 48.981,-58.862 -51.557,-92.439c-35.764,-11.944 -137.712,1.171 -172.211,29.645c-67.978,56.108 -139.944,156.901 -38.186,226.938Z" style="fill:none;stroke:#fff;stroke-opacity:0.15;stroke-width:2.85px;"/><path d="M327.208,901.833c-80.957,26.53 -27.989,65.593 11.422,108.522c24.471,26.655 104.063,32.982 98.532,-49.979c-4.323,-64.848 6.85,-77.99 -12.004,-88.304c-22.395,-12.25 -62.602,9.276 -97.95,29.761Z" style="fill:none;stroke:#fff;stroke-opacity:0.49;stroke-width:1.63px;"/><path d="M1216.689,1223.777c-87.518,52.721 -82.833,166.15 -10.81,183.458c13.346,3.207 106.574,15.481 119.846,-15.812c9.31,-21.951 -9.374,-34.645 48.004,-59.305c3.984,-1.712 44.375,-11.124 27.261,-55.574c-2.38,-6.183 -14.056,-36.508 -79.778,-47.076c-53.813,-8.653 -85.491,-17.156 -104.523,-5.691Z" style="fill:none;stroke:#fff;stroke-opacity:0.25;stroke-width:3.25px;"/><path d="M1483.672,1037.703c-56.651,10.638 -84.877,58.094 -31.797,92.159c7.614,4.886 74.736,22.854 72.926,-19.056c-1.285,-29.756 -25.223,-76.09 -41.128,-73.104Z" style="fill:none;stroke:#fff;stroke-opacity:0.49;stroke-width:2.03px;"/><path d="M1751.705,956.756c-15.384,35.321 -25.709,64.985 -111.559,91.114c-81.561,24.824 77.059,60.505 114.675,27.844c30.626,-26.592 19.689,-31.391 38.549,-77.356c5.764,-14.048 -0.625,-26.051 -9.265,-37.916c-10.839,-14.886 -25.832,-18.763 -32.4,-3.685Z" style="fill:none;stroke:#fff;stroke-opacity:0.49;stroke-width:2.44px;"/><path d="M2852.458,737.796c-39.201,29.946 50.419,127.787 52.47,160.602c1.626,26.014 -9.278,34.675 32.765,50.834c54.486,20.941 51.757,47.39 97.673,27.296c47.944,-20.982 53.687,36.145 73.322,14.028c31.549,-35.537 -113.796,-125.304 -78.494,-129.753c19.793,-2.494 55.188,53.529 158.597,29.654c111.07,-25.643 109.86,-106.879 68.339,-107.642c-52.735,-0.97 -57.375,-5.7 -71.969,-47.847c-2.666,-7.7 -21.164,-61.121 -96.897,-59.909c-69.44,1.112 -49.699,62.761 -47.732,68.904c18.424,57.535 -34.197,47.116 -91.714,61.384c-85.232,21.142 -51.658,-76.008 -96.361,-67.551Z" style="fill:none;stroke:#faffff;stroke-opacity:0.2;stroke-width:2.44px;"/><path d="M3794.244,612.872c-97.738,-14.596 -134.324,13.301 -131.329,-36.396c2.384,-39.542 52.657,-67.043 27.818,-127.065c-16.881,-40.792 -80.92,-18.791 -72.731,-94.461c6.401,-59.154 -14.685,-65.538 10.082,-116.895c16.839,-34.916 96.516,32.078 100.905,46.783c26.496,88.787 51.083,44.426 41.961,100.325c-13.436,82.333 56.449,68.22 84.719,122.561c42.559,81.808 -16.493,85.978 -61.424,105.149Z" style="fill:none;stroke:#fff;stroke-opacity:0.49;stroke-width:4.07px;"/><path d="M485.24,1209.101c35.246,-46.047 9.121,-96.151 77.81,-86.84c86.489,11.724 68.131,43.58 65.105,48.831c-13.08,22.697 -28.483,28.858 -16.239,83.206c14.231,63.169 -69.635,12.263 -178.173,64.127c-52.02,24.858 -88.676,-50.15 -30.12,-65.703c42.008,-11.158 51.575,-11.24 81.616,-43.621Z" style="fill:none;stroke:#fff;stroke-opacity:0.49;stroke-width:2.03px;"/><path d="M2139.343,-13.766c-3.481,57.378 50.302,71.634 68.579,68.33c46.802,-8.461 5.928,-50.385 -4.366,-72.098" style="fill:none;stroke:#faffff;stroke-opacity:0.49;stroke-width:2.03px;"/><path d="M1903.693,-0.206c-7.277,7.41 -63.557,51.312 -6.811,79.557c12.667,6.305 53.058,18.84 93.725,9.171c27.833,-6.618 27.48,-7.456 56.39,-10.126c33.167,-3.063 17.474,-22.279 3.488,-37.654c-31.311,-34.42 -41.444,-37.077 -40.714,-54.249" style="fill:none;stroke:#faffff;stroke-opacity:0.49;stroke-width:1.22px;"/><path d="M1835.622,480.564c-68.753,23.404 -82.195,149.515 -46.042,174.337c50.342,34.565 110.547,-30.056 117.351,-32.684c32.279,-12.465 103.892,45.595 163.281,-15.959c45.495,-47.153 -14.272,-152.879 -83.254,-147.946c-26.746,1.913 -25.862,6.373 -90.04,10.645c-36.775,2.448 -25.832,1.899 -61.296,11.606Z" style="fill:none;stroke:#fff;stroke-opacity:0.15;stroke-width:4.07px;"/><path d="M603.691,-5.305c-68.589,13.473 -31.723,38.413 -27.915,40.11c27.787,12.387 129.755,5.504 133.413,-36.761c0.556,-6.425 -16.067,-63.519 -105.498,-3.349Z" style="fill:none;stroke:#fff;stroke-opacity:0.49;stroke-width:1.22px;"/><path d="M53.636,144.242c126.657,-6.899 154.137,-39.223 211.026,-30.668c131.663,19.8 50.551,137.885 -70.414,91.581c-112.837,-43.193 -121.658,-0.88 -156.275,-13.316c-36.979,-13.284 11.918,-45.155 15.663,-47.596Z" style="fill:none;stroke:#fff;stroke-opacity:0.49;stroke-width:1.63px;"/><path d="M3789.558,1057.003c-49.263,38.157 -55.729,35.183 -66.335,65.802c-14.744,42.568 -46.661,39.76 -56.349,64.209c-1.094,2.761 -1.905,5.87 -2.375,9.432c-5.128,38.824 110.853,108.753 144.15,105.717c97.696,-8.91 94.754,-166.589 69.217,-198.93c-44.026,-55.757 -84.485,-46.214 -88.307,-46.23Z" style="fill:none;stroke:#fff;stroke-opacity:0.1;stroke-width:4.07px;"/><path d="M3528.671,581.168c-57.762,84.134 95.591,97.785 99.2,97.257c11.53,-1.686 39.559,-22.47 -5.763,-49.269c-48.514,-28.686 -73.66,-76.794 -93.436,-47.988Z" style="fill:none;stroke:#fff;stroke-opacity:0.49;stroke-width:1.22px;"/><path d="M2986.287,232.943c-80.683,46.087 7.272,91.661 34.303,55.091c16.797,-22.724 3.469,-147.336 113.235,-118.624c76.538,20.02 37.97,91.851 33.916,99.402c-28.545,53.163 16.561,52.71 37.701,78.026c19.702,23.593 31.261,92.359 96.566,66.383c50.372,-20.036 -25.375,-56.774 7.494,-84.941c14.553,-12.471 123.237,-77.911 26.896,-121.361c-85.033,-38.35 6.463,-129.332 -67.603,-117.45c-53.677,8.612 -63.729,13.367 -90.604,-26.444c-35.361,-52.38 -120.736,-20.353 -98.131,-6.124c3.621,2.279 110.11,47.727 -8.934,80.465c-15.7,4.318 -48.867,10.781 -58.155,38.85c-9.209,27.829 3.54,34.226 -26.683,56.726Z" style="fill:none;stroke:#fff;stroke-opacity:0.25;stroke-width:2.85px;"/><path d="M2847.194,547.455c18.353,-18.951 66.888,-27.61 100.418,36.531c6.076,11.623 7.144,40.033 -2.536,54.255c-12.014,17.652 -74.671,52.675 -88.839,5.383c-4.815,-16.072 -28.2,-76.389 -9.044,-96.169Z" style="fill:none;stroke:#fff;stroke-opacity:0.15;stroke-width:4.07px;"/><path d="M2827.588,-34.796c30.561,47.022 46.325,51.438 52.619,53.202c6.769,1.896 87.095,9.173 65.803,-36.225" style="fill:none;stroke:#faffff;stroke-opacity:0.49;stroke-width:1.22px;"/><path d="M817.923,-29.686c-42.498,124.278 -21.407,142.642 -104.441,173.345c-16.341,6.042 -72.987,26.989 -143.522,142.082c-35.963,58.682 67.532,122.58 103.094,84.47c37.542,-40.232 26.821,-48.625 84.963,-78.171c23.432,-11.907 85.908,-61.578 83.15,-8.334c-1.785,34.463 -22.982,32.245 -15.644,78.967c5.885,37.471 -118.269,23.776 -68.209,97.381c26.341,38.729 27.174,40.923 9.99,83.563c-14.269,35.407 26.956,98.728 127.485,42.318c79.284,-44.489 147.041,28.223 57.708,68.409c-8.73,3.927 -68.956,20.878 -45.542,57.22c2.15,3.337 64.88,74.364 155.059,52.226c121.409,-29.805 138.256,-82.502 76.105,-82.68c-5.734,-0.016 -112.776,38.116 -96.988,-41.27c7.287,-36.643 64.065,-73.213 -36.624,-106.964c-5.465,-1.832 -80.693,-4.287 -58.973,-32.47c41.191,-53.449 122.338,24.196 177.43,16.802c48.586,-6.52 96.663,-62.178 -4.529,-106.474c-0.198,-0.087 -73.803,-23.169 -92.896,-69.42c-36.665,-88.818 132.785,-89.661 105.388,-148.859c-16.14,-34.875 -36.623,-46.371 19.722,-79.66c14.514,-8.575 126.321,-66.424 -51.092,-128.362" style="fill:none;stroke:#faffff;stroke-opacity:0.49;stroke-width:0.81px;"/></g><g id="Very-Far" serif:id="Very Far"><path d="M323.471,1738.606c-5.433,-0.394 -67.666,-3.472 -58.113,25.523c9.214,27.963 83.081,27.512 103.335,17.556c8.349,-4.104 38.05,-48.973 -45.222,-43.079Z" style="fill:none;stroke:#fff;stroke-opacity:0.49;stroke-width:1.63px;"/><path d="M524.693,1720.346c-88.021,18.393 -7.143,60.901 10.696,60.56c34.431,-0.658 40.618,-20.974 37.224,-31.776c-7.39,-23.52 -27.344,-33.084 -47.92,-28.784Z" style="fill:none;stroke:#fff;stroke-opacity:0.49;stroke-width:1.63px;"/><path d="M88.654,1983.2c21.428,28.988 89.239,23.879 101.144,60.589c10.502,32.384 -49.817,10.906 -103.936,34.39c-47.655,20.679 -67.173,-24.861 -49.303,-57.334c28.935,-52.579 46.149,-39.788 52.095,-37.644Z" style="fill:none;stroke:#fff;stroke-opacity:0.49;stroke-width:2.03px;"/><path d="M253.161,2091.352c-76.668,14.1 15.372,39.24 19.01,40.347c40.411,12.299 49.952,25.706 66.29,17.337c4.714,-2.415 69.069,-84.387 4.014,-56.216c-38.038,16.472 -40.717,-8.389 -89.313,-1.468Z" style="fill:none;stroke:#fff;stroke-opacity:0.49;stroke-width:1.63px;"/><path d="M153.138,2181.186c16.638,-60.249 98.376,-43.533 112.287,-4.197c21.371,60.43 -118.139,43.458 -112.287,4.197Z" style="fill:none;stroke:#fff;stroke-opacity:0.49;stroke-width:2.85px;"/><path d="M459.488,2177.977c54.16,-37.835 87.703,-91.73 124.752,-59.556c4.394,3.815 59.277,71.806 -15.989,73.934c-91.806,2.596 -105.138,-7.948 -108.763,-14.378Z" style="fill:none;stroke:#fff;stroke-opacity:0.49;stroke-width:2.85px;"/><path d="M493.903,2002.24c-37.426,11.856 -1.104,55.238 34.69,53.322c35.032,-1.875 11.009,-67.799 -34.69,-53.322Z" style="fill:none;stroke:#fff;stroke-opacity:0.49;stroke-width:1.63px;"/><path d="M216.978,1584.51c-5.305,0.309 -67.506,-2.791 -76.104,36.893c-6.725,31.039 42.144,27.277 46.676,26.929c72.937,-5.614 81.741,-62.747 29.429,-63.822Z" style="fill:none;stroke:#fff;stroke-opacity:0.49;stroke-width:1.63px;"/><path d="M992.217,1921.309c-14.719,10.585 -49.651,29.729 -25.425,67.188c16.859,26.07 94.254,23.767 86.063,-30.374c-6.478,-42.814 -23.917,-45.086 -60.637,-36.813Z" style="fill:none;stroke:#fff;stroke-opacity:0.49;stroke-width:1.63px;"/><path d="M1044.495,1706.964c18.665,-30.044 85.055,-49.855 104.32,20.319c15.69,57.15 48.452,104.288 -29.655,88.34c-12.599,-2.572 -94.925,-27.704 -74.664,-108.659Z" style="fill:none;stroke:#fff;stroke-opacity:0.49;stroke-width:1.63px;"/><path d="M1230.112,1912.012c-22.206,35.284 1.56,80.26 49.655,79.625c44.992,-0.594 -7.124,-86.246 -49.655,-79.625Z" style="fill:none;stroke:#fff;stroke-opacity:0.49;stroke-width:1.63px;"/><path d="M1324.903,1607.167c-39.295,20.575 -5.424,51.636 21.429,44.374c9.602,-2.597 43.918,-42.648 -21.429,-44.374Z" style="fill:none;stroke:#fff;stroke-opacity:0.49;stroke-width:1.63px;"/><path d="M1343.553,1719.926c-20.088,9.255 -43.323,20.099 -38.613,53.903c4.086,29.325 80.5,43.168 91.571,-4.826c11.493,-49.823 -41.529,-47.469 -52.958,-49.077Z" style="fill:none;stroke:#fff;stroke-opacity:0.49;stroke-width:2.03px;"/><path d="M1124.041,2185.266c-28.04,-92.5 48.912,-86.12 65.324,-66.45c23.871,28.609 8.624,132.88 -65.324,66.45Z" style="fill:none;stroke:#fff;stroke-opacity:0.49;stroke-width:2.03px;"/><path d="M1942.795,679.496c-77.281,-3.393 -4.834,56.933 7.292,58.283c5.219,0.581 40.165,-38.008 -7.292,-58.283Z" style="fill:none;stroke:#fff;stroke-opacity:0.49;stroke-width:1.63px;"/><path d="M1703.437,760.844c-51.493,23.19 -56.456,54.584 -3.187,57.964c89.861,5.702 70.355,-38.857 56.654,-50.878c-20.648,-18.116 -49.933,-7.737 -53.467,-7.086Z" style="fill:none;stroke:#fff;stroke-opacity:0.2;stroke-width:2.03px;"/><path d="M1466.244,1833.76c-43.755,31.281 -14.303,41.243 2.093,36.326c56.395,-16.912 97.11,-90.062 -2.093,-36.326Z" style="fill:none;stroke:#faffff;stroke-opacity:0.49;stroke-width:1.63px;"/><path d="M307.109,931.736c-8.483,40.159 35.687,47.703 60.79,59.011c18.921,8.524 71.261,19.319 50.037,-40.691c-8.421,-23.81 13.8,-55.238 -35.757,-48.871c-10.627,1.365 -70.98,11.19 -75.07,30.55Z" style="fill:none;stroke:#fff;stroke-opacity:0.49;stroke-width:1.22px;"/><path d="M553.8,583.074c-57.678,25.253 28.229,69.355 36.292,79.802c14.895,19.298 19.225,29.129 56.893,11.267c34.288,-16.259 45.144,-20.181 26.575,-49.23c-28.035,-43.857 1.632,-49.317 -0.467,-68.727c-0.817,-7.562 -26.283,-32.854 -45.752,-2.604c-20.439,31.758 -32.498,18.052 -73.541,29.492Z" style="fill:none;stroke:#fff;stroke-opacity:0.25;stroke-width:2.03px;"/><path d="M125.009,592.017c-0.445,13.967 -5.251,37.623 64.316,22.425c79.556,-17.381 50.252,-42.7 66.142,-66.929c5.022,-7.658 84.259,-61.202 13.546,-64.63c-59.969,-2.907 -89.883,-15.979 -119.256,27.945c-13.564,20.283 -24.453,74.609 -24.748,81.189Z" style="fill:none;stroke:#fff;stroke-opacity:0.49;stroke-width:2.03px;"/><path d="M187.301,928.932c-98.316,-0.774 -76.848,76.037 -33.481,84.757c61.488,12.365 125.884,-74.231 33.481,-84.757Z" style="fill:none;stroke:#fff;stroke-opacity:0.49;stroke-width:2.03px;"/><path d="M247.172,1436.533c-50.671,1.438 -36.868,33.371 -5.588,36.74c52.346,5.637 68.764,-12.656 63.686,-22.695c-1.338,-2.644 -10.566,-15.393 -58.098,-14.044Z" style="fill:none;stroke:#fff;stroke-opacity:0.49;stroke-width:1.63px;"/><path d="M436.168,1462.595c-75.998,14.51 16.7,90.636 65.991,45.386c19.004,-17.447 7.592,-59.435 -65.991,-45.386Z" style="fill:none;stroke:#fff;stroke-opacity:0.49;stroke-width:1.63px;"/><path d="M539.198,1371.619c-5.849,2.295 -32.083,12.737 -40.107,24.933c-28.454,43.247 114.043,29.845 121.131,13.497c6.142,-14.166 -38.444,-52.339 -81.024,-38.43Z" style="fill:none;stroke:#fff;stroke-opacity:0.49;stroke-width:1.22px;"/><path d="M675.922,1338.297c-14.129,2.915 -56.754,8.86 -49.831,25.653c11.942,28.967 78.617,27.135 90.169,-40.397c2.109,-12.331 -5.474,-17.346 -15.23,-7.809c-12.127,11.855 -9.124,19.255 -25.108,22.553Z" style="fill:none;stroke:#fff;stroke-opacity:0.49;stroke-width:1.22px;"/><path d="M910.052,1299.437c-74.429,20.876 -7.342,84.149 63.091,71.129c51.711,-9.56 61.915,-38.867 39.148,-56.712c-24.642,-19.314 -66.749,-20.041 -102.239,-14.416Z" style="fill:none;stroke:#fff;stroke-opacity:0.49;stroke-width:2.03px;"/><path d="M1164.604,1324.68c0.461,-16.791 40.014,-90.733 123.652,-71.175c13.206,3.088 85.589,26.426 54.935,58.606c-17.439,18.308 -23.829,15.319 -37.449,50.198c-2.396,6.135 -21.622,55.371 -85.06,39.193c-62.402,-15.914 -56.746,-52.488 -56.077,-76.822Z" style="fill:none;stroke:#fff;stroke-opacity:0.1;stroke-width:2.85px;"/><path d="M1932.375,900.811c-47.775,1.372 -25.936,35.283 -3.891,38.859c3.097,0.502 37.108,6.02 37.263,-10.723c0.163,-17.642 -29.807,-27.021 -33.372,-28.137Z" style="fill:none;stroke:#fff;stroke-opacity:0.49;stroke-width:1.63px;"/><path d="M1696.256,294.935c-24.953,-14.361 -133.887,-0.614 -66.396,33.262c10.963,5.503 69.533,25.393 85.946,1.338c8.465,-12.406 -3.522,-25.375 -19.55,-34.6Z" style="fill:none;stroke:#fff;stroke-opacity:0.49;stroke-width:1.22px;"/><path d="M1597.709,103.484c-29.952,15.543 0.815,41.655 22.029,34.761c33.897,-11.017 -0.825,-45.764 -22.029,-34.761Z" style="fill:none;stroke:#fff;stroke-opacity:0.49;stroke-width:1.63px;"/><path d="M3175.113,1010.727c-19.902,20.735 -21.793,32.263 18.905,47.607c44.026,16.599 52.585,-12.152 49.386,-22.748c-7.464,-24.729 -50.253,-24.208 -68.291,-24.859Z" style="fill:none;stroke:#faffff;stroke-opacity:0.49;stroke-width:1.63px;"/><path d="M3662.351,300.49c-11.592,14.773 -32.41,72.781 14.059,74.988c55.413,2.632 11.806,-107.949 -14.059,-74.988Z" style="fill:none;stroke:#fff;stroke-opacity:0.49;stroke-width:1.22px;"/><path d="M3792.912,582.389c-23.301,-12.835 -41.519,-21.437 -40.666,-52.736c0.592,-21.732 38.153,-27.957 49.912,-16.495c0.645,0.628 25.242,41.106 -9.246,69.232Z" style="fill:none;stroke:#fff;stroke-opacity:0.49;stroke-width:2.03px;"/><path d="M3094.341,743.02c-2.068,3.242 -21.119,27.007 -2.008,36.052c41.834,19.8 30.339,-62.461 2.008,-36.052Z" style="fill:none;stroke:#fff;stroke-opacity:0.49;stroke-width:1.63px;"/><path d="M440.415,1261.643c-42.875,20.601 -0.707,28.072 1.893,28.34c7.132,0.737 6.943,-1.211 88.953,-10.434c42.581,-4.789 16.878,-22.703 24.543,-38.492c1.373,-2.827 50.258,-48.36 20.518,-70.893c-10.113,-7.662 -35.044,-0.597 -47.082,27.281c-6.721,15.567 -7.741,24.92 -36.308,38.744c-26.997,13.064 -22.477,11.018 -52.518,25.453Z" style="fill:none;stroke:#fff;stroke-opacity:0.49;stroke-width:1.63px;"/><path d="M135.249,1226.886c-60.061,58.878 -19.568,114.53 43.488,90.134c23.674,-9.159 76.029,-16.51 32.642,-58.822c-25.06,-24.439 -37.342,-45.025 -76.13,-31.312Z" style="fill:none;stroke:#fff;stroke-opacity:0.49;stroke-width:2.03px;"/><path d="M2164.035,-6.286c-1.883,0.924 2.712,30.918 15.723,32.896c8.657,1.316 13.277,-13.404 2.827,-28.251" style="fill:none;stroke:#faffff;stroke-opacity:0.49;stroke-width:1.63px;"/><path d="M1916.762,37.785c-43.797,18.357 27.481,52.748 67.556,38.882c75.581,-26.152 26.992,-61.531 1.516,-62.969c-34.347,-1.94 -55.569,18.429 -69.072,24.088Z" style="fill:none;stroke:#faffff;stroke-opacity:0.49;stroke-width:1.63px;"/><path d="M887.23,25.442c-32.494,47.795 -31.279,115.68 20.422,109.488c3.985,-0.477 8.27,-1.395 12.862,-2.795c32.951,-10.049 33.294,-14.978 66.865,-6.212c64.126,16.745 61.6,-41.51 4.029,-57.674c-5.72,-1.606 -40.953,-21.945 -58.617,-29.681c-20.979,-9.188 -33.307,-31.151 -45.562,-13.126Z" style="fill:none;stroke:#fff;stroke-opacity:0.49;stroke-width:1.22px;"/><path d="M810.044,416.74c2.855,49.712 27.485,53.546 7.814,81.923c-8.364,12.065 -43.993,43.095 -30.87,66.883c12.35,22.386 128.367,39.439 96.83,-36.441c-17.947,-43.181 22.391,-64.434 7.359,-88.088c-20.472,-32.215 -81.884,-37.331 -81.134,-24.277Z" style="fill:none;stroke:#fff;stroke-opacity:0.25;stroke-width:0.81px;"/><path d="M200.089,144.619c-92.184,63.894 130.346,55.505 106.551,13.244c-21.432,-38.065 -83.004,-29.565 -106.551,-13.244Z" style="fill:none;stroke:#fff;stroke-opacity:0.49;stroke-width:1.22px;"/><path d="M3593.311,1392.063c-73.295,11.467 11.71,55.621 47.827,39.616c16.654,-7.38 -14.627,-44.81 -47.827,-39.616Z" style="fill:none;stroke:#fff;stroke-opacity:0.49;stroke-width:1.63px;"/><path d="M3793.133,1075.651c-61.32,39.965 -46.051,49.689 -63.754,75.491c-14.153,20.629 -83.224,31.257 -15.726,89.248c23.597,20.273 87.33,56.704 119.359,27.656c80.544,-73.044 -9.964,-124.113 -31.608,-183.978c-4.164,-11.519 -5.767,-3.688 -6.683,-4.068" style="fill:none;stroke:#fff;stroke-opacity:0.49;stroke-width:0.41px;"/><path d="M3704.722,821.659c-30.625,24.871 -1.665,40.024 26.426,74.015c17.838,21.584 28.958,-5.206 27.012,-29.252c-4.275,-52.836 -35.099,-54.754 -53.438,-44.763Z" style="fill:none;stroke:#fff;stroke-opacity:0.49;stroke-width:1.22px;"/><path d="M3378.09,732.493c-3.041,66.003 68.047,33.777 73.702,3.642c9.685,-51.61 -71.779,-71.445 -73.702,-3.642Z" style="fill:none;stroke:#fff;stroke-opacity:0.49;stroke-width:1.63px;"/><path d="M3415.84,959.098c-54.545,42.723 15.583,57.865 33.798,54.865c29.765,-4.902 5.758,-47.586 -33.798,-54.865Z" style="fill:none;stroke:#fff;stroke-opacity:0.49;stroke-width:1.63px;"/><path d="M3264.216,243.311c-14.778,9.112 -46.962,66.383 -11.213,77.296c24.231,7.397 76.315,-32.025 82.831,-51.411c8.228,-24.478 -29.571,-51.811 -71.618,-25.884Z" style="fill:none;stroke:#fff;stroke-opacity:0.49;stroke-width:1.22px;"/><path d="M2866.64,549.586c-29.98,11.135 -6.399,68.556 3.675,74.591c13.453,8.06 85.802,8.515 47.368,-45.451c-7.575,-10.636 -34.995,-35.101 -51.043,-29.14Z" style="fill:none;stroke:#fff;stroke-opacity:0.49;stroke-width:1.22px;"/><path d="M2938.928,469.292c-0.354,0.321 -30.99,19.768 23.653,52.437c48.04,28.722 73.549,16.789 69.897,-1.332c-3.843,-19.067 -79.399,-63.946 -93.55,-51.105Z" style="fill:none;stroke:#fff;stroke-opacity:0.49;stroke-width:1.22px;"/><path d="M3070.374,534.422c-37.939,14.873 -26.776,32.087 -20.11,43.684c8.03,13.969 158.123,71.26 77.095,-2.567c-50.615,-46.117 13.425,-66.533 -15.446,-81.21c-9.261,-4.707 -28.608,-2.451 -35.375,10.378c-7.222,13.693 9.725,23.486 -6.163,29.715Z" style="fill:none;stroke:#fff;stroke-opacity:0.49;stroke-width:1.22px;"/><path d="M3302.93,515.966c-19.222,62.391 17.421,51.779 21.981,49.84c21.456,-9.123 32.172,-43.63 21.495,-61.874c-6.644,-11.352 -35.004,-15.769 -43.476,12.034Z" style="fill:none;stroke:#fff;stroke-opacity:0.49;stroke-width:1.63px;"/><path d="M216.296,671.892c-52.165,5.02 -36.481,32.313 -11.363,34.633c64.462,5.955 65.852,-27.718 49.631,-37.316c-17.037,-10.082 -18.435,-3.153 -38.268,2.683Z" style="fill:none;stroke:#fff;stroke-opacity:0.49;stroke-width:1.63px;"/></g><g id="Last"><path d="M158.256,948.732c-48.274,33.87 6.905,56.204 33.747,41.033c29.893,-16.895 -0.564,-64.315 -33.747,-41.033Z" style="fill:none;stroke:#fff;stroke-opacity:0.49;stroke-width:1.63px;"/><path d="M591.847,610.812c-53.22,23.221 65.095,74.28 54.827,27.771c-0.564,-2.557 -4.095,-18.55 -23.358,-26.107c-14.699,-5.767 -15.256,-3.017 -31.47,-1.664Z" style="fill:none;stroke:#fff;stroke-opacity:0.2;stroke-width:1.63px;"/><path d="M145.65,574.183c1.887,17.701 -2.576,48.54 46.42,28.034c33.455,-14.001 28.724,-19.179 34.488,-49.714c7.032,-37.252 40.012,-41.313 20.073,-55.19c-6.559,-4.565 -71.468,-21.178 -86.293,22.293c-7.612,22.323 -16.585,36.781 -14.688,54.576Z" style="fill:none;stroke:#fff;stroke-opacity:0.49;stroke-width:1.22px;"/><path d="M194.606,524.637c-24.592,-1.056 -37.457,24.049 -22.335,47.558c9.059,14.084 31.204,2.583 32.615,-8.423c1.462,-11.404 5.009,-38.479 -10.28,-39.135Z" style="fill:none;stroke:#fff;stroke-opacity:0.49;stroke-width:1.63px;"/><path d="M373.527,935.613c-71.157,-23.465 -54.483,16.634 -35.079,27.852c66.496,38.445 83.396,-10.329 35.079,-27.852Z" style="fill:none;stroke:#fff;stroke-opacity:0.49;stroke-width:1.63px;"/><path d="M1234.283,1288.294c-44.982,20.889 -90.877,47.38 -34.766,88.867c22.254,16.454 68.332,23.012 90.513,-44.442c19.239,-58.51 -53.357,-44.57 -55.747,-44.426Z" style="fill:none;stroke:#fff;stroke-opacity:0.49;stroke-width:2.03px;"/><path d="M166.706,1253.933c-58.415,29.895 -10.147,44.58 14.613,44.069c41.613,-0.858 4.474,-53.837 -14.613,-44.069Z" style="fill:none;stroke:#fff;stroke-opacity:0.49;stroke-width:1.63px;"/><path d="M3762.033,1180.431c-37.3,13.092 -37.488,52.52 17.608,63.473c11.999,2.386 23.57,1.76 7.314,-39.179c-7.226,-18.197 -9.234,-29.8 -24.922,-24.294Z" style="fill:none;stroke:#fff;stroke-opacity:0.49;stroke-width:1.63px;"/><path d="M3195.954,-10.265c-31.246,16.421 -43.187,25.124 -22.002,50.211c5.397,6.391 20.719,21.745 25.771,25.594c36.862,28.088 121.022,-5.411 42.987,-52.085c-20.85,-12.471 -21.807,-19.355 -27.14,-25.327c-7.345,-8.225 -10.081,-4.987 -19.616,1.608Z" style="fill:none;stroke:#fff;stroke-opacity:0.05;stroke-width:4.07px;"/><path d="M2880.354,-35.053c0.058,0.977 -2.067,50.444 38.324,42.321c19.069,-3.835 19.885,-17.234 20.19,-17.921" style="fill:none;stroke:#faffff;stroke-opacity:0.49;stroke-width:1.63px;"/></g></svg>