<svg xmlns="http://www.w3.org/2000/svg" viewBox="0 0 48 48">
  <path fill="#42a5f5" d="M10.135 7.996C13.294 5.562 17.924 4 24.026 4 36.675 4 43 10.712 43 17.985c0 2.145-.533 4.566-1.444 7.047C41.05 25 18 11 10.135 7.996"/>
  <path fill="#6d4c41" d="M13.392 17.23c.08.03.16.07.24.11-.761-.32-1.542-.59-2.353-.8A17.2 17.2 0 0 0 7.003 16c-.32 0-.631.01-.941.02a20.4 20.4 0 0 1 5.357-4.36 55 55 0 0 0 3.295 4.6c-.461.3-.902.63-1.322.97"/>
  <path fill="#9ccc65" d="M7.004 26.329C5.786 23.4 5.05 20.499 5.05 17.98c0-.63.05-1.26.15-1.88a17 17 0 0 1 8.189 1.136C11 20 9 23 7.004 26.329"/>
  <path fill="#1e88e5" d="M15.685 9.85a20.4 20.4 0 0 0-4.136 1.74c-.04.02-.09.05-.13.07a.2.2 0 0 1-.03-.06c-.17-.39-.841-2.18-1.112-3.42-.02-.08-.03-.17-.05-.25 1.332-1.02 2.934-1.88 4.797-2.53.03 1.54.26 3.03.661 4.45"/>
  <path fill="#757575" d="M11.419 11.66a20.4 20.4 0 0 0-5.357 4.37c-.29.01-.581.04-.861.07.471-3.1 2.143-5.99 5.027-8.17.24 1.31 1.082 3.531 1.191 3.73"/>
  <path fill="#8d6e63" d="m5.08 17.12.01-.01c-.03.29-.04.58-.04.87 0-.29.01-.57.03-.86"/>
  <path fill="#aed581" d="M24.026 33c0 3.79-1.232 7.28-3.335 10.1-.03-.01-.05-.02-.07-.03-4.997-2.52-10.695-9.71-13.619-16.74a19.47 19.47 0 0 1 6.389-9.1C19.62 19.76 24.026 25.87 24.026 33"/>
  <path fill="#8d6e63" d="M18.298 20.28a17 17 0 0 0-2.473-1.82c-.21-.13-.431-.26-.661-.38-.25-.15-.511-.28-.781-.4-.25-.12-.501-.24-.751-.34-.08-.04-.16-.08-.24-.11.421-.34.861-.67 1.322-.97a57 57 0 0 0 3.584 4.02"/>
  <path fill="#8d6e63" d="M17.988 41.36c-.06-.04-.11-.08-.16-.12.04.04.08.07.12.1.03.02.06.04.08.06.03.02.05.04.08.06.04.04.09.07.13.1.09.07.18.13.26.2.06.04.11.08.17.11-.229-.16-.46-.33-.68-.51m.761.57c.13.1.26.18.391.27.07.05.14.09.21.13-.2-.13-.401-.26-.601-.4m-5.357-24.7-.01.01c.08.03.17.06.25.1-.08-.04-.16-.08-.24-.11"/>
  <path fill="#8d6e63" d="M13.632 17.34c-.08-.04-.17-.07-.25-.1l.01-.01c.08.03.16.07.24.11m4.196 23.9c.05.04.1.08.16.12-.01 0-.03-.01-.04-.02a1 1 0 0 1-.12-.1m.16.12c.22.18.451.35.681.51-.06-.03-.11-.07-.17-.11-.08-.07-.17-.13-.26-.2-.04-.03-.09-.06-.13-.1a1 1 0 0 1-.121-.1m.761.57c.2.14.401.27.601.4-.07-.04-.14-.08-.21-.13-.131-.09-.261-.17-.391-.27M22.935 39a16.6 16.6 0 0 1-2.243 4.1c1.162.58 2.293.9 3.335.9.13 0 .27-.01.411-.02.07 0 .14-.01.21-.02.03 0 .05 0 .08-.01 1.252-.17 2.684-.8 4.186-1.75.26-.17.531-.36.791-.55 4.676-3.48 9.513-10.24 11.846-16.62a20.1 20.1 0 0 0-3.244-7.33c-.12-.08-.23-.16-.35-.24a19.4 19.4 0 0 0-6.469-3.53 19.2 19.2 0 0 0-5.96-.93c-2.694 0-5.267.55-7.601 1.53 2.483 3.77 7.1 8.58 7.1 16.47 0 4.39-1.843 7.58-2.073 7.96a.1.1 0 0 0-.019.04"/>
  <path fill="#8d6e63" d="M41.551 25.03c-2.333 6.38-7.17 13.14-11.846 16.62-.26.19-.531.38-.791.55-1.502.95-2.934 1.58-4.186 1.75-.03.01-.05.01-.08.01-.07.01-.14.02-.21.02-.14.01-.28.02-.411.02-1.041 0-2.173-.32-3.335-.9a16.6 16.6 0 0 0 2.243-4.1s.01-.01.02-.04c.03-.05.09-.15.17-.3.07-.13.15-.29.25-.49.11-.21.22-.46.33-.74.06-.14.12-.29.19-.45.06-.16.12-.33.18-.5.2-.56.391-1.2.551-1.9.04-.17.07-.35.11-.54.18-.92.29-1.94.29-3.04 0-6.13-2.784-10.4-5.207-13.77-.681-.97-1.342-1.86-1.893-2.7A19.6 19.6 0 0 1 25.527 13c2.083 0 4.086.32 5.958.93 2.393.76 4.576 1.97 6.469 3.53.12.08.23.16.351.24a20 20 0 0 1 2.083 3.73q.755 1.725 1.163 3.6"/>
  <path fill="#a1887f" d="M40.389 21.43a17.9 17.9 0 0 1-7.35 1.57c-5.227 0-9.934-2.22-13.218-5.77-.681-.97-1.342-1.86-1.893-2.7A19.6 19.6 0 0 1 25.529 13c2.083 0 4.086.32 5.958.93 2.393.76 4.576 1.97 6.469 3.53.12.08.23.16.351.24.82 1.16 1.521 2.41 2.082 3.73"/>
  <path fill="#7f877f" d="M9.18 13.13c-1.14.86-2.19 1.83-3.12 2.9-.06 0-.13 0-.19.01-.23.01-.45.03-.67.06.04-.26.09-.53.15-.79.05-.26.12-.52.2-.78.07-.24.15-.47.23-.71.01-.02.01-.03.02-.05.09-.25.2-.5.31-.75.3-.01.59-.02.89-.02.74 0 1.47.04 2.18.13"/>
  <path fill="#806d59" d="M14.71 16.26c-.46.31-.9.63-1.33.98-1.89-.77-3.94-1.2-6.1-1.23C7.19 16 7.09 16 7 16c-.27 0-.53.01-.8.02-.05 0-.09 0-.14.01.93-1.07 1.98-2.04 3.12-2.9.25.02.5.05.74.09.8.13 1.97.45 3.13.85.51.71 1.07 1.47 1.66 2.19"/>
  <path fill="#eee" d="M38.306 17.7c-.12-.08-.23-.16-.351-.24a19.4 19.4 0 0 0-6.469-3.53 19.2 19.2 0 0 0-5.958-.93c-2.694 0-5.267.55-7.601 1.53 2.483 3.77 7.1 8.58 7.1 16.47 0 4.68-2.093 8-2.093 8a16.75 16.75 0 0 0 1.062-6.93c-.01-.31-.04-.62-.07-.93q-.09-.78-.24-1.53c-.03-.17-.07-.33-.11-.5-.05-.21-.1-.43-.16-.64-.07-.26-.15-.51-.23-.77a18 18 0 0 0-.791-1.96 17 17 0 0 0-4.016-5.38c-.03-.03-.05-.06-.08-.08a57 57 0 0 1-3.585-4.02c-1.382-1.7-2.654-3.61-3.295-4.6A20.43 20.43 0 0 1 21.523 9c6.939 0 13.068 3.44 16.783 8.7"/>
  <path fill="#eee" d="M23.125 38.66c.07-.13.15-.29.25-.49-.09.2-.18.36-.25.49"/>
</svg>
