<svg width="167" height="146" viewBox="0 0 167 146" fill="none" xmlns="http://www.w3.org/2000/svg">
<g clip-path="url(#clip0_71_156)">
<path d="M166.34 2.32C165.51 0.89 163.98 0 162.33 0H4.64006C2.98006 0 1.45006 0.88 0.620059 2.32C-0.209941 3.75 -0.209941 5.52 0.620059 6.96L4.51006 13.7C5.34006 15.13 6.87006 16.02 8.53006 16.02H142.61L83.4801 118.44L40.6601 44.28C39.8301 42.85 38.3001 41.96 36.6501 41.96C35.0001 41.96 33.4601 42.84 32.6401 44.28L28.7501 51.02C27.9201 52.45 27.9201 54.22 28.7501 55.66L79.4701 143.52C80.3001 144.95 81.8301 145.84 83.4801 145.84C85.1301 145.84 86.6701 144.96 87.4901 143.52L166.34 6.95C167.17 5.52 167.17 3.75 166.34 2.31V2.32Z" fill="#F5F5F6"/>
<path d="M104.22 34.3999C103.99 34.0099 103.67 33.6899 103.29 33.4699C102.91 33.2499 102.48 33.1299 102.03 33.1299H100.2C100.18 33.1299 100.15 33.1299 100.13 33.1299C100.14 33.1299 100.15 33.1299 100.16 33.1299C100.15 33.1299 100.14 33.1299 100.13 33.1299C100.12 33.1299 100.11 33.1299 100.1 33.1299C100.11 33.1299 100.12 33.1299 100.13 33.1299C100.11 33.1299 100.08 33.1299 100.06 33.1299H64.9401C64.0401 33.1299 63.2001 33.6099 62.7501 34.3899C62.3001 35.1699 62.3001 36.1399 62.7501 36.9199L81.3001 69.0499C81.7501 69.8299 82.5901 70.3099 83.4901 70.3099C83.9401 70.3099 84.3801 70.1899 84.7501 69.9699C85.1301 69.7499 85.4501 69.4399 85.6801 69.0399L104.23 36.9099C104.68 36.1299 104.68 35.1599 104.23 34.3799L104.22 34.3999Z" fill="#F5F5F6"/>
</g>
<defs>
<clipPath id="clip0_71_156">
<rect width="166.96" height="145.83" fill="white"/>
</clipPath>
</defs>
</svg>
